<?xml version="1.0" encoding="UTF-8"?>
<svg width="79px" height="60px" viewBox="0 0 79 60" version="1.1" xmlns="http://www.w3.org/2000/svg" xmlns:xlink="http://www.w3.org/1999/xlink">
    <!-- Generator: Sketch 51.2 (57519) - http://www.bohemiancoding.com/sketch -->
    <title>Shape</title>
    <desc>Created with Sketch.</desc>
    <defs></defs>
    <g id="Page-1" stroke="none" stroke-width="1" fill="none" fill-rule="evenodd">
        <g id="Single-Experience-Page" transform="translate(-661.000000, -1240.000000)" fill="#FF705B" fill-rule="nonzero">
            <path d="M739.479685,1296.85325 C731.74536,1282.78992 724.919165,1270.36148 719.424724,1255.60183 L719.989135,1253.99865 C720.61062,1252.24834 721.233374,1250.49042 721.800321,1248.7287 L724.356022,1240.77622 L721.941107,1240 L719.385406,1247.95248 C718.969391,1249.24745 718.519131,1250.53862 718.065066,1251.82725 C717.623684,1250.55384 717.188644,1249.26648 716.766288,1247.95248 L714.210586,1240 L711.795671,1240.77622 L714.351372,1248.7287 C714.967784,1250.64516 715.608295,1252.50708 716.264026,1254.33983 L684.374202,1254.33983 C685.029933,1252.50708 685.671712,1250.64516 686.286856,1248.7287 L688.842557,1240.77622 L686.427641,1240 L683.87194,1247.95248 C683.449584,1249.26394 683.015812,1250.55004 682.57443,1251.82218 C682.007483,1250.20251 681.449414,1248.56636 680.910371,1246.88834 L678.695853,1240 L676.280937,1240.77622 L678.495455,1247.66457 C679.368072,1250.38135 680.281275,1253.00681 681.22365,1255.57519 C675.727941,1270.34626 668.896673,1282.78104 661.158542,1296.85325 L661,1297.13736 L661,1300 L739.636959,1300 L739.636959,1297.13736 L739.479685,1296.85325 Z M722.475077,1269.55989 L689.688538,1269.55989 C688.562254,1267.05999 687.475289,1264.52712 686.420031,1261.94986 L719.173593,1261.94986 C720.231387,1264.54107 721.33611,1267.06887 722.475077,1269.55989 Z M693.255105,1277.16992 L698.523781,1277.16992 L694.99146,1280.7035 C694.405488,1279.52522 693.827126,1278.3482 693.255105,1277.16992 Z M692.038769,1274.63324 C691.637974,1273.78979 691.240984,1272.94381 690.849068,1272.09656 L723.652095,1272.09656 C724.05289,1272.94508 724.456221,1273.79106 724.865894,1274.63324 L692.038769,1274.63324 Z M723.891811,1277.16992 L720.611889,1280.44984 L717.331966,1277.16992 L723.891811,1277.16992 Z M711.20843,1277.16992 L707.928508,1280.44984 L704.648586,1277.16992 L711.20843,1277.16992 Z M692.749038,1281.89447 C690.367099,1281.21338 688.350442,1279.56834 687.201328,1277.27265 C685.790936,1274.4506 684.952564,1271.42561 684.710312,1268.28013 L684.350104,1263.59743 C686.945123,1269.87951 689.753224,1275.87494 692.749038,1281.89447 Z M680.189955,1278.40781 C681.320044,1276.14763 682.106414,1273.7657 682.561747,1271.30385 C683.01708,1273.7657 683.80345,1276.14763 684.933539,1278.40781 C686.345199,1281.23113 688.789287,1283.26682 691.677293,1284.20031 C689.063248,1287.4777 687.635099,1291.50721 687.635099,1295.75995 L687.635099,1297.46332 L677.488395,1297.46332 L677.488395,1295.75995 C677.488395,1291.50594 676.060246,1287.47643 673.446201,1284.20031 C676.335475,1283.26682 678.778295,1281.23113 680.189955,1278.40781 Z M672.08147,1281.95789 C675.204118,1275.95104 678.112417,1269.94927 680.772122,1263.60631 L680.413182,1268.27887 C680.17093,1271.42434 679.332558,1274.4506 677.922166,1277.27138 C676.727392,1279.66093 674.587706,1281.33006 672.08147,1281.95789 Z M690.171775,1295.75995 C690.171775,1291.74946 691.648121,1287.97362 694.319241,1285.01966 C696.384095,1289.09483 698.533928,1293.21312 700.759861,1297.46332 L690.171775,1297.46332 L690.171775,1295.75995 Z M701.586818,1277.69501 L704.86674,1280.97493 L698.306896,1280.97493 L701.586818,1277.69501 Z M714.270198,1277.69501 L717.55012,1280.97493 L710.990276,1280.97493 L714.270198,1277.69501 Z M726.571809,1278.07678 C727.058851,1279.04325 727.550966,1280.00972 728.048155,1280.97493 L723.673657,1280.97493 L726.571809,1278.07678 Z M718.162728,1259.41318 L685.399019,1259.41318 C685.066715,1258.57227 684.736947,1257.7301 684.412252,1256.87651 L717.193717,1256.87651 C717.51207,1257.72883 717.834228,1258.57608 718.162728,1259.41318 Z M670.594977,1284.78882 C673.399273,1287.77576 674.951719,1291.64419 674.951719,1295.75995 L674.951719,1297.46332 L663.715512,1297.46332 C666.099987,1293.12688 668.395679,1288.94263 670.594977,1284.78882 Z M703.6225,1297.46332 L703.586987,1297.3961 C701.092166,1292.63096 698.695007,1288.04972 696.399315,1283.51161 L729.368494,1283.51161 C731.771995,1288.08523 734.292183,1292.68169 736.921448,1297.46332 L703.6225,1297.46332 Z M690.171775,1264.48653 L692.708451,1264.48653 L692.708451,1267.02321 L690.171775,1267.02321 L690.171775,1264.48653 Z M695.245127,1264.48653 L697.781804,1264.48653 L697.781804,1267.02321 L695.245127,1267.02321 L695.245127,1264.48653 Z M700.31848,1264.48653 L702.855156,1264.48653 L702.855156,1267.02321 L700.31848,1267.02321 L700.31848,1264.48653 Z M705.391832,1264.48653 L707.928508,1264.48653 L707.928508,1267.02321 L705.391832,1267.02321 L705.391832,1264.48653 Z M710.465184,1264.48653 L713.00186,1264.48653 L713.00186,1267.02321 L710.465184,1267.02321 L710.465184,1264.48653 Z M715.538536,1264.48653 L718.075212,1264.48653 L718.075212,1267.02321 L715.538536,1267.02321 L715.538536,1264.48653 Z" id="Shape"></path>
        </g>
    </g>
</svg>