<?xml version="1.0" encoding="UTF-8"?>
<svg width="85px" height="60px" viewBox="0 0 85 60" version="1.1" xmlns="http://www.w3.org/2000/svg" xmlns:xlink="http://www.w3.org/1999/xlink">
    <!-- Generator: Sketch 51.2 (57519) - http://www.bohemiancoding.com/sketch -->
    <title>Shape</title>
    <desc>Created with Sketch.</desc>
    <defs></defs>
    <g id="Page-1" stroke="none" stroke-width="1" fill="none" fill-rule="evenodd">
        <g id="Single-Experience-Page" transform="translate(-338.000000, -1430.000000)" fill="#FF705B" fill-rule="nonzero">
            <path d="M422.545455,1453.18182 L408.227273,1453.18182 L404.136364,1458.63636 L402.696364,1458.63636 C401.175909,1456.86636 399.385455,1455.41273 397.402727,1454.30682 C394.689091,1440.185 382.445,1430 368,1430 C351.457727,1430 338,1443.45773 338,1460 C338,1476.54227 351.457727,1490 368,1490 C382.445,1490 394.689091,1479.815 397.402727,1465.69318 C399.385455,1464.58727 401.175909,1463.13364 402.696364,1461.36364 L404.136364,1461.36364 L408.227273,1466.81818 L422.545455,1466.81818 L417.431818,1460 L422.545455,1453.18182 Z M368,1487.27273 C352.961818,1487.27273 340.727273,1475.03818 340.727273,1460 C340.727273,1444.96182 352.961818,1432.72727 368,1432.72727 C380.465,1432.72727 391.138182,1441.06455 394.300455,1452.89 C392.826364,1452.38136 391.282727,1452.06364 389.700909,1451.91909 C386.331364,1442.85364 377.737727,1436.81818 368,1436.81818 C355.217273,1436.81818 344.818182,1447.21727 344.818182,1460 C344.818182,1472.78273 355.217273,1483.18182 368,1483.18182 C377.737727,1483.18182 386.331364,1477.14636 389.700909,1468.08091 C391.282727,1467.93636 392.826364,1467.61864 394.300455,1467.11 C391.138182,1478.93545 380.465,1487.27273 368,1487.27273 Z M375.247727,1460 C377.361364,1457.68727 380.045,1456.05773 383,1455.21227 L383,1464.78773 C380.045,1463.94227 377.361364,1462.31273 375.247727,1460 Z M374.201818,1457.20045 C373.13,1454.83727 370.76,1453.18182 368,1453.18182 C364.240455,1453.18182 361.181818,1456.24045 361.181818,1460 C361.181818,1463.75955 364.240455,1466.81818 368,1466.81818 C370.76,1466.81818 373.13,1465.16273 374.201818,1462.79955 C375.547727,1464.08273 377.055909,1465.15045 378.682727,1465.99182 C376.525455,1469.83591 372.476818,1472.27273 368,1472.27273 C361.233636,1472.27273 355.727273,1466.76636 355.727273,1460 C355.727273,1453.23364 361.233636,1447.72727 368,1447.72727 C372.476818,1447.72727 376.525455,1450.16409 378.681364,1454.00818 C377.055909,1454.84955 375.547727,1455.91727 374.201818,1457.20045 Z M368,1458.63636 L368,1461.36364 L371.84,1461.36364 C371.275455,1462.94682 369.775455,1464.09091 368,1464.09091 C365.744545,1464.09091 363.909091,1462.25545 363.909091,1460 C363.909091,1457.74455 365.744545,1455.90909 368,1455.90909 C369.775455,1455.90909 371.275455,1457.05318 371.84,1458.63636 L368,1458.63636 Z M381.208182,1452.89955 C378.609091,1448.06273 373.565,1445 368,1445 C359.729545,1445 353,1451.72955 353,1460 C353,1468.27045 359.729545,1475 368,1475 C373.565,1475 378.609091,1471.93727 381.208182,1467.10045 C382.972727,1467.71409 384.840909,1468.04682 386.754091,1468.13273 C383.538636,1475.57273 376.229545,1480.45455 368,1480.45455 C356.721364,1480.45455 347.545455,1471.27864 347.545455,1460 C347.545455,1448.72136 356.721364,1439.54545 368,1439.54545 C376.229545,1439.54545 383.538636,1444.42727 386.752727,1451.86727 C384.840909,1451.95318 382.972727,1452.28727 381.208182,1452.89955 Z M387.905,1465.45455 L387.641818,1465.45455 C386.996818,1465.45455 386.36,1465.41091 385.728636,1465.34 L385.728636,1454.66 C386.358636,1454.58909 386.995455,1454.54545 387.640455,1454.54545 L387.903636,1454.54545 C388.548636,1454.54545 389.185455,1454.58909 389.816818,1454.66 L389.816818,1465.34 C389.186818,1465.41091 388.55,1465.45455 387.905,1465.45455 Z M392.545455,1464.78773 L392.545455,1455.21227 C395.500455,1456.05773 398.184091,1457.68727 400.297727,1460 C398.184091,1462.31273 395.500455,1463.94227 392.545455,1464.78773 Z M409.590909,1455.90909 L417.090909,1455.90909 L415.045455,1458.63636 L407.545455,1458.63636 L409.590909,1455.90909 Z M409.590909,1464.09091 L407.545455,1461.36364 L415.045455,1461.36364 L417.090909,1464.09091 L409.590909,1464.09091 Z" id="Shape"></path>
        </g>
    </g>
</svg>