<?xml version="1.0" encoding="UTF-8"?>
<svg width="51px" height="60px" viewBox="0 0 51 60" version="1.1" xmlns="http://www.w3.org/2000/svg" xmlns:xlink="http://www.w3.org/1999/xlink">
    <!-- Generator: Sketch 51.2 (57519) - http://www.bohemiancoding.com/sketch -->
    <title>Shape</title>
    <desc>Created with Sketch.</desc>
    <defs></defs>
    <g id="Page-1" stroke="none" stroke-width="1" fill="none" fill-rule="evenodd">
        <g id="Home-Page" transform="translate(-355.000000, -565.000000)" fill="#6E6F84" fill-rule="nonzero">
            <g id="hero">
                <g id="Group-19" transform="translate(280.000000, 565.000000)">
                    <path d="M114.671613,14.2935484 C114.611613,6.40258065 108.178065,0 100.273548,0 L100.05,0 C92.1445161,0 85.7119355,6.40258065 85.6509677,14.2935484 C78.9754839,19.0151613 75,26.6496774 75,34.8387097 C75,48.7122581 86.2877419,60 100.16129,60 C114.034839,60 125.322581,48.7122581 125.322581,34.8387097 C125.322581,26.6496774 121.347097,19.0151613 114.671613,14.2935484 Z M100.049032,1.93548387 L100.272581,1.93548387 C107.148387,1.93548387 112.741935,7.52903226 112.741935,14.403871 C112.741935,16.8222581 112.045161,19.1709677 110.727097,21.1983871 L100.845484,36.4035484 C100.543548,36.8680645 99.78,36.8680645 99.4780645,36.4035484 L89.5954839,21.1993548 C88.2774194,19.1719355 87.5806452,16.8222581 87.5806452,14.403871 C87.5806452,7.52903226 93.1741935,1.93548387 100.049032,1.93548387 Z M76.9354839,34.8387097 C76.9354839,34.5145161 76.9519355,34.1932258 76.9654839,33.8709677 L79.1690323,33.8709677 C81.15,33.8709677 82.9054839,32.6816129 83.6409677,30.8429032 C84.0803226,29.7425806 85.1303226,29.0322581 86.3148387,29.0322581 C87.3454839,29.0322581 88.3045161,29.5887097 88.8154839,30.483871 L90.2554839,33.0048387 C90.8883871,34.1119355 90.8419355,35.4590323 90.1345161,36.5206452 C88.5193548,38.9429032 89.1764516,42.2283871 91.5996774,43.8435484 L91.8967742,44.0409677 C92.8306452,44.6622581 93.3870968,45.7035484 93.3870968,46.8241935 C93.3870968,49.9025806 91.8580645,52.7593548 89.2964516,54.4664516 L88.5687097,54.9512903 C81.6232258,50.9332258 76.9354839,43.4254839 76.9354839,34.8387097 Z M90.5225806,55.9616129 C93.5274194,53.883871 95.3225806,50.4870968 95.3225806,46.8241935 C95.3225806,45.0541935 94.443871,43.4119355 92.97,42.4296774 L92.6729032,42.2322581 C91.1380645,41.2093548 90.7219355,39.1277419 91.7458065,37.593871 C92.8625806,35.9187097 92.9351613,33.7925806 91.9364516,32.0448387 L90.4964516,29.523871 C89.6409677,28.0267742 88.0393548,27.0967742 86.3148387,27.0967742 C84.333871,27.0967742 82.5783871,28.286129 81.8429032,30.1248387 C81.4035484,31.2251613 80.3535484,31.9354839 79.1690323,31.9354839 L77.1183871,31.9354839 C77.8780645,25.8890323 80.9912903,20.373871 85.8135484,16.5812903 C86.1203226,18.596129 86.85,20.5267742 87.9725806,22.2541935 L97.8551613,37.4583871 C98.3641935,38.2422581 99.2264516,38.7096774 100.16129,38.7096774 C101.096129,38.7096774 101.958387,38.2422581 102.467419,37.4583871 L112.35,22.2541935 C113.472581,20.5267742 114.202258,18.596129 114.509032,16.5812903 C115.627742,17.4609677 116.653548,18.4316129 117.580645,19.4825806 L117.580645,23.396129 C117.580645,25.5706452 115.952903,27.4141935 113.794839,27.6841935 C111.54,27.9648387 109.83871,29.8916129 109.83871,32.1648387 C109.83871,33.5448387 110.457097,34.83 111.534194,35.6922581 L112.469032,36.4393548 C113.78129,37.4893548 114.425806,39.1732258 114.149032,40.8319355 C113.925484,42.1770968 113.125161,43.3509677 111.956129,44.0525806 C110.087419,45.1741935 108.584516,46.7970968 107.609032,48.7470968 L106.207742,51.5487097 C105.418065,53.1290323 105,54.8990323 105,56.666129 L105,57.5535484 C103.438065,57.8864516 101.820968,58.0645161 100.16129,58.0645161 C96.723871,58.0645161 93.4616129,57.3077419 90.5225806,55.9616129 Z M106.935484,57.0541935 L106.935484,56.666129 C106.935484,55.1970968 107.281935,53.7270968 107.939032,52.413871 L109.340323,49.6122581 C110.150323,47.9922581 111.399677,46.6432258 112.951935,45.7112903 C114.60871,44.7174194 115.740968,43.0548387 116.057419,41.1493548 C116.449355,38.7996774 115.536774,36.4151613 113.676774,34.9277419 L112.741935,34.1806452 C112.127419,33.6890323 111.774194,32.9535484 111.774194,32.1648387 C111.774194,30.866129 112.745806,29.7648387 114.034839,29.6041935 C117.159677,29.2132258 119.516129,26.5441935 119.516129,23.3951613 L119.516129,22.0151613 C122.00129,25.7651613 123.387097,30.2041935 123.387097,34.8387097 C123.387097,45.2893548 116.447419,54.1480645 106.935484,57.0541935 Z M100.16129,23.2258065 C104.963226,23.2258065 108.870968,19.3180645 108.870968,14.516129 C108.870968,9.71419355 104.963226,5.80645161 100.16129,5.80645161 C95.3593548,5.80645161 91.4516129,9.71419355 91.4516129,14.516129 C91.4516129,19.3180645 95.3593548,23.2258065 100.16129,23.2258065 Z M100.16129,7.74193548 C103.896774,7.74193548 106.935484,10.7806452 106.935484,14.516129 C106.935484,18.2516129 103.896774,21.2903226 100.16129,21.2903226 C96.4258065,21.2903226 93.3870968,18.2516129 93.3870968,14.516129 C93.3870968,10.7806452 96.4258065,7.74193548 100.16129,7.74193548 Z M117.580645,31.9354839 L119.516129,31.9354839 L119.516129,33.8709677 L117.580645,33.8709677 L117.580645,31.9354839 Z M85.6451613,33.8709677 L87.5806452,33.8709677 L87.5806452,35.8064516 L85.6451613,35.8064516 L85.6451613,33.8709677 Z M81.7741935,43.5483871 L83.7096774,43.5483871 L83.7096774,45.483871 L81.7741935,45.483871 L81.7741935,43.5483871 Z M111.774194,49.3548387 L113.709677,49.3548387 L113.709677,51.2903226 L111.774194,51.2903226 L111.774194,49.3548387 Z M88.5483871,48.3870968 L90.483871,48.3870968 L90.483871,50.3225806 L88.5483871,50.3225806 L88.5483871,48.3870968 Z" id="Shape"></path>
                </g>
            </g>
        </g>
    </g>
</svg>