<?xml version="1.0" encoding="UTF-8"?>
<svg width="51px" height="62px" viewBox="0 0 51 62" version="1.1" xmlns="http://www.w3.org/2000/svg" xmlns:xlink="http://www.w3.org/1999/xlink">
    <!-- Generator: Sketch 51.2 (57519) - http://www.bohemiancoding.com/sketch -->
    <title>Group 10</title>
    <desc>Created with Sketch.</desc>
    <defs></defs>
    <g id="Page-1" stroke="none" stroke-width="1" fill="none" fill-rule="evenodd">
        <g id="Home-Page" transform="translate(-675.000000, -565.000000)" fill="#6E6F84" fill-rule="nonzero">
            <g id="hero">
                <g id="Group-9" transform="translate(600.000000, 565.000000)">
                    <g id="Group-10" transform="translate(75.000000, 0.000000)">
                        <path d="M44.8073016,19.475873 L45.9016508,21.0622857 L50.5673968,17.7467619 L38.7332698,0.588507937 L34.0675238,3.90403175 L35.2199365,5.57409524 L13.4175873,22.4321905 L14.6743175,24.2272381 L6.18326984,30.2806032 L5.38514286,29.1340952 L0.602285714,32.5017778 L8.39460317,43.6922857 L13.1774603,40.3246032 L12.1047619,38.7844444 L20.708,32.8462222 L21.3752381,33.7988571 L23.6308571,32.4200952 L23.6308571,34.4444444 L19.6825397,34.4444444 L19.6825397,40.3492063 L20.1844444,40.3492063 L11.3273016,62 L17.3905079,62 L21.4165714,52.1587302 L25.5873016,52.1587302 L25.5873016,60.031746 L31.4920635,60.031746 L31.4920635,52.1587302 L35.6627937,52.1587302 L39.6888571,62 L45.7520635,62 L36.8949206,40.3492063 L37.3968254,40.3492063 L37.3968254,34.4444444 L33.4603175,34.4444444 L33.4603175,26.412 L44.8073016,19.475873 Z M8.87780952,40.943619 L3.33520635,32.984 L4.89996825,31.8827619 L10.4425714,39.842381 L8.87780952,40.943619 Z M10.9799048,37.1694921 L7.30812698,31.8955556 L15.8031111,25.8392381 L19.5792063,31.2332381 L10.9799048,37.1694921 Z M16.1062222,22.8415873 L36.3388889,7.19692063 L41.5075238,14.6910476 L43.1273968,13.5740635 L36.789619,4.38428571 L38.246127,3.348 L47.8453016,17.2665079 L46.3887937,18.3027937 L44.2404444,15.1880317 L42.6205714,16.3050159 L43.6883492,17.8540317 L21.9263492,31.1535238 L16.1062222,22.8415873 Z M16.0698095,60.031746 L14.26,60.031746 L22.312127,40.3492063 L24.1209524,40.3492063 L16.0698095,60.031746 Z M29.5238095,46.2539683 L27.5555556,46.2539683 L27.5555556,40.3492063 L29.5238095,40.3492063 L29.5238095,46.2539683 Z M31.4920635,41.9651429 L33.2467619,46.2539683 L31.4920635,46.2539683 L31.4920635,41.9651429 Z M23.8326032,46.2539683 L25.5873016,41.9651429 L25.5873016,46.2539683 L23.8326032,46.2539683 Z M29.5238095,58.0634921 L27.5555556,58.0634921 L27.5555556,52.1587302 L29.5238095,52.1587302 L29.5238095,58.0634921 Z M22.2225714,50.1904762 L23.0275873,48.2222222 L34.0517778,48.2222222 L34.8567937,50.1904762 L22.2225714,50.1904762 Z M42.8193651,60.031746 L41.0095556,60.031746 L32.9584127,40.3492063 L34.7672381,40.3492063 L42.8193651,60.031746 Z M35.4285714,38.3809524 L21.6507937,38.3809524 L21.6507937,36.4126984 L35.4285714,36.4126984 L35.4285714,38.3809524 Z M31.4920635,34.4444444 L25.5991111,34.4444444 L25.5991111,31.2165079 L31.4920635,27.6146032 L31.4920635,34.4444444 Z" id="Shape"></path>
                        <rect id="Rectangle-path" transform="translate(30.780632, 15.039040) rotate(-37.699599) translate(-30.780632, -15.039040) " x="29.8792031" y="14.05544" width="1.80285725" height="1.96720068"></rect>
                        <rect id="Rectangle-path" transform="translate(24.195741, 20.130800) rotate(-37.720207) translate(-24.195741, -20.130800) " x="18.4908133" y="19.1466826" width="11.4098555" height="1.96823452"></rect>
                    </g>
                </g>
            </g>
        </g>
    </g>
</svg>