<?xml version="1.0" encoding="UTF-8"?>
<svg width="65px" height="55px" viewBox="0 0 65 55" version="1.1" xmlns="http://www.w3.org/2000/svg" xmlns:xlink="http://www.w3.org/1999/xlink">
    <!-- Generator: Sketch 51.2 (57519) - http://www.bohemiancoding.com/sketch -->
    <title>Shape</title>
    <desc>Created with Sketch.</desc>
    <defs></defs>
    <g id="Page-1" stroke="none" stroke-width="1" fill="none" fill-rule="evenodd">
        <g id="About-Page" transform="translate(-345.000000, -1654.000000)" fill="#6E6F84" fill-rule="nonzero">
            <path d="M403.521038,1692.39623 C406.452642,1690.86453 407.968774,1689.02462 408.074623,1688.89387 L408.496981,1688.36358 L397.25,1666.89075 C396.773679,1665.98066 395.838679,1665.41509 394.811321,1665.41509 C393.783962,1665.41509 392.848962,1665.98066 392.372642,1666.89075 L388.601509,1674.09057 C386.150377,1670.94934 382.563962,1668.98387 378.587358,1668.60302 C379.355283,1664.24764 381.274057,1660.14547 384.183868,1656.75 L382.608585,1655.40094 C380.972075,1657.30934 379.635472,1659.42943 378.600849,1661.68236 C377.052547,1657.21698 372.816509,1654 367.830189,1654 L364.716981,1654 L364.716981,1655.03774 C364.716981,1661.3316 369.838208,1666.45283 376.132075,1666.45283 L376.940472,1666.45283 C376.768208,1667.14811 376.618774,1667.84755 376.502547,1668.55632 C370.898774,1668.81783 365.92283,1672.33472 363.773679,1677.45802 C363.139623,1677.06679 362.400755,1676.83019 361.603774,1676.83019 C360.088679,1676.83019 358.774906,1677.65415 358.049528,1678.86934 C357.325189,1678.25396 356.400566,1677.86792 355.377358,1677.86792 C355.07434,1677.86792 354.78066,1677.90425 354.496321,1677.96651 C354.654057,1676.8634 354.929057,1675.78 355.344151,1674.74642 C355.898302,1675.40434 356.716038,1675.79245 357.60434,1675.79245 C359.237736,1675.79245 360.566038,1674.46415 360.566038,1672.83075 L360.566038,1672.52877 C360.566038,1670.89434 359.237736,1669.56604 357.504717,1669.56604 C356.726415,1669.56604 355.983396,1669.8784 355.436509,1670.40868 C354.716321,1668.69953 354.339623,1666.84406 354.339623,1664.99066 L354.339623,1663.33962 L352.264151,1663.33962 L352.264151,1664.99066 C352.264151,1667.46462 352.848396,1669.9417 353.95566,1672.15623 L354.112358,1672.47066 C353.177358,1674.24519 352.588962,1676.17849 352.366887,1678.16783 C351.616604,1675.71877 351.226415,1673.18462 351.226415,1670.60377 L351.226415,1669.56604 L345,1669.56604 L345,1670.60377 C345,1674.13 346.344906,1677.44453 348.778396,1679.98075 C346.666604,1680.17274 345,1681.93274 345,1684.09434 C345,1686.38358 346.861698,1688.24528 349.150943,1688.24528 C349.20283,1688.24528 349.251604,1688.23179 349.303491,1688.22972 C349.213208,1688.56802 349.150943,1688.9167 349.150943,1689.28302 C349.150943,1690.52934 349.713396,1691.63453 350.585094,1692.39623 L345,1692.39623 L345,1693.43396 C345,1699.01906 349.034717,1703.67123 354.339623,1704.65085 L354.339623,1709 L400,1709 L400,1704.65085 C405.304906,1703.67123 409.339623,1699.01906 409.339623,1693.43396 L409.339623,1692.39623 L403.521038,1692.39623 Z M366.850566,1656.07547 L367.830189,1656.07547 C372.629717,1656.07547 376.593868,1659.71377 377.111698,1664.37736 L376.132075,1664.37736 C371.332547,1664.37736 367.368396,1660.73906 366.850566,1656.07547 Z M356.744057,1672.07217 C356.903868,1671.80651 357.195472,1671.64151 357.60434,1671.64151 C358.092075,1671.64151 358.490566,1672.04 358.490566,1672.52774 L358.490566,1672.82972 C358.490566,1673.31849 358.092075,1673.71698 357.60434,1673.71698 C357.267075,1673.71698 356.963019,1673.52915 356.811509,1673.22613 L356.465943,1672.53604 L356.744057,1672.07217 Z M394.811321,1692.39623 C388.534057,1692.39623 384.835566,1689.30689 383.615189,1688.08236 L384.578208,1686.24453 C386.813491,1688.26708 390.217264,1690.32075 394.811321,1690.32075 C399.405377,1690.32075 402.809151,1688.26708 405.045472,1686.24453 L406.006415,1688.07821 C404.778774,1689.29547 401.042925,1692.39623 394.811321,1692.39623 Z M394.211509,1667.85377 C394.447075,1667.40547 395.176604,1667.40547 395.411132,1667.85377 L404.041981,1684.32991 C402.109717,1686.19991 399.044245,1688.24528 394.811321,1688.24528 C390.578396,1688.24528 387.512925,1686.19991 385.58066,1684.32887 L394.211509,1667.85377 Z M376.232736,1670.64321 C376.169434,1671.39349 376.132075,1672.14896 376.132075,1672.90755 L376.132075,1674.4517 C375.396321,1674.01481 374.987453,1673.2583 374.982264,1673.24792 L373.128868,1674.18189 C373.181792,1674.28981 374.484151,1676.83019 377.169811,1676.83019 C379.855472,1676.83019 381.15783,1674.28981 381.211792,1674.18085 L379.358396,1673.24689 C379.35217,1673.25726 378.94434,1674.01481 378.208585,1674.45066 L378.208585,1672.90755 C378.208585,1672.16038 378.24283,1671.41632 378.310283,1670.67642 C382.065849,1671.01368 385.410472,1672.99991 387.516038,1676.165 L381.126698,1688.36358 L381.549057,1688.89387 C381.654906,1689.02462 383.171038,1690.86453 386.102642,1692.39623 L374.517358,1692.39623 C374.87434,1691.78292 375.09434,1691.08038 375.09434,1690.32075 C375.09434,1688.03151 373.232642,1686.16981 370.943396,1686.16981 C370.577075,1686.16981 370.228396,1686.23208 369.890094,1686.32236 C369.89217,1686.27047 369.90566,1686.2217 369.90566,1686.16981 C369.90566,1683.88057 368.043962,1682.01887 365.754717,1682.01887 C365.70283,1682.01887 365.654057,1682.03236 365.60217,1682.03443 C365.692453,1681.69613 365.754717,1681.34745 365.754717,1680.98113 C365.754717,1680.33981 365.596981,1679.74 365.336509,1679.1983 C366.896226,1674.41745 371.245377,1671.02406 376.232736,1670.64321 Z M361.603774,1687.20755 C361.603774,1688.35217 360.672925,1689.28302 359.528302,1689.28302 C358.383679,1689.28302 357.45283,1688.35217 357.45283,1687.20755 C357.45283,1686.06292 358.383679,1685.13208 359.528302,1685.13208 C360.672925,1685.13208 361.603774,1686.06292 361.603774,1687.20755 Z M365.754717,1688.24528 C364.610094,1688.24528 363.679245,1687.31443 363.679245,1686.16981 C363.679245,1685.02519 364.610094,1684.09434 365.754717,1684.09434 C366.89934,1684.09434 367.830189,1685.02519 367.830189,1686.16981 C367.830189,1687.31443 366.89934,1688.24528 365.754717,1688.24528 Z M355.377358,1689.28302 C355.377358,1690.42764 354.446509,1691.35849 353.301887,1691.35849 C352.157264,1691.35849 351.226415,1690.42764 351.226415,1689.28302 C351.226415,1688.1384 352.157264,1687.20755 353.301887,1687.20755 C354.446509,1687.20755 355.377358,1688.1384 355.377358,1689.28302 Z M358.490566,1691.35849 C359.635189,1691.35849 360.566038,1692.28934 360.566038,1693.43396 C360.566038,1694.57858 359.635189,1695.50943 358.490566,1695.50943 C357.345943,1695.50943 356.415094,1694.57858 356.415094,1693.43396 C356.415094,1692.28934 357.345943,1691.35849 358.490566,1691.35849 Z M364.716981,1690.32075 C365.861604,1690.32075 366.792453,1691.2516 366.792453,1692.39623 C366.792453,1693.54085 365.861604,1694.4717 364.716981,1694.4717 C363.572358,1694.4717 362.641509,1693.54085 362.641509,1692.39623 C362.641509,1691.2516 363.572358,1690.32075 364.716981,1690.32075 Z M368.867925,1690.32075 C368.867925,1689.17613 369.798774,1688.24528 370.943396,1688.24528 C372.088019,1688.24528 373.018868,1689.17613 373.018868,1690.32075 C373.018868,1691.46538 372.088019,1692.39623 370.943396,1692.39623 C369.798774,1692.39623 368.867925,1691.46538 368.867925,1690.32075 Z M361.603774,1678.90566 C362.748396,1678.90566 363.679245,1679.83651 363.679245,1680.98113 C363.679245,1682.12575 362.748396,1683.0566 361.603774,1683.0566 C360.459151,1683.0566 359.528302,1682.12575 359.528302,1680.98113 C359.528302,1679.83651 360.459151,1678.90566 361.603774,1678.90566 Z M357.45283,1682.01887 C357.45283,1683.16349 356.521981,1684.09434 355.377358,1684.09434 C354.232736,1684.09434 353.301887,1683.16349 353.301887,1682.01887 C353.301887,1680.87425 354.232736,1679.9434 355.377358,1679.9434 C356.521981,1679.9434 357.45283,1680.87425 357.45283,1682.01887 Z M349.17066,1671.64151 C349.256792,1674.0117 349.641792,1676.34142 350.317358,1678.60264 C348.468113,1676.69736 347.354623,1674.26075 347.121132,1671.64151 L349.17066,1671.64151 Z M347.075472,1684.09434 C347.075472,1682.94972 348.006321,1682.01887 349.150943,1682.01887 C350.295566,1682.01887 351.226415,1682.94972 351.226415,1684.09434 C351.226415,1685.23896 350.295566,1686.16981 349.150943,1686.16981 C348.006321,1686.16981 347.075472,1685.23896 347.075472,1684.09434 Z M397.924528,1702.77358 L393.773585,1702.77358 L393.773585,1704.84906 L397.924528,1704.84906 L397.924528,1706.92453 L356.415094,1706.92453 L356.415094,1704.84906 L391.698113,1704.84906 L391.698113,1702.77358 L356.415094,1702.77358 C351.615566,1702.77358 347.651415,1699.13528 347.133585,1694.4717 L354.486981,1694.4717 C354.950849,1696.25764 356.561415,1697.58491 358.490566,1697.58491 C360.00566,1697.58491 361.319434,1696.76094 362.044811,1695.54575 C362.769151,1696.16113 363.693774,1696.54717 364.716981,1696.54717 C366.246604,1696.54717 367.570755,1695.7066 368.290943,1694.4717 L407.207075,1694.4717 C406.688208,1699.13528 402.724057,1702.77358 397.924528,1702.77358 Z M393.773585,1674.75472 L395.849057,1674.75472 L395.849057,1676.83019 L393.773585,1676.83019 L393.773585,1674.75472 Z M398.962264,1682.01887 L401.037736,1682.01887 L401.037736,1684.09434 L398.962264,1684.09434 L398.962264,1682.01887 Z M388.584906,1682.01887 L390.660377,1682.01887 L390.660377,1684.09434 L388.584906,1684.09434 L388.584906,1682.01887 Z" id="Shape"></path>
        </g>
    </g>
</svg>