<?xml version="1.0" encoding="UTF-8"?>
<svg width="71px" height="60px" viewBox="0 0 71 60" version="1.1" xmlns="http://www.w3.org/2000/svg" xmlns:xlink="http://www.w3.org/1999/xlink">
    <!-- Generator: Sketch 51.2 (57519) - http://www.bohemiancoding.com/sketch -->
    <title>Shape</title>
    <desc>Created with Sketch.</desc>
    <defs></defs>
    <g id="Page-1" stroke="none" stroke-width="1" fill="none" fill-rule="evenodd">
        <g id="Single-Experience-Page" transform="translate(-345.000000, -1240.000000)" fill="#FF705B" fill-rule="nonzero">
            <path d="M408.841132,1281.88679 C412.039245,1280.21585 413.693208,1278.20868 413.808679,1278.06604 L414.269434,1277.48755 L402,1254.06264 C401.480377,1253.06981 400.460377,1252.45283 399.339623,1252.45283 C398.218868,1252.45283 397.198868,1253.06981 396.679245,1254.06264 L392.565283,1261.91698 C389.891321,1258.49019 385.978868,1256.34604 381.640755,1255.93057 C382.478491,1251.17925 384.571698,1246.70415 387.746038,1243 L386.027547,1241.5283 C384.242264,1243.61019 382.784151,1245.92302 381.655472,1248.38075 C379.966415,1243.50943 375.345283,1240 369.90566,1240 L366.509434,1240 L366.509434,1241.13208 C366.509434,1247.99811 372.096226,1253.58491 378.962264,1253.58491 L379.844151,1253.58491 C379.656226,1254.3434 379.493208,1255.10642 379.366415,1255.87962 C373.253208,1256.16491 367.824906,1260.00151 365.480377,1265.59057 C364.788679,1265.16377 363.982642,1264.90566 363.113208,1264.90566 C361.460377,1264.90566 360.02717,1265.80453 359.235849,1267.13019 C358.44566,1266.45887 357.436981,1266.03774 356.320755,1266.03774 C355.990189,1266.03774 355.669811,1266.07736 355.359623,1266.14528 C355.531698,1264.94189 355.831698,1263.76 356.284528,1262.63245 C356.889057,1263.35019 357.781132,1263.77358 358.750189,1263.77358 C360.532075,1263.77358 361.981132,1262.32453 361.981132,1260.54264 L361.981132,1260.21321 C361.981132,1258.43019 360.532075,1256.98113 358.641509,1256.98113 C357.792453,1256.98113 356.981887,1257.32189 356.385283,1257.90038 C355.599623,1256.03585 355.188679,1254.0117 355.188679,1251.98981 L355.188679,1250.18868 L352.924528,1250.18868 L352.924528,1251.98981 C352.924528,1254.68868 353.561887,1257.39094 354.769811,1259.80679 L354.940755,1260.14981 C353.920755,1262.08566 353.278868,1264.19472 353.036604,1266.36491 C352.218113,1263.69321 351.792453,1260.92868 351.792453,1258.11321 L351.792453,1256.98113 L345,1256.98113 L345,1258.11321 C345,1261.96 346.46717,1265.57585 349.121887,1268.34264 C346.818113,1268.55208 345,1270.47208 345,1272.83019 C345,1275.32755 347.030943,1277.35849 349.528302,1277.35849 C349.584906,1277.35849 349.638113,1277.34377 349.694717,1277.34151 C349.596226,1277.71057 349.528302,1278.09094 349.528302,1278.49057 C349.528302,1279.85019 350.141887,1281.05585 351.09283,1281.88679 L345,1281.88679 L345,1283.01887 C345,1289.1117 349.401509,1294.18679 355.188679,1295.25547 L355.188679,1300 L405,1300 L405,1295.25547 C410.78717,1294.18679 415.188679,1289.1117 415.188679,1283.01887 L415.188679,1281.88679 L408.841132,1281.88679 Z M368.836981,1242.26415 L369.90566,1242.26415 C375.141509,1242.26415 379.466038,1246.23321 380.030943,1251.32075 L378.962264,1251.32075 C373.726415,1251.32075 369.401887,1247.3517 368.836981,1242.26415 Z M357.811698,1259.71509 C357.986038,1259.42528 358.304151,1259.24528 358.750189,1259.24528 C359.282264,1259.24528 359.716981,1259.68 359.716981,1260.21208 L359.716981,1260.54151 C359.716981,1261.07472 359.282264,1261.50943 358.750189,1261.50943 C358.382264,1261.50943 358.050566,1261.30453 357.885283,1260.97396 L357.508302,1260.22113 L357.811698,1259.71509 Z M399.339623,1281.88679 C392.491698,1281.88679 388.456981,1278.5166 387.12566,1277.18075 L388.176226,1275.17585 C390.614717,1277.38226 394.327925,1279.62264 399.339623,1279.62264 C404.351321,1279.62264 408.064528,1277.38226 410.504151,1275.17585 L411.552453,1277.17623 C410.213208,1278.50415 406.137736,1281.88679 399.339623,1281.88679 Z M398.685283,1255.11321 C398.942264,1254.62415 399.738113,1254.62415 399.993962,1255.11321 L409.409434,1273.08717 C407.301509,1275.12717 403.957358,1277.35849 399.339623,1277.35849 C394.721887,1277.35849 391.377736,1275.12717 389.269811,1273.08604 L398.685283,1255.11321 Z M379.072075,1258.15623 C379.003019,1258.97472 378.962264,1259.79887 378.962264,1260.62642 L378.962264,1262.31094 C378.159623,1261.83434 377.713585,1261.00906 377.707925,1260.99774 L375.686038,1262.0166 C375.743774,1262.13434 377.164528,1264.90566 380.09434,1264.90566 C383.024151,1264.90566 384.444906,1262.13434 384.503774,1262.01547 L382.481887,1260.9966 C382.475094,1261.00792 382.030189,1261.83434 381.227547,1262.30981 L381.227547,1260.62642 C381.227547,1259.81132 381.264906,1258.99962 381.338491,1258.19245 C385.435472,1258.56038 389.084151,1260.72717 391.381132,1264.18 L384.410943,1277.48755 L384.871698,1278.06604 C384.98717,1278.20868 386.641132,1280.21585 389.839245,1281.88679 L377.200755,1281.88679 C377.590189,1281.21774 377.830189,1280.45132 377.830189,1279.62264 C377.830189,1277.12528 375.799245,1275.09434 373.301887,1275.09434 C372.902264,1275.09434 372.521887,1275.16226 372.15283,1275.26075 C372.155094,1275.20415 372.169811,1275.15094 372.169811,1275.09434 C372.169811,1272.59698 370.138868,1270.56604 367.641509,1270.56604 C367.584906,1270.56604 367.531698,1270.58075 367.475094,1270.58302 C367.573585,1270.21396 367.641509,1269.83358 367.641509,1269.43396 C367.641509,1268.73434 367.469434,1268.08 367.185283,1267.48906 C368.886792,1262.27358 373.631321,1258.5717 379.072075,1258.15623 Z M363.113208,1276.22642 C363.113208,1277.47509 362.097736,1278.49057 360.849057,1278.49057 C359.600377,1278.49057 358.584906,1277.47509 358.584906,1276.22642 C358.584906,1274.97774 359.600377,1273.96226 360.849057,1273.96226 C362.097736,1273.96226 363.113208,1274.97774 363.113208,1276.22642 Z M367.641509,1277.35849 C366.39283,1277.35849 365.377358,1276.34302 365.377358,1275.09434 C365.377358,1273.84566 366.39283,1272.83019 367.641509,1272.83019 C368.890189,1272.83019 369.90566,1273.84566 369.90566,1275.09434 C369.90566,1276.34302 368.890189,1277.35849 367.641509,1277.35849 Z M356.320755,1278.49057 C356.320755,1279.73925 355.305283,1280.75472 354.056604,1280.75472 C352.807925,1280.75472 351.792453,1279.73925 351.792453,1278.49057 C351.792453,1277.24189 352.807925,1276.22642 354.056604,1276.22642 C355.305283,1276.22642 356.320755,1277.24189 356.320755,1278.49057 Z M359.716981,1280.75472 C360.96566,1280.75472 361.981132,1281.77019 361.981132,1283.01887 C361.981132,1284.26755 360.96566,1285.28302 359.716981,1285.28302 C358.468302,1285.28302 357.45283,1284.26755 357.45283,1283.01887 C357.45283,1281.77019 358.468302,1280.75472 359.716981,1280.75472 Z M366.509434,1279.62264 C367.758113,1279.62264 368.773585,1280.63811 368.773585,1281.88679 C368.773585,1283.13547 367.758113,1284.15094 366.509434,1284.15094 C365.260755,1284.15094 364.245283,1283.13547 364.245283,1281.88679 C364.245283,1280.63811 365.260755,1279.62264 366.509434,1279.62264 Z M371.037736,1279.62264 C371.037736,1278.37396 372.053208,1277.35849 373.301887,1277.35849 C374.550566,1277.35849 375.566038,1278.37396 375.566038,1279.62264 C375.566038,1280.87132 374.550566,1281.88679 373.301887,1281.88679 C372.053208,1281.88679 371.037736,1280.87132 371.037736,1279.62264 Z M363.113208,1267.16981 C364.361887,1267.16981 365.377358,1268.18528 365.377358,1269.43396 C365.377358,1270.68264 364.361887,1271.69811 363.113208,1271.69811 C361.864528,1271.69811 360.849057,1270.68264 360.849057,1269.43396 C360.849057,1268.18528 361.864528,1267.16981 363.113208,1267.16981 Z M358.584906,1270.56604 C358.584906,1271.81472 357.569434,1272.83019 356.320755,1272.83019 C355.072075,1272.83019 354.056604,1271.81472 354.056604,1270.56604 C354.056604,1269.31736 355.072075,1268.30189 356.320755,1268.30189 C357.569434,1268.30189 358.584906,1269.31736 358.584906,1270.56604 Z M349.549811,1259.24528 C349.643774,1261.83094 350.063774,1264.37245 350.800755,1266.83925 C348.783396,1264.76075 347.568679,1262.10264 347.313962,1259.24528 L349.549811,1259.24528 Z M347.264151,1272.83019 C347.264151,1271.58151 348.279623,1270.56604 349.528302,1270.56604 C350.776981,1270.56604 351.792453,1271.58151 351.792453,1272.83019 C351.792453,1274.07887 350.776981,1275.09434 349.528302,1275.09434 C348.279623,1275.09434 347.264151,1274.07887 347.264151,1272.83019 Z M402.735849,1293.20755 L398.207547,1293.20755 L398.207547,1295.4717 L402.735849,1295.4717 L402.735849,1297.73585 L357.45283,1297.73585 L357.45283,1295.4717 L395.943396,1295.4717 L395.943396,1293.20755 L357.45283,1293.20755 C352.216981,1293.20755 347.892453,1289.23849 347.327547,1284.15094 L355.349434,1284.15094 C355.855472,1286.09925 357.612453,1287.54717 359.716981,1287.54717 C361.369811,1287.54717 362.803019,1286.6483 363.59434,1285.32264 C364.384528,1285.99396 365.393208,1286.41509 366.509434,1286.41509 C368.178113,1286.41509 369.622642,1285.49811 370.408302,1284.15094 L412.862264,1284.15094 C412.296226,1289.23849 407.971698,1293.20755 402.735849,1293.20755 Z M398.207547,1262.64151 L400.471698,1262.64151 L400.471698,1264.90566 L398.207547,1264.90566 L398.207547,1262.64151 Z M403.867925,1270.56604 L406.132075,1270.56604 L406.132075,1272.83019 L403.867925,1272.83019 L403.867925,1270.56604 Z M392.54717,1270.56604 L394.811321,1270.56604 L394.811321,1272.83019 L392.54717,1272.83019 L392.54717,1270.56604 Z" id="Shape"></path>
        </g>
    </g>
</svg>