<?xml version="1.0" encoding="UTF-8"?>
<svg width="63px" height="60px" viewBox="0 0 63 60" version="1.1" xmlns="http://www.w3.org/2000/svg" xmlns:xlink="http://www.w3.org/1999/xlink">
    <!-- Generator: Sketch 51.2 (57519) - http://www.bohemiancoding.com/sketch -->
    <title>Shape</title>
    <desc>Created with Sketch.</desc>
    <defs></defs>
    <g id="Page-1" stroke="none" stroke-width="1" fill="none" fill-rule="evenodd">
        <g id="About-Page" transform="translate(-989.000000, -1651.000000)" fill="#6E6F84" fill-rule="nonzero">
            <path d="M1029.81423,1664.33917 L1000.49723,1664.33917 L992.702537,1677.33071 L1015.15573,1701.03091 L1037.60892,1677.33071 L1029.81423,1664.33917 Z M1020.56372,1678.33742 L1015.15573,1695.46078 L1009.74774,1678.33742 L1020.56372,1678.33742 Z M1010.21668,1676.00437 L1015.15573,1667.7734 L1020.09478,1676.00437 L1010.21668,1676.00437 Z M1017.21581,1666.67221 L1027.0939,1666.67221 L1022.15486,1674.90318 L1017.21581,1666.67221 Z M1008.15661,1674.90318 L1003.21756,1666.67221 L1013.09565,1666.67221 L1008.15661,1674.90318 Z M1006.09653,1676.00437 L996.218431,1676.00437 L1001.15748,1667.7734 L1006.09653,1676.00437 Z M1007.30155,1678.33742 L1012.51706,1694.85418 L996.870516,1678.33742 L1007.30155,1678.33742 Z M1023.00992,1678.33742 L1033.44094,1678.33742 L1017.7944,1694.85418 L1023.00992,1678.33742 Z M1024.21493,1676.00437 L1029.15398,1667.7734 L1034.09303,1676.00437 L1024.21493,1676.00437 Z M1033.82006,1655.007 L1036.15311,1655.007 L1036.15311,1657.34004 L1033.82006,1657.34004 L1033.82006,1655.007 Z M1031.48702,1657.34004 L1033.82006,1657.34004 L1033.82006,1659.67308 L1031.48702,1659.67308 L1031.48702,1657.34004 Z M1033.82006,1659.67308 L1036.15311,1659.67308 L1036.15311,1662.00612 L1033.82006,1662.00612 L1033.82006,1659.67308 Z M1036.15311,1657.34004 L1038.48615,1657.34004 L1038.48615,1659.67308 L1036.15311,1659.67308 L1036.15311,1657.34004 Z M995.324876,1692.33567 L997.657918,1692.33567 L997.657918,1694.66871 L995.324876,1694.66871 L995.324876,1692.33567 Z M992.991834,1694.66871 L995.324876,1694.66871 L995.324876,1697.00175 L992.991834,1697.00175 L992.991834,1694.66871 Z M995.324876,1697.00175 L997.657918,1697.00175 L997.657918,1699.33479 L995.324876,1699.33479 L995.324876,1697.00175 Z M997.657918,1694.66871 L999.990959,1694.66871 L999.990959,1697.00175 L997.657918,1697.00175 L997.657918,1694.66871 Z M991.358705,1655.94022 C990.714786,1655.08166 989.90522,1654.37941 989,1653.84048 C989.90522,1653.30155 990.714786,1652.5993 991.358705,1651.74074 C991.53485,1651.50627 991.677165,1651.2508 991.825314,1651 C991.974628,1651.25197 992.115777,1651.50744 992.291922,1651.74074 C992.935841,1652.5993 993.745407,1653.30155 994.650627,1653.84048 C993.745407,1654.37941 992.935841,1655.08166 992.291922,1655.94022 C992.115777,1656.17469 991.973462,1656.43015 991.825314,1656.68096 C991.677165,1656.43015 991.53485,1656.17469 991.358705,1655.94022 Z M1040.81919,1693.50102 C1040.06678,1692.50015 1039.65267,1691.25663 1039.65267,1690.00262 L1039.65267,1687.66958 L1037.31963,1687.66958 L1037.31963,1690.00262 C1037.31963,1691.25663 1036.90551,1692.50015 1036.15311,1693.50219 C1035.05774,1694.96267 1033.31379,1695.83523 1031.48702,1695.83523 L1030.3205,1695.83523 L1030.3205,1698.16827 L1031.48702,1698.16827 C1033.31263,1698.16827 1035.05774,1699.04083 1036.15311,1700.50248 C1036.90551,1701.50335 1037.31963,1702.74686 1037.31963,1704.00087 L1037.31963,1706.33392 L1039.65267,1706.33392 L1039.65267,1704.00087 C1039.65267,1702.74686 1040.06678,1701.50335 1040.81919,1700.50131 C1041.91455,1699.04083 1043.6585,1698.16827 1045.48527,1698.16827 L1046.65179,1698.16827 L1046.65179,1695.83523 L1045.48527,1695.83523 C1043.65967,1695.83523 1041.91455,1694.96267 1040.81919,1693.50102 Z M1038.95276,1699.10149 C1038.77661,1699.33596 1038.6343,1699.59143 1038.48615,1699.84339 C1038.33683,1699.59259 1038.19568,1699.33712 1038.01954,1699.10265 C1037.37562,1698.24409 1036.56489,1697.54068 1035.65967,1697.00175 C1036.56489,1696.46282 1037.37445,1695.76057 1038.01837,1694.90201 C1038.19452,1694.66754 1038.33683,1694.41207 1038.48498,1694.1601 C1038.6343,1694.41091 1038.77544,1694.66638 1038.95159,1694.90085 C1039.59551,1695.75941 1040.40624,1696.46282 1041.31146,1697.00175 C1040.40741,1697.54068 1039.59668,1698.24293 1038.95276,1699.10149 Z M1037.31963,1681.83698 L1039.65267,1681.83698 L1039.65267,1684.17002 L1037.31963,1684.17002 L1037.31963,1681.83698 Z M1037.31963,1708.66696 L1039.65267,1708.66696 L1039.65267,1711 L1037.31963,1711 L1037.31963,1708.66696 Z M1048.98484,1695.83523 L1051.31788,1695.83523 L1051.31788,1698.16827 L1048.98484,1698.16827 L1048.98484,1695.83523 Z M1025.65442,1695.83523 L1027.98746,1695.83523 L1027.98746,1698.16827 L1025.65442,1698.16827 L1025.65442,1695.83523 Z" id="Shape"></path>
        </g>
    </g>
</svg>