<?xml version="1.0" encoding="UTF-8"?>
<svg width="65px" height="65px" viewBox="0 0 65 65" version="1.1" xmlns="http://www.w3.org/2000/svg" xmlns:xlink="http://www.w3.org/1999/xlink">
    <!-- Generator: Sketch 51.2 (57519) - http://www.bohemiancoding.com/sketch -->
    <title>Shape</title>
    <desc>Created with Sketch.</desc>
    <defs></defs>
    <g id="Page-1" stroke="none" stroke-width="1" fill="none" fill-rule="evenodd">
        <g id="Single-Experience-Page" transform="translate(-668.000000, -1430.000000)" fill="#FF705B" fill-rule="nonzero">
            <path d="M708.887097,1453.06452 L708.887097,1448.32056 C712.545968,1447.02161 715.177419,1443.53468 715.177419,1439.43548 C715.177419,1434.23234 710.944032,1430 705.741935,1430 C700.539839,1430 696.306452,1434.23234 696.306452,1439.43548 C696.306452,1443.53468 698.937903,1447.02161 702.596774,1448.32056 L702.596774,1453.06452 L682.677419,1453.06452 L682.677419,1440.48387 L675.33871,1440.48387 C671.291935,1440.48387 668,1443.77685 668,1447.82258 L668,1487.66129 C668,1491.70702 671.291935,1495 675.33871,1495 L733,1495 L733,1453.06452 L708.887097,1453.06452 Z M730.903226,1471.93548 L725.90871,1471.93548 C724.862419,1471.93548 723.922016,1471.35363 723.454435,1470.41847 C722.628306,1468.76831 720.96871,1467.74194 719.123548,1467.74194 L718.970484,1467.74194 C717.456613,1467.74194 716.225806,1466.51008 716.225806,1464.99726 L716.225806,1464.07153 C716.225806,1462.77887 715.722581,1461.56274 714.807339,1460.6475 L713.884758,1459.72387 C713.365806,1459.20492 713.080645,1458.51613 713.080645,1457.78331 L713.080645,1455.16129 L730.903226,1455.16129 L730.903226,1471.93548 Z M698.403226,1439.43548 C698.403226,1435.38976 701.695161,1432.09677 705.741935,1432.09677 C709.78871,1432.09677 713.080645,1435.38976 713.080645,1439.43548 C713.080645,1443.48121 709.78871,1446.77419 705.741935,1446.77419 C701.695161,1446.77419 698.403226,1443.48121 698.403226,1439.43548 Z M705.741935,1448.87097 C706.09629,1448.87097 706.445403,1448.8479 706.790323,1448.80911 L706.790323,1475.695 L705.741935,1476.74339 L704.693548,1475.695 L704.693548,1448.80911 C705.038468,1448.8479 705.387581,1448.87097 705.741935,1448.87097 Z M705.741935,1479.70823 L708.887097,1476.56306 L708.887097,1455.16129 L710.983871,1455.16129 L710.983871,1457.78331 C710.983871,1459.07597 711.487097,1460.2921 712.402339,1461.20734 L713.324919,1462.13097 C713.843871,1462.64992 714.129032,1463.33871 714.129032,1464.07153 L714.129032,1464.99726 C714.129032,1467.6675 716.30129,1469.83871 718.970484,1469.83871 L719.123548,1469.83871 C720.169839,1469.83871 721.110242,1470.42056 721.577823,1471.35573 C722.403952,1473.00589 724.0625,1474.03226 725.907661,1474.03226 L730.903226,1474.03226 L730.903226,1481.37097 L728.599919,1481.37097 C727.7675,1481.37097 726.994839,1480.95685 726.533548,1480.26492 C725.683306,1478.98903 724.258548,1478.22581 722.722661,1478.22581 L720.712903,1478.22581 C718.83,1478.22581 717.159919,1479.35597 716.459597,1481.10468 L716.139839,1481.90669 C715.761371,1482.85548 714.855565,1483.46774 713.834435,1483.46774 L710.349597,1483.46774 C709.126129,1483.46774 707.975,1483.94371 707.110081,1484.80863 L706.034435,1485.88532 C705.566855,1486.355 704.943065,1486.6129 704.278387,1486.6129 L704.030968,1486.6129 C701.506452,1486.6129 699.451613,1488.66774 699.451613,1491.19226 L699.451613,1492.90323 L695.258065,1492.90323 L695.258065,1491.77516 C695.258065,1488.84177 694.116371,1486.08452 692.042661,1484.01185 C691.412581,1483.38073 691.064516,1482.54202 691.064516,1481.65089 C691.064516,1480.11605 692.104516,1478.7846 693.593226,1478.41242 L695.818952,1477.85573 C697.957661,1477.3221 699.451613,1475.40774 699.451613,1473.20298 C699.451613,1471.3746 698.435726,1469.73073 696.800242,1468.91298 L694.653145,1467.84048 C693.732661,1467.38024 693.16129,1466.45452 693.16129,1465.42605 L693.16129,1464.50556 C693.16129,1462.89839 692.362419,1461.40653 691.025726,1460.51435 L688.073468,1458.54653 C687.320726,1458.0454 686.870968,1457.20565 686.870968,1456.30089 L686.870968,1455.16129 L702.596774,1455.16129 L702.596774,1476.56306 L705.741935,1479.70823 Z M670.096774,1447.82258 C670.096774,1444.93218 672.448306,1442.58065 675.33871,1442.58065 L680.580645,1442.58065 L680.580645,1480.32258 L675.33871,1480.32258 C673.287016,1480.32258 671.429274,1481.16863 670.096774,1482.52944 L670.096774,1447.82258 Z M670.096774,1487.66129 C670.096774,1484.77089 672.448306,1482.41935 675.33871,1482.41935 L682.677419,1482.41935 L682.677419,1455.16129 L684.774194,1455.16129 L684.774194,1456.30089 C684.774194,1457.90806 685.573065,1459.39992 686.909758,1460.2921 L689.862016,1462.25992 C690.614758,1462.76105 691.064516,1463.60081 691.064516,1464.50556 L691.064516,1465.42605 C691.064516,1467.25444 692.080403,1468.89831 693.715887,1469.71605 L695.862984,1470.78855 C696.783468,1471.24879 697.354839,1472.17452 697.354839,1473.20298 C697.354839,1474.44427 696.514032,1475.52097 695.310484,1475.82185 L693.084758,1476.3775 C690.660887,1476.98242 688.967742,1479.15153 688.967742,1481.65089 C688.967742,1483.1029 689.532823,1484.4679 690.560242,1485.49427 C692.237661,1487.17169 693.16129,1489.40161 693.16129,1491.77516 L693.16129,1492.90323 L675.33871,1492.90323 C672.448306,1492.90323 670.096774,1490.55169 670.096774,1487.66129 Z M701.548387,1492.90323 L701.548387,1491.19226 C701.548387,1489.82306 702.661774,1488.70968 704.032016,1488.70968 L704.279435,1488.70968 C705.502903,1488.70968 706.654032,1488.23371 707.518952,1487.36879 L708.594597,1486.2921 C709.062177,1485.82242 709.685968,1485.56452 710.350645,1485.56452 L713.835484,1485.56452 C715.718387,1485.56452 717.388468,1484.43435 718.08879,1482.68565 L718.408548,1481.88363 C718.788065,1480.93484 719.693871,1480.32258 720.715,1480.32258 L722.724758,1480.32258 C723.557177,1480.32258 724.329839,1480.73669 724.791129,1481.42863 C725.639274,1482.70452 727.064032,1483.46774 728.599919,1483.46774 L730.903226,1483.46774 L730.903226,1492.90323 L701.548387,1492.90323 Z M705.741935,1434.19355 L705.741935,1436.29032 C704.007903,1436.29032 702.596774,1437.70145 702.596774,1439.43548 L700.5,1439.43548 C700.5,1436.54508 702.851532,1434.19355 705.741935,1434.19355 Z M726.709677,1457.25806 L728.806452,1457.25806 L728.806452,1459.35484 L726.709677,1459.35484 L726.709677,1457.25806 Z M678.483871,1484.51613 L680.580645,1484.51613 L680.580645,1486.6129 L678.483871,1486.6129 L678.483871,1484.51613 Z M687.919355,1488.70968 L690.016129,1488.70968 L690.016129,1490.80645 L687.919355,1490.80645 L687.919355,1488.70968 Z M684.774194,1469.83871 L686.870968,1469.83871 L686.870968,1471.93548 L684.774194,1471.93548 L684.774194,1469.83871 Z" id="Shape"></path>
        </g>
    </g>
</svg>