<?xml version="1.0" encoding="UTF-8"?>
<svg width="40px" height="40px" viewBox="0 0 40 40" version="1.1" xmlns="http://www.w3.org/2000/svg" xmlns:xlink="http://www.w3.org/1999/xlink">
    <!-- Generator: Sketch 51.2 (57519) - http://www.bohemiancoding.com/sketch -->
    <title>Shape</title>
    <desc>Created with Sketch.</desc>
    <defs></defs>
    <g id="Page-1" stroke="none" stroke-width="1" fill="none" fill-rule="evenodd">
        <g id="Home-Page" transform="translate(-200.000000, -4162.000000)" fill="#6E6F84" fill-rule="nonzero">
            <g id="footer" transform="translate(0.000000, 3781.000000)">
                <path d="M228.633718,393.405114 L223.677012,404.283937 C223.638424,404.368565 223.585404,404.444094 223.521875,404.508565 C223.519678,404.510918 223.517718,404.513506 223.515365,404.515859 C223.514894,404.516251 223.514424,404.516565 223.51411,404.517035 C223.448463,404.582839 223.370894,404.637427 223.283992,404.677035 L212.40509,409.63382 C212.300777,409.681271 212.189953,409.704408 212.080071,409.704408 C211.876306,409.704408 211.6756,409.624957 211.525247,409.474682 C211.293953,409.24331 211.230424,408.892565 211.366188,408.594839 L216.322973,397.715937 C216.362031,397.63029 216.415835,397.55382 216.480384,397.4888 C216.481796,397.487388 216.482973,397.485741 216.484384,397.484329 C216.485796,397.482996 216.487365,397.48182 216.488698,397.480408 C216.553796,397.41578 216.630267,397.361976 216.715992,397.322918 L227.594816,392.366212 C227.892698,392.230447 228.243208,392.293976 228.474659,392.525349 C228.705953,392.756722 228.769404,393.107388 228.633718,393.405114 Z M230.799757,400.999937 C230.799757,400.749898 230.919051,400.514761 231.120855,400.367074 L234.201639,398.112251 C233.050973,392.413349 228.586502,387.948957 222.887678,386.79829 L220.632855,389.879074 C220.485169,390.080957 220.250031,390.200173 219.999992,390.200173 C219.749875,390.200173 219.514737,390.080957 219.367129,389.879074 L217.112306,386.79829 C211.413404,387.948957 206.949012,392.413349 205.798345,398.112251 L208.879129,400.367074 C209.080933,400.514761 209.200227,400.749898 209.200227,400.999937 C209.200227,401.250055 209.080933,401.485192 208.879129,401.632878 L205.798345,403.887702 C206.949012,409.586525 211.413404,414.050996 217.112306,415.201663 L219.367129,412.1208 C219.514737,411.918996 219.749875,411.79978 219.999992,411.79978 C220.250031,411.79978 220.485169,411.918996 220.632855,412.1208 L222.887678,415.201663 C228.586502,414.050996 233.050973,409.586525 234.201639,403.887702 L231.120855,401.632878 C230.919051,401.485192 230.799757,401.250055 230.799757,400.999937 Z M217.282,399.394431 L213.663098,407.336784 L221.605529,403.718039 L219.445373,401.554588 L217.282,399.394431 Z M235.835843,403.675529 C234.704784,410.416078 229.416,415.704863 222.675451,416.835843 C222.632078,416.843137 222.588706,416.846667 222.545647,416.846667 C222.298196,416.846667 222.061961,416.729412 221.912784,416.525569 L220,413.912078 L218.087137,416.525569 C217.912078,416.764784 217.617255,416.884941 217.324471,416.835843 C210.583922,415.704863 205.295137,410.416078 204.164157,403.675529 C204.115137,403.383059 204.235137,403.088 204.474431,402.912863 L207.087922,401 L204.474431,399.087137 C204.235137,398.912 204.115137,398.616863 204.164157,398.324392 C205.295137,391.583843 210.583922,386.295137 217.324471,385.164078 C217.617255,385.115059 217.912078,385.235137 218.087137,385.474431 L220,388.087922 L221.912784,385.474431 C222.087843,385.235137 222.382902,385.115059 222.675451,385.164078 C229.416,386.295137 234.704784,391.583843 235.835843,398.324392 C235.884863,398.616863 235.764863,398.912 235.525569,399.087137 L232.912079,401 L235.525569,402.912863 C235.764863,403.088 235.884863,403.383059 235.835843,403.675529 Z M234.142118,386.857882 C230.364627,383.080392 225.342196,381 220,381 C214.657726,381 209.635294,383.080392 205.857804,386.857882 C202.080314,390.635373 200,395.657804 200,401 C200,406.342196 202.080314,411.364627 205.857804,415.142118 C209.635294,418.919608 214.657726,421 220,421 C225.342196,421 230.364627,418.919608 234.142118,415.142118 C237.919608,411.364627 240,406.342196 240,401 C240,395.657804 237.919608,390.635373 234.142118,386.857882 Z" id="Shape"></path>
            </g>
        </g>
    </g>
</svg>