<?xml version="1.0" encoding="UTF-8"?>
<svg width="30px" height="30px" viewBox="0 0 30 30" version="1.1" xmlns="http://www.w3.org/2000/svg" xmlns:xlink="http://www.w3.org/1999/xlink">
    <!-- Generator: Sketch 51.2 (57519) - http://www.bohemiancoding.com/sketch -->
    <title>Shape</title>
    <desc>Created with Sketch.</desc>
    <defs></defs>
    <g id="Page-1" stroke="none" stroke-width="1" fill="none" fill-rule="evenodd">
        <g id="Home-Page" transform="translate(-41.000000, -20.000000)" fill="#FF705B" fill-rule="nonzero">
            <g id="menu">
                <path d="M62.4752883,29.3038353 L58.7577589,37.4629529 C58.7288177,37.5264235 58.689053,37.5830706 58.6414059,37.6314235 C58.6397589,37.6331882 58.6382883,37.6351294 58.6365236,37.6368941 C58.6361706,37.6371882 58.6358177,37.6374235 58.6355824,37.6377765 C58.5863471,37.6871294 58.5281706,37.7280706 58.4629942,37.7577765 L50.3038177,41.4753647 C50.2255824,41.5109529 50.1424647,41.5283058 50.060053,41.5283058 C49.9072294,41.5283058 49.7567,41.4687176 49.6439353,41.3560117 C49.4704647,41.1824823 49.4228177,40.9194235 49.5246412,40.6961294 L53.2422294,32.5369529 C53.2715235,32.4727176 53.3118765,32.4153647 53.3602883,32.3666 C53.3613471,32.3655412 53.3622294,32.3643059 53.3632883,32.3632471 C53.3643471,32.362247 53.3655236,32.3613647 53.3665236,32.3603059 C53.4153471,32.3118353 53.4727,32.2714823 53.5369941,32.2421882 L61.6961118,28.5246588 C61.9195236,28.4228353 62.1824059,28.4704823 62.3559942,28.6440118 C62.5294648,28.8175411 62.577053,29.0805412 62.4752883,29.3038353 Z M64.0998177,34.9999529 C64.0998177,34.8124235 64.1892883,34.6360706 64.3406412,34.5253059 L66.6512295,32.8341882 C65.7882295,28.5600118 62.4398765,25.2117176 58.1657589,24.3487176 L56.4746412,26.6593059 C56.3638765,26.8107176 56.1875235,26.9001294 55.9999941,26.9001294 C55.8124059,26.9001294 55.636053,26.8107176 55.5253471,26.6593059 L53.8342294,24.3487176 C49.560053,25.2117176 46.2117588,28.5600118 45.3487588,32.8341882 L47.6593471,34.5253059 C47.8107,34.6360706 47.9001706,34.8124235 47.9001706,34.9999529 C47.9001706,35.1875412 47.8107,35.3638941 47.6593471,35.4746588 L45.3487588,37.1657764 C46.2117588,41.4398941 49.560053,44.788247 53.8342294,45.651247 L55.5253471,43.3406 C55.636053,43.189247 55.8124059,43.0998353 55.9999941,43.0998353 C56.1875235,43.0998353 56.3638765,43.189247 56.4746412,43.3406 L58.1657589,45.651247 C62.4398765,44.788247 65.7882295,41.4398941 66.6512295,37.1657764 L64.3406412,35.4746588 C64.1892883,35.3638941 64.0998177,35.1875412 64.0998177,34.9999529 Z M53.9615,33.7958235 L51.2473235,39.7525882 L57.2041471,37.0385294 L55.5840294,35.4159411 L53.9615,33.7958235 Z M67.8768824,37.006647 C67.0285883,42.0620588 63.062,46.028647 58.0065883,46.8768823 C57.9740589,46.8823529 57.9415294,46.885 57.9092353,46.885 C57.7236471,46.885 57.5464706,46.7970588 57.4345883,46.6441764 L56,44.6840588 L54.565353,46.6441764 C54.4340589,46.8235882 54.2129412,46.9137058 53.993353,46.8768823 C48.9379412,46.028647 44.971353,42.0620588 44.1231177,37.006647 C44.086353,36.7872941 44.176353,36.566 44.3558235,36.434647 L46.3159412,35 L44.3558235,33.5653529 C44.176353,33.434 44.086353,33.212647 44.1231177,32.9932941 C44.971353,27.9378823 48.9379412,23.9713529 53.993353,23.1230588 C54.2129412,23.0862941 54.4340589,23.1763529 54.565353,23.3558235 L56,25.3159412 L57.4345883,23.3558235 C57.5658824,23.1763529 57.7871765,23.0862941 58.0065883,23.1230588 C63.062,23.9713529 67.0285883,27.9378823 67.8768824,32.9932941 C67.9136471,33.212647 67.8236471,33.434 67.6441765,33.5653529 L65.6840589,35 L67.6441765,36.434647 C67.8236471,36.566 67.9136471,36.7872941 67.8768824,37.006647 Z M66.6065883,24.3934118 C63.7734706,21.5602941 60.0066471,20 56,20 C51.9932941,20 48.2264706,21.5602941 45.3933529,24.3934118 C42.5602353,27.2265294 41,30.9933529 41,35 C41,39.006647 42.5602353,42.7734706 45.3933529,45.6065882 C48.2264706,48.4397058 51.9932941,50 56,50 C60.0066471,50 63.7734706,48.4397058 66.6065883,45.6065882 C69.4397059,42.7734706 71,39.006647 71,35 C71,30.9933529 69.4397059,27.2265294 66.6065883,24.3934118 Z" id="Shape"></path>
            </g>
        </g>
    </g>
</svg>