<?xml version="1.0" encoding="UTF-8"?>
<svg width="1320px" height="832px" viewBox="0 0 1320 832" version="1.1" xmlns="http://www.w3.org/2000/svg" xmlns:xlink="http://www.w3.org/1999/xlink">
    <!-- Generator: Sketch 51.2 (57519) - http://www.bohemiancoding.com/sketch -->
    <title>Group 6</title>
    <desc>Created with Sketch.</desc>
    <defs>
        <path d="M5,-7.10542736e-15 L95,-9.76996262e-15 C97.7614237,-1.02772279e-14 100,2.23857625 100,5 L100,45 C100,47.7614237 97.7614237,50 95,50 L60.765625,50 L50,60 L40.4335937,50 L5,50 C2.23857625,50 3.38176876e-16,47.7614237 0,45 L0,5 C-3.38176876e-16,2.23857625 2.23857625,-6.59816204e-15 5,-7.10542736e-15 Z" id="path-1"></path>
        <filter x="-30.0%" y="-50.0%" width="160.0%" height="200.0%" filterUnits="objectBoundingBox" id="filter-2">
            <feOffset dx="0" dy="0" in="SourceAlpha" result="shadowOffsetOuter1"></feOffset>
            <feGaussianBlur stdDeviation="10" in="shadowOffsetOuter1" result="shadowBlurOuter1"></feGaussianBlur>
            <feColorMatrix values="0 0 0 0 0   0 0 0 0 0   0 0 0 0 0  0 0 0 0.14 0" type="matrix" in="shadowBlurOuter1"></feColorMatrix>
        </filter>
        <path d="M5.06054687,-2.58992827e-12 L155.208984,-2.59525734e-12 C157.970408,-2.59576461e-12 160.208984,2.23857625 160.208984,5 L160.208984,45 C160.208984,47.7614237 157.970408,50 155.208984,50 L90.9003906,50 L80.1347656,60 L70.5683594,50 L5.06054688,50 C2.29912313,50 0.060546875,47.7614237 0.060546875,45 L0.060546875,5 C0.060546875,2.23857625 2.29912313,-2.61903294e-12 5.06054687,-2.65387712e-12 Z" id="path-3"></path>
        <filter x="-18.7%" y="-50.0%" width="137.5%" height="200.0%" filterUnits="objectBoundingBox" id="filter-4">
            <feOffset dx="0" dy="0" in="SourceAlpha" result="shadowOffsetOuter1"></feOffset>
            <feGaussianBlur stdDeviation="10" in="shadowOffsetOuter1" result="shadowBlurOuter1"></feGaussianBlur>
            <feColorMatrix values="0 0 0 0 0   0 0 0 0 0   0 0 0 0 0  0 0 0 0.14 0" type="matrix" in="shadowBlurOuter1"></feColorMatrix>
        </filter>
        <path d="M5,-1.49924517e-12 L115.044922,-1.50990331e-12 C117.806346,-1.51041058e-12 120.044922,2.23857625 120.044922,5 L120.044922,45 C120.044922,47.7614237 117.806346,50 115.044922,50 L66.7050781,50 L55.9394531,60 L46.3730469,50 L5,50 C2.23857625,50 -4.2375975e-16,47.7614237 -4.4408921e-15,45 L0,5 C-3.38176876e-16,2.23857625 2.23857625,-1.49784973e-12 5,-1.49835699e-12 Z" id="path-5"></path>
        <filter x="-25.0%" y="-50.0%" width="150.0%" height="200.0%" filterUnits="objectBoundingBox" id="filter-6">
            <feOffset dx="0" dy="0" in="SourceAlpha" result="shadowOffsetOuter1"></feOffset>
            <feGaussianBlur stdDeviation="10" in="shadowOffsetOuter1" result="shadowBlurOuter1"></feGaussianBlur>
            <feColorMatrix values="0 0 0 0 0   0 0 0 0 0   0 0 0 0 0  0 0 0 0.14 0" type="matrix" in="shadowBlurOuter1"></feColorMatrix>
        </filter>
        <path d="M5,-3.77298193e-12 L175.044922,-3.77919918e-12 C177.806346,-3.77970644e-12 180.044922,2.23857625 180.044922,5 L180.044922,45 C180.044922,47.7614237 177.806346,50 175.044922,50 L100.788086,50 L90.0224609,60 L80.4560547,50 L5,50 C2.23857625,50 -2.8340502e-14,47.7614237 -4.70734562e-14,45 L-3.41060513e-13,5 C-3.59793467e-13,2.23857625 2.23857625,-3.78571617e-12 5,-3.80584453e-12 Z" id="path-7"></path>
        <filter x="-16.7%" y="-50.0%" width="133.3%" height="200.0%" filterUnits="objectBoundingBox" id="filter-8">
            <feOffset dx="0" dy="0" in="SourceAlpha" result="shadowOffsetOuter1"></feOffset>
            <feGaussianBlur stdDeviation="10" in="shadowOffsetOuter1" result="shadowBlurOuter1"></feGaussianBlur>
            <feColorMatrix values="0 0 0 0 0   0 0 0 0 0   0 0 0 0 0  0 0 0 0.14 0" type="matrix" in="shadowBlurOuter1"></feColorMatrix>
        </filter>
        <path d="M5,-3.77298193e-12 L175.044922,-3.77919918e-12 C177.806346,-3.77970644e-12 180.044922,2.23857625 180.044922,5 L180.044922,45 C180.044922,47.7614237 177.806346,50 175.044922,50 L100.788086,50 L90.0224609,60 L80.4560547,50 L5,50 C2.23857625,50 -2.8340502e-14,47.7614237 -4.70734562e-14,45 L-3.41060513e-13,5 C-3.59793467e-13,2.23857625 2.23857625,-3.78571617e-12 5,-3.80584453e-12 Z" id="path-9"></path>
        <filter x="-16.7%" y="-50.0%" width="133.3%" height="200.0%" filterUnits="objectBoundingBox" id="filter-10">
            <feOffset dx="0" dy="0" in="SourceAlpha" result="shadowOffsetOuter1"></feOffset>
            <feGaussianBlur stdDeviation="10" in="shadowOffsetOuter1" result="shadowBlurOuter1"></feGaussianBlur>
            <feColorMatrix values="0 0 0 0 0   0 0 0 0 0   0 0 0 0 0  0 0 0 0.14 0" type="matrix" in="shadowBlurOuter1"></feColorMatrix>
        </filter>
        <path d="M5,-9.87654403e-12 L135.044922,-9.8943076e-12 C137.806346,-9.89481486e-12 140.044922,2.23857625 140.044922,5 L140.044922,45 C140.044922,47.7614237 137.806346,50 135.044922,50 L80.7880859,50 L70.0224609,60 L60.4560547,50 L5,50 C2.23857625,50 2.36292565e-14,47.7614237 -5.15143483e-14,45 L-1.3500312e-12,5 C-1.4251748e-12,2.23857625 2.23857625,-9.93746077e-12 5,-1.00115471e-11 Z" id="path-11"></path>
        <filter x="-21.4%" y="-50.0%" width="142.8%" height="200.0%" filterUnits="objectBoundingBox" id="filter-12">
            <feOffset dx="0" dy="0" in="SourceAlpha" result="shadowOffsetOuter1"></feOffset>
            <feGaussianBlur stdDeviation="10" in="shadowOffsetOuter1" result="shadowBlurOuter1"></feGaussianBlur>
            <feColorMatrix values="0 0 0 0 0   0 0 0 0 0   0 0 0 0 0  0 0 0 0.14 0" type="matrix" in="shadowBlurOuter1"></feColorMatrix>
        </filter>
        <path d="M5,-1.63673519e-11 L135.044922,-1.63620228e-11 C137.806346,-1.63625301e-11 140.044922,2.23857625 140.044922,5 L140.044922,45 C140.044922,47.7614237 137.806346,50 135.044922,50 L80.7880859,50 L70.0224609,60 L60.4560547,50 L5,50 C2.23857625,50 4.95577436e-14,47.7614237 -1.33226763e-14,45 L-1.1235457e-12,5 C-1.1851998e-12,2.23857625 2.23857625,-1.64174392e-11 5,-1.64792624e-11 Z" id="path-13"></path>
        <filter x="-21.4%" y="-50.0%" width="142.8%" height="200.0%" filterUnits="objectBoundingBox" id="filter-14">
            <feOffset dx="0" dy="0" in="SourceAlpha" result="shadowOffsetOuter1"></feOffset>
            <feGaussianBlur stdDeviation="10" in="shadowOffsetOuter1" result="shadowBlurOuter1"></feGaussianBlur>
            <feColorMatrix values="0 0 0 0 0   0 0 0 0 0   0 0 0 0 0  0 0 0 0.14 0" type="matrix" in="shadowBlurOuter1"></feColorMatrix>
        </filter>
        <path d="M5,-1.64490643e-11 L175.044922,-1.64366298e-11 C177.806346,-1.64518529e-11 180.044922,2.23857625 180.044922,5 L180.044922,45 C180.044922,47.7614237 177.806346,50 175.044922,50 L100.788086,50 L90.0224609,60 L80.4560547,50 L5,50 C2.23857625,50 5.8484599e-14,47.7614237 1.15463195e-14,45 L-8.53539461e-13,5 C-9.01704059e-13,2.23857625 2.23857625,-1.64865458e-11 5,-1.65361058e-11 Z" id="path-15"></path>
        <filter x="-16.7%" y="-50.0%" width="133.3%" height="200.0%" filterUnits="objectBoundingBox" id="filter-16">
            <feOffset dx="0" dy="0" in="SourceAlpha" result="shadowOffsetOuter1"></feOffset>
            <feGaussianBlur stdDeviation="10" in="shadowOffsetOuter1" result="shadowBlurOuter1"></feGaussianBlur>
            <feColorMatrix values="0 0 0 0 0   0 0 0 0 0   0 0 0 0 0  0 0 0 0.14 0" type="matrix" in="shadowBlurOuter1"></feColorMatrix>
        </filter>
        <path d="M5,0 L75,-2.66453526e-15 C77.7614237,-3.17180057e-15 80,2.23857625 80,5 L80,45 C80,47.7614237 77.7614237,50 75,50 L50.765625,50 L40,60 L30.4335938,50 L5,50 C2.23857625,50 3.89089055e-15,47.7614237 3.55271368e-15,45 L-8.8817842e-16,5 C-1.2263553e-15,2.23857625 2.23857625,5.07265313e-16 5,0 Z" id="path-17"></path>
        <filter x="-37.5%" y="-50.0%" width="175.0%" height="200.0%" filterUnits="objectBoundingBox" id="filter-18">
            <feOffset dx="0" dy="0" in="SourceAlpha" result="shadowOffsetOuter1"></feOffset>
            <feGaussianBlur stdDeviation="10" in="shadowOffsetOuter1" result="shadowBlurOuter1"></feGaussianBlur>
            <feColorMatrix values="0 0 0 0 0   0 0 0 0 0   0 0 0 0 0  0 0 0 0.14 0" type="matrix" in="shadowBlurOuter1"></feColorMatrix>
        </filter>
    </defs>
    <g id="Page-1" stroke="none" stroke-width="1" fill="none" fill-rule="evenodd">
        <g id="About-Page" transform="translate(-60.000000, -2620.000000)">
            <g id="Group-6" transform="translate(60.000000, 2620.000000)">
                <path d="M358.375516,820.450897 L357.075629,815.351184 L355.775742,812.801327 L353.27593,812.751282 L349.426187,815.301139 L348.1263,819.150883 L346.826413,821.700739 L341.7267,819.150883 L336.626986,815.301139 L334.07713,814.001252 L339.176843,820.400853 L343.026587,824.250596 L348.1263,828.10034 L351.976044,829.400226 L354.5259,830.700113 L358.375644,832 L360.925501,829.450143 L362.225387,826.900287 L363.525274,829.450143 L367.375018,829.450143 L368.674904,826.900287 L363.575191,825.6004 L358.375516,820.450897 Z M1128.87459,751.305776 C1127.5747,751.305776 1126.32473,752.605663 1123.77488,752.605663 L1119.92513,751.305776 L1117.37528,751.305776 L1117.37528,753.855633 L1119.92513,757.705377 L1119.92513,760.255233 L1122.47499,764.104977 L1126.32473,764.104977 L1128.87459,760.255233 L1130.17448,761.55512 L1130.17448,757.705377 L1131.47436,756.40549 L1131.47436,751.305776 L1128.87459,751.305776 Z M1222.31899,752.605663 L1219.76914,755.15552 C1219.76914,753.855633 1218.46925,752.605663 1218.46925,751.305776 L1215.91939,752.605663 L1215.91939,755.15552 L1214.61951,756.455407 L1213.31962,760.30515 L1210.76976,762.855007 C1209.46988,764.154894 1206.92002,765.404864 1205.67005,766.70475 L1203.12019,768.004637 L1198.02048,773.104351 L1196.72059,776.954094 L1196.72059,778.253981 L1200.57034,778.253981 L1203.12019,779.553868 L1206.96994,779.553868 C1208.26982,778.253981 1209.51979,777.004011 1212.06965,775.704124 L1214.61951,770.604411 L1215.91939,766.754667 L1218.46925,765.454781 L1221.01911,765.454781 L1219.71922,762.904924 L1221.01911,760.355067 C1222.31899,759.05518 1223.56896,756.505324 1224.86885,753.955467 L1224.86885,751.40561 L1222.31899,752.605663 Z M1235.11819,738.506064 L1232.56834,738.506064 L1228.71859,737.256094 L1228.71859,733.40635 L1227.41871,732.106464 L1227.41871,734.65632 L1224.86885,729.556607 L1223.56896,725.706863 L1221.01911,724.406976 L1218.46925,723.157007 L1217.16936,723.157007 L1218.46925,725.706863 L1221.01911,729.556607 L1222.31899,730.856494 L1222.31899,732.15638 L1223.61888,734.706237 L1223.61888,741.105837 L1221.06902,742.405724 L1221.06902,743.705611 L1224.91877,745.005498 L1226.21865,747.555355 L1223.6688,751.405098 L1224.96868,752.704985 L1224.96868,754.004872 L1227.51854,752.704985 C1228.81843,750.155128 1230.0684,747.605271 1231.36828,746.305385 L1231.36828,743.755528 L1232.66817,742.455641 L1235.21803,742.455641 L1236.51791,739.905784 L1237.8178,736.056041 L1236.51791,736.056041 L1235.11819,738.506064 Z M779.441055,641.261578 L778.141169,638.711721 L775.541395,636.111947 L774.241508,637.411834 L774.241508,639.961691 L771.691651,642.511548 L770.391765,642.511548 L770.391765,643.811435 L769.091878,645.111321 L767.941998,646.361163 L765.392141,648.91102 L764.092254,648.91102 L762.792367,650.210907 L760.242511,651.510794 L758.942624,651.510794 L758.942624,654.06065 L757.642737,656.610507 L757.642737,660.460251 L758.942624,663.010107 L760.242511,664.309994 L760.242511,666.859851 L758.942624,669.409708 L758.942624,670.709594 L757.642737,672.009481 L757.642737,677.109195 L758.942624,679.659051 L758.942624,683.508795 L760.242511,686.058652 C761.542397,687.358539 764.092254,687.358539 765.342224,688.608508 L770.441937,686.008735 L771.741824,680.909021 C773.041711,673.209534 775.591568,665.56022 778.141425,659.16062 L778.141425,656.610763 L779.441311,655.310876 L779.441311,654.010989 L778.141425,651.461133 L779.441311,650.161246 L780.741198,652.711103 L780.741198,650.111329 L779.441311,648.811442 L779.441055,641.261578 Z M1148.07083,691.157981 L1148.07083,688.608124 L1146.82086,684.758381 L1144.271,682.208524 C1142.97112,680.908637 1141.72115,679.658667 1140.42126,678.358781 L1140.42126,674.509037 L1139.12137,674.509037 L1137.82149,673.20915 L1136.5216,674.509037 L1135.22171,670.659294 L1132.67186,668.109437 L1132.67186,666.80955 C1131.37197,665.509663 1128.82211,664.259693 1127.57214,662.959807 L1123.7224,660.40995 L1122.42251,657.860093 L1122.42251,655.310236 L1121.12263,652.76038 L1119.82274,652.76038 C1119.82274,651.460493 1118.52285,648.910636 1118.52285,647.660666 L1118.52285,646.360779 L1115.92308,643.761006 L1113.37322,645.060893 L1113.52323,641.261066 L1113.52323,637.411322 L1112.22334,636.111436 L1112.22334,634.811549 L1110.92345,634.811549 L1110.92345,632.261692 L1109.62357,630.961805 L1108.32368,632.261692 L1108.32368,633.561579 L1105.72391,638.661292 L1105.72391,639.961179 L1104.42402,641.261066 L1104.42402,648.960553 L1103.12413,651.51041 L1103.12413,654.060266 L1101.82425,655.360153 L1100.52436,657.91001 L1097.9745,659.209897 L1094.12476,657.91001 L1094.12476,656.610123 L1092.82487,655.310236 L1091.52499,655.310236 L1087.67524,651.460493 L1087.92521,647.660666 L1085.37535,646.360779 L1085.37535,645.060893 L1087.97513,642.460991 L1087.97513,641.161104 L1089.27501,641.161104 L1090.5749,639.861217 L1091.87479,637.311361 L1087.92508,634.861466 L1086.6252,634.861466 L1084.07534,636.161352 L1081.52548,634.861466 L1080.2256,634.861466 L1077.67574,633.561579 L1076.37585,632.261692 L1073.826,630.961805 L1072.52611,630.961805 L1075.07597,632.261692 L1075.07597,633.561579 L1072.52611,634.861466 L1071.22622,634.861466 L1068.67637,636.161352 L1067.37648,638.711209 L1067.37648,640.011096 L1066.07659,641.310983 L1064.7767,643.860839 L1066.07659,646.410696 L1060.97688,646.410696 L1058.42702,643.860839 L1055.87716,642.560953 C1054.57728,642.560953 1053.32731,643.860839 1052.02742,643.860839 L1052.02742,645.160726 L1050.72753,645.160726 L1050.72753,646.460613 L1049.42765,646.460613 L1046.97775,646.360651 L1044.4279,647.660538 L1044.4279,650.210395 L1043.12801,648.910508 L1041.82812,650.210395 L1043.12801,651.510282 L1041.82812,652.810168 L1040.52824,648.960425 L1037.97838,651.510282 L1037.97838,655.360025 L1035.42852,656.659912 L1034.12864,659.209769 L1031.57878,660.509656 L1027.72903,661.809542 L1023.87929,661.809542 L1023.87929,663.109429 L1021.32943,663.109429 L1018.77958,664.409316 L1016.1798,664.409316 L1013.62995,665.709203 L1012.33006,667.00909 L1009.83025,671.958796 L1008.53036,674.508653 L1008.53036,671.958796 L1007.23048,674.508653 L1007.23048,679.608367 L1005.93059,680.908253 L1005.93059,683.45811 L1007.23048,684.757997 L1007.23048,686.057884 L1008.53036,688.607741 L1008.53036,691.157597 L1005.93059,688.557824 L1007.23048,692.407567 L1005.93059,691.10768 L1005.93059,692.407567 L1008.48045,694.957424 L1008.48045,697.507281 L1009.78033,698.807167 L1009.78033,700.107054 L1011.08022,702.656911 L1011.08022,707.756624 L1012.38011,711.606368 L1012.38011,719.305855 L1011.08022,719.305855 L1011.08022,721.855712 L1013.63008,723.155599 L1017.47982,725.705455 L1022.57953,725.705455 L1025.17931,723.105682 L1026.47919,723.105682 L1029.02905,720.555825 L1034.12876,720.555825 L1036.67862,721.855712 L1041.77833,721.855712 L1043.07822,720.555825 L1044.37811,718.005968 L1046.92796,716.706081 L1050.77771,714.156225 L1054.62745,714.156225 C1057.17731,712.856338 1061.02705,711.606368 1063.57691,711.606368 L1069.97651,711.606368 L1073.82625,714.156225 L1076.37611,714.156225 L1081.47582,716.706081 L1080.17594,718.005968 L1084.02568,721.855712 L1084.02568,724.405569 L1086.57554,725.705455 L1087.87542,721.855712 L1090.42528,720.555825 L1092.97514,716.706081 L1092.97514,719.255938 L1091.67525,721.805795 L1091.67525,724.355652 L1090.37536,726.905508 L1092.92522,725.605622 L1094.22511,723.055765 L1095.52499,726.905508 L1094.22511,729.455365 L1098.07485,729.455365 L1099.37474,730.755252 L1100.67462,733.305109 L1100.72467,735.954927 L1103.27452,738.504784 L1107.12427,739.804671 L1109.67412,739.804671 C1110.97401,739.804671 1113.52387,741.104557 1114.77384,742.354527 L1117.32369,738.504784 L1119.87355,737.204897 L1119.87355,739.754754 L1122.42341,741.054641 L1124.97326,743.604497 L1128.82301,739.754754 L1132.67275,738.454867 L1136.5225,738.454867 L1139.07235,737.15498 L1139.07235,733.305237 L1140.37224,729.455493 L1141.67213,726.905636 L1142.97201,723.055893 L1144.2719,720.506036 L1145.57179,716.656293 L1148.12164,714.106436 L1149.42153,710.256692 L1150.72142,707.706836 L1150.72142,705.156979 C1150.72142,703.857092 1152.0213,701.307235 1152.0213,700.057265 L1152.0213,696.207522 L1150.72142,692.357778 L1148.07083,691.157981 Z M1046.97762,623.311979 L1043.12788,625.861836 L1041.82799,628.411692 L1041.82799,629.711579 L1044.37785,628.411692 L1046.92771,625.861836 C1049.47756,624.561949 1052.02742,624.561949 1053.32731,623.311979 L1054.62719,622.012092 L1049.47756,622.012092 L1046.97762,623.311979 Z M1022.62971,622.062009 L1021.37974,620.762122 L1020.07985,622.062009 L1017.52999,622.062009 L1016.23011,624.611866 L1018.77996,624.611866 C1021.32982,624.611866 1022.62971,623.311979 1025.17956,623.311979 L1023.87968,622.012092 L1022.62971,622.062009 Z M1034.17894,622.062009 L1031.62908,620.762122 L1029.07922,622.062009 L1029.07922,623.361896 L1034.17894,623.361896 L1039.27865,622.062009 L1039.27865,619.512152 L1036.72879,622.062009 L1034.17894,622.062009 Z M1009.83102,623.311979 L1013.68076,622.012092 L1009.83102,619.462235 L1004.7313,618.162349 L1003.43142,615.612492 L997.031816,614.312605 L995.73193,615.612492 L989.332329,615.612492 L989.332329,614.312605 L988.032442,614.312605 L985.482586,613.012718 L981.632842,613.012718 L979.082985,616.862462 L982.932729,616.862462 L982.932729,618.162349 L989.332329,619.462235 L993.182073,619.462235 L1000.88156,622.062009 L1008.58105,622.062009 L1009.83102,623.311979 Z M1127.62334,613.062635 L1121.22374,610.512778 L1121.22374,607.962922 L1119.92385,607.962922 L1117.374,606.663035 L1104.5748,601.563321 L1100.72505,600.263435 C1099.42516,598.963548 1096.87531,598.963548 1095.62534,597.713578 L1093.07548,597.713578 L1087.92585,600.263435 L1085.37599,604.113178 L1081.52625,601.563321 L1080.22636,595.163721 L1080.22636,593.863834 L1075.12665,592.563948 L1073.82676,593.863834 L1067.42716,595.163721 L1068.72705,596.463608 L1071.27691,597.763495 L1072.57679,600.313352 L1077.67651,600.313352 L1077.67651,601.613238 L1075.12665,601.613238 L1071.27691,602.913125 L1073.82676,604.213012 L1073.82676,605.512899 L1075.12665,606.812786 L1076.42654,606.812786 L1077.72642,605.512899 L1082.82614,609.362642 L1085.37599,609.362642 L1091.77559,611.912499 L1093.07548,614.462356 L1094.37537,618.312099 L1091.82551,619.611986 L1090.52562,622.161843 L1095.62534,622.161843 L1096.92522,620.861956 L1100.77497,622.161843 L1103.32483,624.7117 L1109.72443,624.7117 L1112.27428,623.411813 L1112.27428,620.861956 L1117.374,618.262182 L1122.47371,619.562069 L1123.7736,622.111926 L1128.87331,627.211639 C1131.42317,627.211639 1132.72305,628.511526 1135.27291,628.511526 L1136.5728,629.811413 L1139.12265,629.811413 L1139.12265,628.511526 L1135.27291,627.211639 L1136.5728,625.911753 L1134.02294,625.911753 L1134.02294,624.611866 L1131.47308,624.611866 L1130.1732,620.762122 L1126.32345,618.212266 L1126.32345,615.662409 L1130.1732,615.662409 L1127.62334,613.062635 Z M1026.48022,596.463352 L1026.48022,599.013209 L1025.18033,601.563065 L1026.48022,604.112922 L1027.7801,604.112922 L1027.7801,607.962666 L1026.48022,611.812409 L1027.7801,613.112296 L1030.32996,613.112296 L1030.32996,604.162839 L1032.87982,602.862952 L1032.87982,606.712696 L1035.42967,609.262553 L1035.42967,610.562439 L1036.72956,611.862326 L1040.5793,610.562439 L1036.72956,610.512394 L1038.02945,611.812281 L1039.32933,610.512394 L1039.32933,607.962538 L1035.47959,604.112794 L1036.77948,602.812907 L1032.92973,597.713194 L1035.47959,596.413307 L1036.77948,593.86345 L1038.07936,593.86345 L1038.07936,592.563564 L1034.17958,595.163337 L1031.62972,596.463224 L1029.07986,593.913367 L1029.07986,591.363511 L1038.02932,591.363511 L1041.87906,592.663397 L1044.42892,591.363511 L1046.97878,587.513767 L1046.97878,586.21388 L1043.12903,588.763737 L1034.17958,588.763737 L1031.62972,587.46385 L1027.77998,591.313594 L1026.48022,596.463352 Z M979.133414,606.662779 L980.433301,602.813035 L979.133414,600.263179 L976.583558,600.263179 L975.283671,597.713322 L975.283671,595.163465 L972.733814,595.163465 L970.183957,593.863578 L971.483844,591.313722 L968.933987,590.013835 L963.834274,584.914121 L959.98453,584.914121 L956.134787,581.064378 L953.58493,579.764491 L951.035073,577.214634 L948.485217,573.364891 C945.93536,573.364891 943.385503,572.065004 940.78573,572.065004 L940.78573,573.364891 L947.18533,579.764491 L948.485217,582.314348 L952.33496,584.864204 L954.934734,589.963918 L957.484591,592.513775 L960.034447,597.613488 L961.334334,600.163345 L963.884191,602.713202 L965.184078,605.263058 L970.283791,607.812915 L972.833648,610.362772 L976.683391,610.362772 L979.133414,606.662779 Z M1017.53102,567.014695 L1016.23113,569.564552 L1009.83153,575.964152 L1008.53164,578.514009 L1005.98179,581.063866 L1002.13204,582.363753 L998.332215,582.363753 L998.332215,584.913609 L995.782358,586.213496 L993.232502,584.913609 L990.682645,587.463466 L990.682645,593.863066 L991.982532,596.412923 L993.282419,597.71281 L993.282419,602.812523 L998.382132,602.812523 L999.682019,604.11241 L1003.53176,602.812523 L1004.83165,604.11241 L1007.38151,604.11241 L1008.68139,606.662267 L1012.53114,605.36238 L1012.53114,606.662267 L1013.83102,601.562553 L1013.83102,597.71281 L1017.68077,595.162953 L1017.68077,591.31321 L1018.98065,588.763353 L1022.8304,588.763353 L1018.98065,584.913609 L1018.98065,583.613723 L1016.4308,579.763979 L1018.98065,575.914236 L1021.53051,574.614349 L1021.53051,573.314462 L1024.08037,573.314462 L1024.08037,572.014575 C1022.78048,572.014575 1020.23062,570.714688 1018.98065,569.464718 L1018.98065,568.164832 L1017.68077,566.864945 L1017.53102,567.014695 Z M1041.82902,560.615095 L1036.7293,563.214869 L1036.7293,567.014695 L1039.27916,564.464839 L1040.57905,564.464839 L1041.87894,563.164952 L1044.42879,564.464839 L1043.12891,565.764725 L1044.42879,568.314582 L1048.27854,570.864439 L1049.52851,569.564552 L1048.22862,567.014695 L1049.52851,565.714809 L1050.82839,569.564552 L1052.12828,565.714809 C1052.12828,563.164952 1050.82839,560.615095 1050.82839,558.015322 L1048.22862,556.765352 L1048.22862,559.315208 L1045.67876,559.315208 L1045.67876,560.615095 L1043.12891,561.914982 L1041.82902,560.615095 Z M1039.27916,552.915608 L1039.27916,555.465465 L1037.97927,556.765352 L1038.02932,556.765352 L1040.57918,559.315208 L1041.87906,558.015322 L1043.17895,555.465465 L1044.47884,554.165578 L1044.47884,550.315834 L1041.92898,554.165578 L1041.92898,551.615721 L1039.27916,552.915608 Z M1025.22948,554.215495 L1023.92959,556.765352 L1021.37974,559.315208 L1020.07985,561.865065 L1025.17956,558.015322 L1026.47945,555.465465 L1029.02931,552.915608 L1029.02931,550.365751 L1025.22948,554.215495 Z M1049.52748,547.815895 L1048.22759,546.516008 L1044.37785,546.516008 L1046.92771,549.065865 L1046.92771,550.365751 L1044.37785,550.365751 L1044.37785,552.915608 L1045.67774,552.915608 L1045.67774,555.465465 L1046.97762,554.165578 L1045.67774,551.615721 L1045.67774,550.315834 L1048.22759,551.615721 L1049.52748,547.815895 Z M1038.02817,524.767094 L1031.62857,524.767094 L1030.32868,528.616838 L1030.32868,535.016438 L1029.02879,533.716551 L1029.02879,538.866182 L1030.32868,541.416038 L1030.32868,540.116152 L1031.62857,541.416038 L1030.32868,542.715925 L1030.32868,544.015812 L1031.62857,545.315699 L1035.47831,545.315699 L1038.02817,547.865555 L1039.32805,546.565669 L1040.62794,549.115525 L1043.1778,550.415412 L1043.1778,549.115525 L1043.12788,543.965895 L1043.12788,541.416038 L1039.27814,538.866182 L1036.67836,538.866182 L1035.37848,536.316325 L1035.37848,533.766468 L1037.92833,532.466581 L1039.22822,529.916725 L1036.72841,527.316951 L1038.02817,524.767094 Z M327.672538,519.667381 L335.322108,519.667381 L335.322108,518.367494 L332.772251,515.817637 L330.222394,515.817637 L330.222394,514.51775 L327.672538,513.217864 L326.372651,513.217864 C323.822794,511.917977 322.522907,509.36812 319.97305,508.11815 L316.123307,508.11815 L314.82342,506.818263 L310.973677,505.518377 L302.02422,505.518377 L296.824544,510.718052 L299.424318,510.718052 L299.424318,509.418165 L300.724205,509.418165 L303.274062,506.868308 L307.123805,506.868308 L307.17385,509.418165 L308.473737,510.718052 L313.57345,510.718052 L314.873337,512.017939 L318.723081,513.317825 L321.272937,513.317825 L322.572824,515.867682 L323.872711,517.167569 L326.422568,517.167569 L327.722454,518.467456 L325.172598,521.017312 L327.672538,519.667381 Z M1076.42577,465.871061 L1077.72566,464.571174 L1079.02554,465.871061 L1081.5754,463.321204 L1081.5754,462.021317 L1079.02554,460.721431 L1077.72566,462.021317 L1075.1758,462.021317 L1072.62594,464.571174 L1072.62594,467.121031 L1075.1758,468.420918 L1076.42577,465.871061 Z M1096.87505,445.421778 L1091.77534,450.521492 L1089.22548,447.971635 L1085.37574,455.671122 L1081.52599,454.371235 L1073.82651,455.671122 L1071.27665,458.220979 L1067.42691,460.770836 L1066.12702,463.320692 L1062.27728,464.620579 L1063.57716,467.170436 L1066.12702,468.470323 L1064.82713,472.320066 L1066.12702,473.619953 L1068.67688,472.320066 L1071.22673,464.620579 L1067.37699,462.070722 L1071.22673,462.070722 L1075.07648,459.520866 L1081.47608,458.220979 L1081.47608,462.070722 L1084.02593,463.370609 L1089.12565,458.270896 L1095.52525,458.270896 L1100.62496,455.721039 L1101.92485,453.171182 L1101.92485,450.621325 L1103.22474,446.771582 L1103.22474,441.671868 L1107.07448,436.572155 L1107.07448,432.722411 L1105.82464,428.772706 L1101.97489,430.072593 L1100.72492,432.62245 L1100.72492,437.722163 L1096.87505,445.421778 Z M1102.02468,419.823377 L1100.7248,423.673121 L1100.7248,428.772834 L1104.57454,428.772834 L1107.1244,423.673121 L1112.22411,427.522864 L1114.77397,422.423151 L1119.87368,421.123264 L1118.57379,416.023551 L1117.37387,415.973506 L1114.82401,415.973506 L1112.27415,414.673619 L1108.42441,409.573905 L1107.12452,413.423649 L1105.82464,419.823249 L1102.02468,419.823377 Z M401.870015,377.575776 L403.169902,376.275889 L401.870015,376.275889 L398.070188,377.575776 L395.520332,381.42552 L391.670588,390.374977 L389.120731,394.22472 L390.420618,395.524607 L387.870761,396.824494 L387.870761,398.124381 L398.120105,398.124381 L401.969849,399.424267 L399.419992,401.974124 L401.969849,401.974124 L405.819592,396.874411 L407.119479,398.174297 L405.819592,402.024041 L409.569374,403.173921 L410.869261,403.173921 L412.169148,398.074208 L410.869261,394.224464 L410.869261,391.674607 L408.319404,392.974494 L409.619291,389.124751 L405.769547,387.824864 L404.469661,389.124751 L401.919804,387.824864 L403.219691,385.275007 L400.669834,383.97512 L398.119977,385.275007 C399.319902,382.675234 400.619789,380.125377 401.869759,377.57552 L401.870015,377.575776 Z M1107.13156,373.726032 L1109.68142,378.825746 L1109.68142,386.525233 L1108.38153,390.374977 L1108.38153,401.87429 L1109.68142,405.724034 L1112.23128,401.87429 L1114.78113,404.424147 L1114.78113,400.574404 L1110.93139,395.47469 L1113.48125,387.775203 L1118.58096,389.07509 L1113.53129,380.125633 L1112.2314,373.726032 L1112.2314,368.626319 C1110.93152,364.776575 1110.93152,362.226719 1109.68155,358.376975 L1108.38166,359.676862 L1109.68155,362.226719 L1105.8318,364.776575 L1107.13156,373.726032 Z M569.565141,375.025919 L575.964741,371.176176 L578.514598,366.076462 L578.514598,362.226719 L579.814484,358.376975 L575.964741,354.527232 L573.414884,354.527232 L565.715397,362.226719 L567.015284,368.626319 L564.465427,375.025919 L569.565141,375.025919 Z M581.064454,353.277518 L583.614311,350.727661 L584.914198,352.027548 L583.614311,354.577405 L584.914198,355.877291 L588.763941,357.177178 L591.313798,361.026922 L591.313798,364.876665 L586.214085,364.876665 L584.914198,368.726409 L587.464055,371.276266 L583.614311,372.576152 L584.914198,375.126009 L590.013911,376.425896 L584.914198,377.575776 L579.814484,383.975376 L581.114371,385.275263 L583.664228,382.725406 L587.513971,382.725406 L590.063828,380.17555 L591.363715,381.475436 L597.763315,380.17555 L602.863029,380.17555 L606.712772,377.625693 L605.412885,375.075836 L606.712772,373.775949 L606.712772,369.926206 L602.863029,368.626319 L601.563142,366.076462 L599.013285,359.676862 L596.463428,358.376975 L592.613685,350.677488 L588.763941,350.677488 L592.613685,344.277888 L593.913572,339.178174 L586.214085,339.178174 L590.063828,331.478687 L583.664228,331.478687 L581.114371,336.578401 L579.814484,342.978001 L581.114371,346.827745 L581.064454,353.277518 Z M551.665971,282.881915 L547.816227,276.482314 L549.116114,271.382601 L542.716514,271.382601 L537.566883,275.182428 L532.46717,272.632571 L527.367456,277.732284 L522.267743,271.332684 L517.168029,272.632571 L514.618173,277.732284 L522.31766,280.282141 L522.31766,282.831998 L515.918059,284.131885 L523.617547,287.981628 L519.767803,291.831372 C524.867516,293.131259 530.017147,294.381228 533.867402,295.681115 C538.967116,293.131259 542.816859,290.581402 546.666603,287.981628 L551.665971,282.881915 Z M474.870767,611.808569 L473.570881,610.508683 L471.021024,610.508683 L468.471167,609.208796 L463.371454,605.359052 L458.27174,602.809196 L453.172027,602.809196 L446.772426,601.509309 L442.922683,602.809196 L442.922683,600.259339 L441.622796,597.709482 L433.873264,595.159625 L428.773551,593.859739 L426.223694,596.409595 L426.223694,592.559852 L419.824094,592.559852 L418.524207,591.259965 L421.074064,588.710108 L421.074064,586.160252 L419.774177,586.160252 L417.22432,579.760651 L415.924433,577.210795 L414.624546,577.210795 L414.624546,575.910908 L410.774803,573.361051 C408.224946,572.061164 405.675089,572.061164 403.075316,570.811194 L400.525459,570.811194 L400.525459,572.111081 L396.775677,570.861111 C395.47579,569.561224 394.225821,568.311254 392.925934,568.311254 L391.626047,568.311254 L391.626047,567.011368 L389.07619,564.461511 C387.776303,563.161624 386.526333,563.161624 385.226447,561.911654 L383.92656,561.911654 L383.92656,559.361797 L380.126733,556.762024 L377.576876,556.762024 L376.27699,555.462137 L378.826846,554.16225 L369.877389,554.16225 L369.877389,555.462137 L367.327533,556.762024 L364.777676,556.762024 L362.227819,555.462137 L354.528332,555.462137 L354.528332,554.16225 L351.978475,551.612393 L349.428619,551.612393 L348.128732,549.062537 L346.828845,550.362424 L346.828845,551.66231 L345.579003,552.91228 L345.579003,555.462137 L346.87889,556.762024 L345.579003,559.311881 L344.279116,559.311881 L343.029146,556.762024 L344.329033,554.212167 L344.329033,552.91228 L343.029146,551.612393 L345.579003,551.612393 L345.579003,550.312507 L346.87889,549.01262 L345.579003,547.812695 L344.279116,547.812695 L342.979229,549.112582 C341.679343,550.412468 340.429373,550.412468 339.129486,551.662438 L336.579629,551.662438 L336.579629,552.962325 L334.029772,552.962325 L331.479916,554.262212 L330.229946,556.762024 L330.229946,558.061911 L328.930059,558.061911 L326.380202,560.611767 L325.080315,560.611767 L322.480414,558.011994 L316.080814,558.011994 L314.780927,559.311881 L312.23107,560.611767 L310.931183,561.911654 L309.631296,561.911654 L308.33141,560.611767 L307.031523,560.611767 L307.031523,559.311881 C305.731636,558.011994 304.481666,556.762024 303.181779,555.462137 L301.881892,552.91228 L301.881892,551.612393 L303.181779,550.312507 L303.181779,542.51293 L304.481666,541.213043 L304.481666,538.613269 L303.181779,537.313383 L301.881892,537.313383 L299.281991,534.713609 L287.582754,534.713609 L286.282867,536.013496 L284.98298,536.013496 L283.683093,534.713609 L284.98298,533.413722 L286.282867,533.413722 L287.582754,532.113835 L287.582754,526.91416 L286.282867,526.91416 L287.582754,526.91416 L288.88264,528.214047 C288.88264,526.91416 290.182527,525.66419 290.182527,523.114333 L288.88264,521.814447 L290.182527,519.26459 L292.732384,516.714733 L292.732384,515.414846 L291.432497,514.11496 L286.332784,514.11496 L282.48304,515.414846 L279.933183,516.714733 L279.933183,520.564477 L278.633297,523.114333 L276.08344,524.41422 C274.783553,524.41422 272.233696,525.714107 270.983726,525.714107 L268.43387,525.714107 L265.884013,527.013994 L264.584126,525.714107 L260.734383,524.41422 L255.984727,520.914407 L255.984727,519.664437 L253.434871,517.11458 L252.134984,514.564723 L250.835097,513.264837 L250.835097,501.765523 L252.134984,497.915779 L250.835097,496.615893 L250.835097,492.766149 L254.68484,488.916406 L258.534584,487.616519 L262.384328,485.066662 L264.934184,483.766775 L267.484041,483.766775 L270.033898,485.066662 L272.583754,485.066662 L275.133611,487.616519 L277.683468,487.616519 L278.983355,486.316632 L281.583128,486.316632 L281.583128,479.967077 L280.283242,478.66719 L290.532585,478.66719 L293.082442,479.967077 L294.382329,482.516933 L298.232072,481.217046 L299.531959,481.217046 L302.081816,485.06679 L303.381703,487.616647 L302.081816,490.166503 L302.081816,491.46639 C303.381703,494.016247 304.631673,495.316134 305.93156,497.865991 L307.231446,499.165877 L307.231446,500.465764 L309.83122,500.465764 L311.131107,497.915907 L311.131107,494.066164 L309.83122,488.96645 L309.83122,487.666564 L308.531333,485.116707 L307.231446,481.266963 L307.231446,476.16725 L308.531333,473.617393 L311.08119,471.067536 L314.930933,468.51768 L314.930933,467.217793 L316.23082,465.917906 L317.530707,465.917906 L320.080564,463.368049 L323.930307,462.068163 L326.480164,458.218419 L326.480164,453.068789 L325.180277,453.068789 L325.180277,449.219045 L322.63042,447.919158 L325.180277,449.219045 L327.680089,441.569475 L328.979976,439.019618 L328.979976,442.869362 L330.279863,444.169249 L328.979976,446.719105 C330.279863,445.419218 331.529833,442.869362 331.529833,441.619392 L331.529833,440.319505 L330.229946,439.019618 L328.930059,436.469761 L330.229946,437.769648 L331.529833,437.769648 L331.529833,439.069535 L334.079689,435.219792 L335.379576,431.370048 L334.079689,431.370048 L335.379576,430.070161 L337.929433,430.070161 L343.029146,428.770274 L341.72926,427.470388 L336.629546,428.770274 L339.179403,427.470388 L343.029146,427.470388 L345.579003,426.170501 L346.87889,426.170501 L349.428747,424.870614 L349.428747,423.570727 L348.12886,422.27084 L348.12886,423.570727 L346.828973,423.570727 L345.529086,421.02087 L345.529086,418.471014 C346.828973,417.171127 346.828973,415.921157 348.078943,414.62127 C350.6288,413.321383 353.178656,412.071413 355.77843,412.071413 L359.628174,409.521557 L359.628174,408.22167 L368.577631,408.22167 L362.17803,412.071413 L362.17803,415.921157 L364.727887,415.921157 L368.577631,412.071413 L372.427374,409.521557 L380.126861,406.9717 L383.976605,403.121956 L381.426748,401.82207 L381.426748,397.972326 L377.577004,404.371926 L371.177404,405.671813 L366.077691,403.121956 L364.777804,399.272213 L363.477917,394.172499 L367.327661,390.322756 L364.777804,387.772899 L359.67809,387.772899 L351.978603,392.872613 L346.87889,399.272213 L344.329033,400.5721 L348.178777,395.472386 L353.27849,387.772899 L358.378204,385.223042 L360.92806,381.373299 L369.877517,381.373299 L377.577004,382.673186 L383.976605,381.373299 L389.076318,376.273585 L395.475918,373.723729 C396.775805,372.423842 399.325662,371.173872 400.575632,369.873985 L400.575632,363.474385 L399.275745,360.924528 L396.775933,363.474385 L395.476046,358.374671 L392.92619,355.824815 L387.826476,354.524928 L383.976733,350.675184 L378.877019,346.825441 L380.176906,342.975697 C377.627049,337.875984 375.077193,331.476383 371.227449,326.326497 L368.677592,319.926897 L366.127736,323.77664 L362.277992,331.476127 L358.378204,334.075901 L355.828347,330.226158 L351.978603,328.926271 L350.678717,319.976814 L350.678717,313.577213 L345.579003,313.577213 L344.279116,311.027357 L340.429373,307.177613 L336.579629,304.627756 L334.029772,307.177613 L330.180029,305.877726 L323.780429,303.32787 L321.230572,304.627756 L322.530459,316.12707 L323.830346,322.52667 L319.980602,330.226158 L323.830346,335.325871 L326.380202,340.425584 L326.380202,344.275328 L323.830346,348.125072 L319.980602,351.974815 L314.880889,354.524672 L317.430745,358.374415 L318.730632,367.323872 L316.180775,373.723473 L314.880889,377.573216 L309.781175,372.473503 L307.181401,366.073902 L305.881515,359.674302 L305.881515,354.574589 L295.632171,354.574589 L291.782427,352.024732 L287.932684,350.724845 L285.382827,348.174988 L281.533083,345.625132 L275.133483,343.075275 L270.03377,344.375162 L268.783928,336.62563 L267.484041,330.22603 L262.384328,328.926143 L262.384328,321.226656 L263.684214,316.126942 L267.533958,307.177485 L271.383701,300.777885 L275.233445,299.477998 L275.233445,294.378285 L277.783302,290.528541 L282.883015,290.528541 L286.732759,285.428828 L288.032646,281.579084 L291.882389,273.879597 L293.182276,270.029854 L297.032019,272.57971 L302.131733,271.279823 L308.531333,264.880223 L308.531333,259.78051 L307.181401,254.680796 L309.731258,249.581083 L309.731258,244.481369 L304.631545,239.381656 L294.432118,236.781882 L294.432118,248.281196 L291.882261,257.230653 L288.032518,263.630253 L284.182774,257.230653 L285.482661,249.531166 L281.582872,244.481497 L276.483159,252.180984 L276.483159,241.931641 L270.083559,239.381784 L272.633415,234.28207 L267.533702,221.48287 L263.683958,216.383156 L258.584245,215.08327 L255.984471,223.982682 L255.984471,235.481995 L259.834215,239.331739 L263.683958,245.731339 L262.384072,255.980683 L259.834215,255.980683 L257.284358,263.68017 L257.284358,254.730713 L252.184645,250.88097 L249.634788,252.180856 L249.634788,258.580457 L244.535074,258.580457 L239.435361,259.880343 L233.035761,256.0306 L229.186017,257.330487 L225.336274,252.230773 L222.786417,249.680917 L218.886628,249.580955 L215.036885,249.580955 L212.487028,253.430698 L216.336772,257.280442 L211.187141,262.380155 L207.337398,257.280442 L204.787541,258.530284 L194.538197,259.830171 L188.138597,257.280314 L193.238311,252.1806 L188.138597,247.080887 L184.288854,247.080887 L179.18914,245.781 L170.239683,241.931257 L166.38994,238.081513 L162.540196,238.081513 L161.240309,240.63137 L157.390566,241.931257 L157.390566,234.23177 L152.290852,240.63137 L145.891252,231.681913 L143.341395,230.382026 L142.091425,236.781626 L139.541569,239.331483 L136.991712,235.481739 L130.542067,236.781626 L125.442353,241.88134 L120.34264,240.581453 L116.492896,243.13131 L113.943039,246.981053 L110.093296,245.681166 L104.993582,240.581453 C101.143839,239.281566 98.5939822,238.031596 94.7442386,236.731709 L89.6445252,234.181853 L83.19488,236.781626 L80.6450233,235.481739 L74.245423,234.181853 L66.5459359,230.332109 L62.6961924,231.631996 L57.5964789,230.332109 L57.5964789,227.782252 L51.1968787,226.53241 L49.8969918,229.082267 L46.0971652,223.982554 L40.9974517,221.432697 L35.8977383,227.832297 L32.0479947,226.53241 L25.5983496,231.682041 L21.748606,232.981928 L17.8988625,238.081641 L16.5989757,243.181355 L12.799149,247.031098 L6.39954876,247.031098 L3.84969203,252.130812 L8.94940549,254.680668 L12.799149,259.830299 L15.3490058,264.930012 L19.1987493,268.779756 L21.748606,273.879469 L14.049119,273.879469 L14.049119,270.029726 L12.7992002,270.079642 L5.09971315,273.929386 L0,277.729213 L5.09971315,282.828926 L6.39959996,286.67867 L11.4993134,287.978556 L16.5990269,286.67867 L19.1488836,287.978556 L20.4487704,286.67867 L24.298514,285.378783 L26.8483707,285.378783 L23.048544,287.978556 L25.5984008,290.528413 L25.5984008,293.07827 L23.048544,295.628127 L20.4986873,294.32824 L17.9488306,298.177983 L15.3989738,296.878097 L12.8491171,296.878097 L11.5492303,300.72784 L8.99937357,304.577584 L7.69948676,308.427327 L10.2493435,310.977184 L10.2493435,314.826927 L12.7992002,319.976558 L15.349057,323.826301 L20.4487704,322.526415 L22.9986272,325.076271 L21.6987403,327.626128 L21.6987403,331.475872 L24.2485971,331.475872 L28.0983406,328.926015 L29.3982274,332.775758 L30.6981142,330.225902 L33.247971,334.075645 L35.7978277,331.525788 L37.0977145,332.825675 L40.947458,330.275818 L39.6475712,334.125562 L39.6475712,339.225275 L35.7978277,343.075019 L30.6981142,346.924763 L29.3982274,349.474619 L25.5484839,350.774506 L21.6987403,354.62425 L13.9992533,359.723963 L13.9992533,361.02385 L20.3988535,359.723963 L22.9487103,357.174106 C23.0486976,354.524288 25.5985288,353.274318 28.1483855,351.974431 L30.6982422,351.974431 L34.5479858,349.424574 L35.8478726,346.874718 L40.947586,343.024974 L42.2474728,340.475117 L49.9469599,335.375404 L53.7967035,330.27569 L49.896915,326.375902 L54.9966285,321.276189 L57.5464852,316.176475 L62.6461987,312.326732 L63.9961304,314.876588 L60.1463869,317.426445 L58.8465,325.125932 L58.8465,328.975676 L62.6962436,326.375902 L65.2461003,323.826045 L69.0958439,322.526159 L71.6457006,322.526159 L70.3458138,317.426445 L74.1955573,316.126558 L78.0453009,318.676415 L84.4449011,322.526159 L89.5446146,322.526159 C93.3943581,323.826045 95.9442149,325.076015 99.7939584,326.375902 L107.493445,334.075389 L111.343189,336.625246 L120.292646,336.625246 L122.842503,343.024846 L127.942216,348.12456 L129.242052,353.224273 L134.341765,358.323987 L134.341765,360.873843 L138.191509,364.723587 L138.191509,369.8233 L143.291222,372.373157 L143.291222,376.222901 L145.841079,381.322614 L152.240679,383.872471 L154.790536,386.422327 L161.190136,391.522041 L162.490023,395.371784 L162.490023,399.221528 L161.190136,400.521415 L159.890249,395.421701 L154.790536,394.121815 L154.790536,395.421701 L156.090423,397.971558 L157.39031,403.071272 L158.690196,409.470872 L157.39031,418.420329 L156.090423,423.520042 L157.39031,427.369786 L157.39031,431.219529 L156.090423,435.069273 L157.39031,437.61913 L157.39031,441.468873 L159.940166,445.318617 L161.240053,446.618504 L161.240053,447.91839 L163.78991,454.317991 L167.639653,458.167734 L167.639653,460.717591 L168.93954,462.017478 L172.789284,462.017478 L174.089171,463.317364 L176.639027,463.317364 L176.639027,464.617251 L177.938914,464.617251 L180.488771,467.167108 L180.488771,469.716965 L181.788658,473.566708 C183.088544,476.116565 184.338514,479.966309 185.638401,482.516165 L188.188258,483.816052 L190.738115,486.365909 L190.738115,487.665796 L189.438228,488.965682 L188.138341,488.965682 L190.688198,491.515539 L193.238055,492.815426 L194.537941,494.115313 C195.837828,495.4152 197.087798,496.66517 198.387685,496.66517 L198.387685,501.764883 L199.687572,503.06477 L202.237428,504.364657 L204.787285,506.914513 L206.087172,509.46437 L207.387059,508.164483 L207.387059,506.864596 C206.087172,505.56471 206.087172,504.31474 204.837202,503.014853 L203.537315,503.014853 L203.537315,500.464996 C203.537315,499.165109 202.237428,497.915139 200.987459,496.615253 L202.237428,492.765509 L197.087798,487.615879 L195.787911,485.066022 L195.787911,482.46612 L191.988085,479.966309 L190.688198,478.666422 L190.688198,472.266821 L193.238055,473.566708 L194.537941,473.566708 L197.087798,474.866595 L197.087798,476.166482 L198.387685,478.716339 L200.937542,481.266195 L200.937542,482.566082 C202.237428,483.865969 203.487398,485.115939 204.787285,486.415826 L207.337142,486.415826 L208.637029,488.965682 L212.486772,492.815426 L212.486772,495.365283 L213.786659,496.66517 L216.336516,497.965056 L217.636403,500.514913 L221.486146,503.06477 L224.036003,506.914513 L225.33589,509.46437 L225.33589,510.764257 L226.635776,512.064144 L226.635776,513.36403 L225.33589,514.663917 L225.33589,515.963804 L224.036003,515.963804 L225.33589,517.263691 L226.635776,519.813548 L230.48552,522.363404 L231.785407,523.663291 L235.63515,524.963178 L238.185007,524.963178 L239.484894,526.263065 L242.034751,527.562952 L245.884494,528.862838 L248.434351,528.862838 L252.284094,530.162725 L257.383808,532.762499 L258.683695,532.762499 L261.233551,531.462612 L263.783408,531.462612 L266.333265,532.762499 L271.482895,537.912129 L274.032752,539.212016 L275.332639,540.511903 L277.882496,540.511903 L280.482269,543.111676 L283.032126,543.111676 L284.332013,544.411563 L288.181756,544.411563 L288.181756,543.111676 L289.481643,543.111676 L289.481643,544.411563 L293.381431,548.311352 C294.681318,549.611238 295.931288,549.611238 295.931288,550.861208 L294.631401,552.161095 L295.931288,552.161095 L295.931288,556.060884 L297.231175,556.060884 L298.531062,557.36077 L299.830949,556.060884 L299.830949,554.760997 L301.130835,556.060884 L301.130835,557.36077 L302.430722,557.36077 L305.030496,559.960544 L305.030496,561.260431 L306.330383,562.560318 L308.880239,563.860204 L308.880239,562.560318 L312.780028,562.560318 L314.079915,563.860204 L315.379801,563.860204 L315.379801,566.410061 L317.979575,566.410061 L316.679688,563.860204 L316.679688,562.560318 L317.979575,562.560318 L320.579349,559.960544 L321.879235,559.960544 L324.479009,562.560318 L325.778896,562.560318 L319.979322,563.160344 L321.279209,565.710201 L323.87911,568.309974 L323.87911,570.859831 L322.579224,572.159718 L323.87911,576.009462 L322.579224,578.559318 L323.87911,579.859205 C322.579224,581.159092 321.329254,582.409062 321.329254,583.708949 L319.979322,582.359017 L319.979322,584.958791 L318.679435,584.958791 L318.679435,586.258677 L313.579722,588.858451 L313.579722,590.158338 L312.279835,592.708195 L312.279835,595.15809 L310.979948,595.15809 L310.979948,599.007833 L309.680061,600.30772 L312.229918,601.607607 L313.529805,600.30772 L314.829692,601.607607 L313.529805,604.157463 L310.979948,606.70732 L309.680061,609.257177 L310.979948,613.10692 L309.680061,614.406807 L312.229918,615.706694 L314.779775,618.256551 L316.079662,620.806407 L317.379548,622.106294 C319.929405,627.206008 322.479262,631.055751 323.779149,636.205894 L326.329005,641.305607 L326.329005,642.605494 L327.628892,645.155351 L330.178749,647.705207 L336.578349,651.554951 L344.277836,655.404694 L344.277836,656.704581 L348.12758,659.254438 L349.427467,664.354151 L349.427467,670.753752 C348.12758,678.453239 346.87761,687.402952 346.87761,695.051754 L345.577723,700.101423 L345.577723,705.201136 L344.277836,709.05088 L345.577723,715.45048 L344.277836,721.85008 C342.97795,726.949794 340.428093,730.799537 339.178123,735.949679 L337.878236,735.949679 L337.878236,741.049393 L339.178123,744.899136 L337.878236,747.448993 C336.578349,752.548707 336.578349,757.698337 335.328379,762.797794 L337.878236,764.097681 L339.178123,757.698081 L341.72798,758.997968 L340.428093,769.247312 L336.578349,767.947425 L335.278462,776.896882 L331.428719,781.996595 L336.528432,783.296482 L332.678689,787.146226 L331.378802,792.245939 L331.378802,801.195396 L332.678689,805.04514 L331.378802,808.894883 L332.678689,812.744627 L340.378176,820.444114 L344.227919,822.993971 L345.527806,822.993971 L345.527806,817.894257 L349.37755,815.3444 L350.677437,814.044514 L354.52718,814.044514 L351.977323,810.19477 L350.677437,803.79517 L351.977323,801.245313 L355.827067,798.695456 L358.376924,792.295856 L362.226667,789.745999 L363.526554,784.646286 L359.676811,783.346399 L355.827067,779.496655 L357.126954,775.646912 L359.676811,773.097055 L363.526554,773.097055 L364.826441,770.547198 L364.826441,765.447485 L371.175996,761.547697 L375.02574,760.24781 L373.725853,757.697953 L371.175996,758.99784 L368.62614,757.697953 L368.62614,752.59824 L369.926026,751.298353 L373.77577,752.59824 L377.625513,751.298353 L380.17537,749.998466 L377.575597,748.748496 L378.875483,744.898752 L377.575597,742.348896 L381.42534,742.348896 L389.124827,741.049009 L394.224541,738.499152 L398.074284,732.099552 L398.074284,729.549695 L395.524427,726.999838 L395.524427,724.449982 L391.674684,723.150095 L391.674684,720.600238 L394.224541,723.150095 L396.774397,723.150095 L400.624141,724.449982 L403.173998,724.449982 L405.723854,725.749869 L409.573598,723.200012 L410.873485,720.650155 L413.423341,718.100298 L414.723228,714.250555 L417.273085,711.700698 L419.822942,707.850955 L423.672685,700.151467 L426.222542,697.601611 L427.522429,695.051754 L428.822316,691.20201 L428.822316,686.102297 L431.372172,682.252553 L435.221916,679.702697 L439.071659,678.40281 L441.621516,677.102923 L446.72123,675.803036 L450.570973,675.803036 L451.87086,673.25318 L454.420717,671.953293 L454.420717,668.103549 L458.27046,663.003836 L458.27046,657.904122 L459.570347,656.604235 C459.570347,654.054379 460.870234,651.504522 460.870234,648.904748 L460.870234,642.505148 L462.170121,639.955291 L463.470007,639.955291 L466.019864,637.405435 L468.569721,633.555691 L473.669434,628.455978 L474.969321,625.906121 L476.269208,619.506521 C476.119201,615.656777 474.869231,613.056876 474.869231,611.807034 L474.870767,611.808569 Z M185.583237,222.687275 L177.88375,226.537018 L179.183636,230.386762 L184.28335,230.386762 L191.982837,229.086875 L198.382437,231.636732 L193.282724,232.936618 L188.18301,232.936618 L183.083297,234.236505 L181.733365,236.786362 L185.583109,244.485849 L188.132965,243.185962 L193.232679,245.735819 L195.782536,250.835532 C200.882249,249.535646 206.031879,249.535646 211.131337,248.285676 L217.530937,244.435932 L221.380681,244.435932 L227.780281,246.985789 L234.179881,248.285676 L235.479768,244.435932 L232.929911,240.586189 L239.329512,239.286302 L239.329512,234.186588 C235.479768,230.336845 230.380055,227.786988 226.530311,223.937245 C225.230424,217.537644 223.980454,211.138044 222.680568,204.738444 L218.830824,199.63873 L214.98108,197.088874 L212.431224,198.38876 L214.98108,211.187961 L213.681194,216.287674 L211.131337,204.788361 L207.281593,200.938617 L203.43185,207.338217 L198.332136,200.938617 L190.632649,204.788361 L191.932536,199.688647 L189.432724,198.38876 L179.18338,206.088247 L176.633524,211.187961 L174.083667,220.137418 L180.483267,222.687275 L185.583237,222.687275 Z M358.372444,235.486475 L355.822587,231.636732 L346.87313,227.786988 L343.023387,220.087501 L336.623786,222.637358 L336.623786,217.537644 L330.224186,211.188089 L322.524699,204.788489 L318.674956,209.888202 L310.975468,213.737946 L310.975468,206.038459 L304.575868,193.239258 L296.926298,198.388888 L294.376441,208.638232 L291.826585,200.938745 L294.376441,193.239258 L285.426984,197.089002 L281.577241,200.938745 L279.027384,211.188089 L280.327271,222.687403 L285.426984,222.687403 L281.577241,227.787116 L284.127097,231.63686 L290.526698,232.936746 L298.226185,235.486603 L311.025385,238.03646 L317.424986,236.736573 L318.724872,234.186716 L321.274729,238.03646 L323.824586,238.03646 L327.674329,244.43606 L325.124473,246.985917 L332.82396,250.83566 L337.923673,255.935374 L340.523447,263.634861 L335.423733,272.584318 L334.123847,276.434062 L335.423733,278.983918 L327.724246,280.283805 L321.324646,280.283805 L319.974714,286.683405 L322.524571,289.233262 L332.773915,287.983292 L332.773915,285.433435 C336.623658,287.983292 339.173515,290.533149 343.023259,293.132922 L341.723372,295.682779 L345.573115,299.532523 L353.272603,304.632236 L363.521946,307.182093 L363.521946,304.632236 C360.97209,300.782493 357.122346,296.932749 354.572489,293.132922 L363.521946,299.532523 L368.62166,302.082379 L369.921547,296.982666 L367.321773,287.983292 L366.021886,285.433435 L360.922173,281.583692 L357.072429,276.483978 L357.072429,271.384265 L362.172143,270.084378 L367.271856,279.033835 L371.1216,282.883579 L377.5212,272.634235 L378.821087,266.234635 L373.721373,266.234635 L368.62166,257.285178 L363.521946,254.735321 L354.522572,249.58569 L360.922173,244.485977 L358.372444,235.486475 Z M241.87924,191.989672 L238.079414,198.389272 L241.929157,206.088759 L234.22967,204.788873 L234.22967,208.638616 L243.179127,217.588073 L245.728984,221.437817 L249.578727,222.737703 L255.978328,218.88796 L257.278214,208.638616 L252.178501,203.538903 L256.028245,197.139302 L254.728358,193.289559 L248.328757,194.589446 L241.87924,191.989672 Z M259.827559,191.989672 L258.527672,197.089385 L258.527672,203.488986 L261.077529,213.73833 L264.927273,213.73833 L268.777016,204.788873 L272.62676,202.239016 L277.726473,190.739702 L271.326873,188.189845 L263.627386,188.189845 L259.827559,191.989672 Z M1103.2694,179.190471 L1116.06861,179.190471 L1118.61846,168.941128 L1105.81926,161.241641 L1096.8698,159.991671 L1091.77009,162.541527 L1090.4702,172.790871 L1098.16969,181.740328 L1103.2694,179.190471 Z M238.069046,157.44207 L234.219303,157.44207 L234.219303,168.941384 L240.618903,167.641497 L240.618903,175.340984 L244.468647,177.890841 L250.868247,176.590954 L252.168134,166.34161 L252.168134,158.642123 L249.618277,150.942636 L249.618277,153.492493 L243.168632,152.292568 L238.069046,157.44207 Z M200.921927,174.09127 L193.22244,180.49087 L193.22244,184.340614 L198.322153,184.340614 L207.27161,177.941014 L218.770924,175.391157 L221.32078,168.991557 L221.32078,161.292069 L217.471037,159.992183 L214.92118,162.542039 L213.721255,159.992183 L212.421368,152.292696 L208.571625,150.992809 L204.721881,156.092522 L209.821595,170.192122 L204.771926,168.942152 L198.372326,159.992695 L188.122982,154.892981 L184.273238,159.992695 L179.173525,174.092294 L184.273238,176.642151 L200.921927,174.09127 Z M784.59107,220.138954 L790.99067,222.688811 L792.290557,227.788524 L803.789871,229.088411 L806.339727,227.788524 L799.940127,218.839067 L798.64024,209.88961 C802.489984,202.190123 806.339727,193.24041 810.139554,185.591608 L821.638868,172.792407 C829.338355,167.692694 836.987669,163.84295 844.687668,158.692808 L847.237525,153.593094 L844.737713,148.493381 L838.338113,151.043238 L831.938512,156.142951 L819.139312,158.692808 L807.639998,167.642265 L799.940511,175.341752 L801.240398,181.741352 L792.290941,193.240666 L796.140684,194.540553 L788.441197,204.789897 L788.441197,211.189497 L784.591454,213.739354 L784.59107,220.138954 Z M264.917929,157.44335 L268.767673,163.84295 L268.767673,171.542437 L270.06756,179.241924 L279.017017,183.091668 L285.416617,184.391555 L293.116104,184.391555 L303.365448,181.841698 L308.465161,183.141585 L313.564875,180.591728 L316.114731,176.741984 L314.814845,170.342384 L310.965101,165.242671 L304.565501,163.942784 L296.866014,165.242671 L291.7663,167.792527 L286.666587,166.492641 L281.566873,166.492641 L279.017017,162.642897 L275.167273,158.793154 L276.46716,153.69344 L273.917303,148.593727 L267.517703,148.593727 L263.667959,143.494013 L255.968472,142.194126 L254.668585,148.593727 L258.518329,153.69344 L264.917929,157.44335 Z M227.820726,119.045748 L223.970983,124.145462 L231.67047,125.445348 L238.07007,130.545062 L244.469671,131.844949 L243.169784,125.445348 L240.619927,116.495891 L230.370583,110.096291 L223.970983,107.546434 L223.970983,115.245922 L227.820726,119.045748 Z M261.06921,106.246548 L267.46881,106.246548 L264.918953,111.346261 L264.918953,117.745861 L268.768697,125.445348 L276.468184,127.995205 L282.867784,126.695318 L289.267384,112.595719 L294.367098,107.496006 L290.517354,101.096405 L287.967498,86.996806 C284.117754,84.4469493 280.268011,81.8970926 276.468184,78.047349 L271.36847,65.2481485 L263.668983,66.5480353 L264.96887,71.6477488 L261.119127,72.9476356 L258.56927,79.3472358 L256.019413,88.2966929 L258.56927,97.2461499 L261.06921,106.246548 Z M277.71841,65.2993453 L280.268266,74.2488023 L286.667867,81.9482894 L299.467067,80.6484026 L307.166554,83.1982593 L302.066841,90.8977464 L299.516984,88.3478897 L289.26764,87.0480028 L290.567527,97.2973467 L295.667241,104.996834 L294.367354,111.396434 L287.967754,115.246178 L285.417897,121.645778 L291.817497,125.495521 L296.917211,136.994835 L287.967754,129.295348 L285.417897,130.595235 L286.717784,142.094549 L280.318183,145.944292 L280.318183,153.643779 L286.717784,154.943666 L291.817497,156.243553 L302.066841,153.693696 L311.016298,157.54344 L319.965755,148.593983 L319.965755,144.744239 L313.566155,144.744239 L313.566155,140.894496 L318.665868,135.794782 L319.965755,129.395182 L325.065468,124.295468 L328.915212,117.895868 L326.365355,108.946411 L328.915212,105.096668 L323.815498,102.546811 L334.064842,99.996954 L336.614699,96.1472105 L344.314186,92.297467 L350.713786,75.6482669 L357.113387,69.2486666 L366.062844,55.1490673 L358.363357,55.1490673 L362.2131,50.0493538 L371.162557,44.9496404 L380.112014,33.4503266 L380.112014,25.7508396 L373.712414,18.0513525 L366.062844,19.2012327 C357.113387,16.6513759 349.413644,15.3514891 340.464443,12.8016324 L330.215099,17.9013459 L328.915212,14.0516023 L317.415898,15.3514891 L311.016298,19.2012327 L305.916584,24.3009461 L303.366728,39.6497474 L299.516984,31.9502603 L295.667241,30.6503735 L290.567527,40.8997173 L282.86804,44.7995058 L279.018297,44.7995058 L273.918583,49.8992192 L275.21847,58.8486762 L277.71841,65.2993453 Z M515.809138,234.235993 L506.859681,234.235993 L510.709425,229.13628 L509.409538,221.436793 C511.959395,225.286536 514.509251,227.836393 517.109025,231.686137 L523.508625,229.13628 L522.208739,220.186823 L517.109025,213.787223 L511.959395,211.187449 L513.259282,208.637592 L520.958769,213.737306 L520.958769,208.637592 L515.809138,198.388248 L520.908852,198.388248 L526.008565,195.838392 L527.308452,191.988648 L523.458708,186.888935 L531.158196,185.589048 L526.058482,174.089734 L529.908226,172.789847 L528.608339,159.990647 L522.208739,152.29116 L528.608339,147.191446 L533.708052,145.891559 L529.858309,135.642216 L529.858309,116.443415 C532.408165,107.493958 534.958022,98.5450127 537.557796,89.5446149 L529.858309,88.2447281 L541.357622,84.3949846 L543.907479,79.2952711 L558.007079,62.646071 L555.457222,52.3967272 L545.207878,47.2970138 L527.309476,57.5463576 L518.360019,66.4958146 L522.209762,52.3962153 L518.360019,44.7966899 L511.960419,52.496177 L501.711075,43.54672 L488.911874,46.0965767 L486.362018,42.2468332 C497.861331,40.9469464 508.110419,39.6969765 519.660418,38.3970897 L526.060018,28.1477458 L504.311616,3.84974354 L476.163615,0 L463.364414,2.54985673 L458.264701,14.0491705 L445.4655,12.7492837 L433.966186,30.6476857 L433.966186,42.1469994 L442.915643,56.2465988 L435.216156,48.5471117 L430.116443,45.9972549 L421.166986,35.7479111 L412.217529,49.8475104 L408.367785,42.1480234 L396.868471,42.1480234 L385.369158,45.9977669 L376.419701,52.3973672 L377.719588,63.8966809 L372.619874,66.4465376 L359.820674,81.7953389 L357.270817,90.7447959 L367.520161,98.444283 L366.220274,106.14377 C357.270817,112.54337 348.321872,117.643084 339.321474,124.042172 L339.321474,130.441772 L347.020961,136.841373 L362.369762,140.691116 L354.670275,141.991003 L345.570812,147.190678 L351.970412,157.440022 L355.820155,162.539736 C362.219756,161.239849 367.319469,161.239849 373.718557,161.239849 L381.418045,162.539736 L390.367502,171.489193 L390.367502,177.888793 L395.467215,182.988506 C398.017072,190.687993 400.566928,198.337308 403.166702,206.037307 L405.716559,211.13702 L401.866815,221.386364 L404.416672,223.936221 L408.266416,222.636334 C410.816272,226.486077 414.666016,230.335821 417.215873,232.885678 L409.566302,227.836009 L405.716559,227.836009 L404.416672,232.935722 L404.416672,240.63521 L408.266416,244.484953 L412.116159,243.185066 C414.666016,241.885179 415.965903,239.335323 418.515759,238.085353 L417.215873,245.78484 L417.265789,249.584667 L412.166076,253.43441 L408.316332,264.933724 L410.866189,268.783467 L409.566302,275.183068 L414.666016,282.882555 L414.666016,290.582042 L415.965903,295.681755 L422.365503,305.931099 L424.91536,313.630586 L428.765103,317.48033 L436.46459,317.48033 L441.564304,323.87993 L446.664017,323.87993 C447.963904,320.030186 449.213874,314.930473 450.513761,311.080729 L447.963904,302.081228 L454.363504,295.681627 L455.663391,290.581914 L455.663391,284.182314 L458.213248,279.0826 C462.062991,277.782713 464.612848,276.532743 468.462592,275.232857 L471.012448,275.232857 L478.711935,268.833256 L483.811649,258.583912 L487.661392,254.734169 L491.511136,254.734169 L501.76048,250.884425 L512.009824,243.184938 L520.959281,234.235481 L515.809138,234.235993 Z M1273.50901,266.233995 L1263.25967,264.934108 L1264.55955,271.333708 L1262.0097,268.783851 L1262.0097,263.684138 L1253.06024,254.734681 L1246.6106,249.585051 L1242.76085,245.735307 L1238.91111,243.18545 L1228.71168,238.085737 L1221.01219,238.085737 L1209.51288,235.53588 L1208.21299,240.635594 L1210.76285,247.035194 L1206.96302,249.585051 L1200.56342,240.635594 L1194.16382,241.93548 L1187.76422,239.385624 L1181.36462,239.385624 L1176.26491,241.93548 L1172.41517,239.385624 L1172.41517,231.686137 L1169.86531,227.836393 L1162.16582,226.536506 L1148.06622,229.086363 L1139.11677,220.136906 L1136.56691,213.737306 L1104.56891,206.037819 L1099.46919,211.137532 L1102.01905,221.386876 L1095.61945,220.086989 L1093.06959,222.636846 L1086.66999,218.787102 L1080.27039,221.336959 L1075.17068,216.237245 L1071.32094,227.736559 L1063.62145,223.986777 L1058.52174,215.03732 L1061.07159,209.937607 L1059.77171,202.23812 L1053.37211,195.83852 L1048.27239,195.83852 L1040.5729,193.288663 L1040.5729,202.23812 L1025.2241,200.938233 L1023.92422,194.538633 L1012.4249,191.988776 L1007.32519,194.538633 L1006.0253,198.388376 L1004.72542,190.688889 L1000.87567,193.238746 L995.775959,189.389002 L991.926215,188.089116 L994.476072,184.239372 L1003.42553,176.539885 L1007.27527,172.690142 L1008.57516,164.990654 L1006.0253,159.890941 L998.325816,152.191454 L988.076472,152.191454 L984.226728,156.041197 L982.976758,147.191702 L975.277271,144.641845 L980.376985,140.792102 L973.977384,135.692388 L965.027927,142.091989 L961.178184,148.491589 L959.878297,154.891189 L953.478697,154.891189 L945.77921,162.590676 L943.279398,159.990903 L934.329941,161.29079 L933.030054,165.140533 L924.080597,167.69039 L917.680997,174.08999 L913.831253,174.08999 L909.98151,183.039447 L912.531366,189.439047 L904.831879,190.738934 L895.882422,190.738934 L889.482822,193.288791 L889.482822,206.087991 L892.032679,216.337335 L885.683123,211.187705 L877.983636,211.187705 L871.584036,216.287418 L872.883923,223.986905 L869.034179,221.437049 L870.334066,209.937735 L869.034179,203.538135 L867.734292,203.538135 L869.034179,212.487592 L862.634579,220.187079 L867.734292,229.136536 L865.184436,239.38588 L866.484323,244.485593 L870.334066,245.78548 L869.034179,252.18508 L871.584036,257.284794 L869.034179,261.134537 L867.734292,266.234251 L863.884549,268.784107 L862.584662,272.633851 L858.734919,271.333964 L865.134519,258.534764 L866.434406,252.135163 L862.584662,245.735563 L863.884549,231.635964 L862.584662,223.936477 L857.534994,221.436665 L861.384737,212.487208 L860.08485,206.087607 L851.135393,202.237864 L848.585537,204.787721 L846.03568,215.037064 L839.63608,225.286408 L839.63608,229.136152 L840.935966,236.835639 L839.63608,241.935352 L843.485823,243.235239 L843.485823,245.785096 L847.335567,250.884809 L844.78571,255.984523 L831.986509,244.485209 L826.886796,241.935352 L816.637452,239.385496 L815.337565,243.235239 L819.187309,249.634839 L815.337565,256.03444 L811.487822,249.634839 L806.388108,253.484583 L799.988508,253.484583 L797.438651,257.334327 L793.588908,256.03444 L797.438651,249.634839 L794.888795,249.634839 C788.489194,253.484583 782.089594,258.584296 774.389595,262.43404 L773.089708,268.83364 L767.989995,271.383497 L765.440138,268.83364 L765.440138,263.733927 L770.539851,262.43404 L767.989995,257.334327 L757.740651,254.78447 L760.290508,261.18407 L756.440764,262.383995 L758.990621,267.483709 L756.440764,273.883309 L752.59102,271.333452 L748.741277,271.333452 L742.341677,279.032939 L744.891533,285.432539 L742.341677,287.982396 L733.39222,282.882683 L730.842363,285.432539 L733.39222,289.282283 L733.39222,293.132027 L729.542476,290.532253 L725.692733,287.982396 L725.692733,275.183196 L719.293132,268.783595 L721.842989,267.483709 L737.19179,273.883309 L743.591391,271.333452 L747.441134,266.233739 L747.441134,259.834138 L744.891277,255.984395 L730.791678,244.485081 L720.542334,241.935224 L714.142734,235.535624 L710.29299,239.385368 L706.443247,232.985767 L711.54296,230.435911 L701.393578,223.986265 L694.993978,226.536122 L688.594378,226.536122 L683.494664,235.485579 L677.095064,235.485579 L669.395577,240.585293 C664.295864,246.984893 659.146233,253.384493 654.046776,261.084492 C648.947062,271.333836 643.797432,280.283293 638.697974,290.532893 L630.998487,299.48235 L622.04903,305.88195 L618.199287,310.981664 L619.499174,327.630864 L620.79906,335.330351 L625.898774,339.180094 L630.998487,337.880207 L638.697974,330.18072 L641.247831,334.030464 L643.797688,342.979921 L646.347545,350.679408 L647.647431,357.079008 L651.497175,357.079008 L654.047032,351.979295 L657.896775,351.979295 L660.446632,345.579695 L661.746519,334.080381 L665.596262,332.780494 L669.446006,325.081007 L665.596262,321.231263 L663.046406,316.13155 L665.596262,305.882206 L671.995863,299.482606 L677.095576,293.083006 L677.095576,287.983292 L680.94532,281.583692 L687.34492,279.033835 L692.444633,282.883579 L692.444633,286.733322 L689.894777,288.033209 L682.19529,296.982666 L678.345546,302.082379 L677.045659,307.182093 L678.345546,313.581693 L677.045659,321.28118 L680.895403,323.831037 L683.445259,327.680781 L689.84486,326.380894 L696.24446,323.831037 L702.64406,323.831037 L706.493804,327.680781 L700.094204,326.380894 L696.24446,326.380894 L692.394716,325.081007 L688.59489,326.380894 L683.495176,328.93075 L683.495176,332.780494 L686.045033,335.330351 L687.34492,334.030464 C687.34492,336.580321 686.045033,340.430064 686.045033,342.979921 L683.495176,342.979921 L680.94532,337.880207 L678.345546,340.479981 L677.045659,344.329725 L677.045659,349.429438 L678.345546,354.529152 L673.245833,357.079008 L671.945946,359.628865 L668.096202,359.628865 L668.096202,358.328978 L664.246459,357.029091 C660.396715,358.328978 657.846858,360.878835 653.997115,362.128805 L651.447258,363.428692 L650.147371,360.878835 L646.297628,358.328978 L643.747771,359.628865 L639.947944,362.228639 L639.947944,359.678782 L636.098201,358.378895 L636.098201,355.829038 L634.848231,351.979295 L637.398088,346.879581 L638.697974,348.179468 L639.997861,345.629611 L637.448005,344.329725 L637.448005,343.029838 L638.747891,340.479981 L638.747891,336.630238 L636.098073,339.180094 L634.798186,340.479981 L632.248329,340.479981 L630.948442,343.029838 L630.948442,350.729325 L632.248329,354.579068 L632.248329,358.428812 L633.548216,360.978669 L629.698473,364.778495 L628.398586,363.478609 L625.848729,363.478609 L625.848729,364.778495 L623.298872,364.778495 L618.199159,367.328352 L614.349415,376.277809 L613.049528,377.577696 C610.499672,378.877583 609.199785,378.877583 606.649928,380.127553 L605.350041,385.227266 L597.650554,389.07701 L593.800811,386.527153 L595.100698,392.926753 L588.751142,390.376896 L583.651429,391.676783 L583.651429,395.526527 L588.751142,398.076384 L591.300999,400.62624 L595.150742,405.725954 L595.150742,415.975298 L593.850856,418.525154 L584.901399,418.525154 L581.051655,417.225267 L575.951942,417.225267 L572.102198,415.925381 L567.002485,419.775124 L568.302371,422.324981 L568.302371,427.474611 L569.602258,428.774498 L569.602258,431.324355 L568.302371,433.874212 L568.302371,435.174098 L567.002485,436.473985 L567.002485,439.023842 L568.302371,440.323729 L569.602258,440.323729 L569.602258,446.723329 L572.202032,446.723329 L573.501919,445.423442 L577.351662,446.723329 L578.651549,449.273186 L579.951436,450.573073 L581.251323,450.573073 L582.551209,449.273186 L585.101066,447.973299 L592.800553,447.973299 L595.35041,444.123555 L597.900267,442.823669 L599.200154,440.273812 L601.549959,441.573699 L600.250072,439.023842 L601.549959,435.174098 L604.099815,432.624242 L604.099815,431.324355 L609.199529,430.024468 L613.049272,427.474611 L613.049272,422.374898 L618.148986,421.075011 L625.848473,422.374898 L629.698217,419.825041 L630.998103,419.825041 L634.847847,415.975298 L637.397704,417.275184 L638.69759,417.275184 L639.997477,422.374898 L642.547334,424.924755 L646.397078,427.474611 L648.946934,430.024468 L651.496791,430.024468 L652.796678,431.324355 L655.346535,432.624242 L656.646421,435.174098 L657.946308,435.174098 C659.246195,436.473985 659.246195,439.023842 660.496165,440.273812 L657.846346,441.573699 L656.54646,444.123555 L656.54646,445.423442 L657.846346,445.423442 L659.146233,441.573699 L660.44612,441.573699 L660.44612,439.023842 L657.896263,437.723955 L659.19615,435.174098 L661.746007,436.473985 L664.295864,439.023842 L665.59575,437.723955 L665.59575,436.424068 L663.045894,433.874212 C660.496037,432.574325 659.19615,431.324355 656.646293,431.324355 L657.94618,430.024468 L656.646293,428.724581 L654.096437,428.724581 L650.246693,424.874838 L648.946806,421.025094 L645.047018,415.975426 L643.747131,413.425569 L643.747131,409.575825 L646.296988,408.275938 L648.846845,409.575825 L647.546958,409.575825 L647.546958,410.875712 L648.846845,412.175599 L650.146731,409.625742 L652.696588,410.925629 L652.696588,412.225516 L653.996475,414.775372 L652.696588,414.775372 L655.246445,418.625116 L659.096188,419.925003 L661.646045,421.22489 C662.945932,422.524776 665.495789,422.524776 666.745759,423.774746 L668.045645,425.074633 L669.345532,425.074633 L669.345532,434.074007 L671.895389,435.373894 L671.895389,437.973667 C673.195276,439.273554 674.445246,440.523524 675.745132,443.073381 L675.745132,445.623238 L677.045019,449.472981 L679.594876,452.022838 L682.144733,452.022838 L680.844846,448.173094 L683.394703,448.173094 L682.094816,445.623238 L685.944559,446.923124 L685.944559,444.373268 L682.094816,440.523524 L683.394703,439.223637 L680.794929,434.123924 L682.094816,432.824037 L683.394703,435.373894 L685.944559,435.373894 L687.244446,434.074007 L684.694589,431.52415 L688.544333,430.224264 L692.394076,430.224264 L692.394076,431.52415 L693.693963,434.074007 C694.99385,432.77412 696.24382,431.52415 698.793677,430.224264 L702.64342,430.224264 L703.943307,428.924377 L701.39345,427.62449 L701.39345,426.324603 L700.093564,423.774746 L701.39345,419.925003 L702.693337,417.375146 L703.993224,410.975546 L705.293111,410.975546 L706.592998,409.675659 L706.592998,408.375772 L709.142854,404.526029 L710.442741,401.976172 L714.292485,400.676285 L714.292485,403.226142 L719.392198,404.526029 L720.692085,405.825915 L716.74238,408.27581 L716.74238,409.575697 L720.592123,410.875584 L719.292236,413.425441 L721.842093,414.725328 L726.941807,412.175471 L730.79155,410.875584 L732.091437,409.575697 L728.241693,409.575697 L726.941807,408.27581 L726.941807,405.725954 L729.491663,403.176097 L733.341407,403.176097 L735.891264,401.87621 L738.44112,401.87621 L742.290864,400.576323 L742.290864,401.87621 L734.641294,403.176097 L737.19115,405.725954 L734.641294,409.575697 L732.091437,410.875584 L734.641294,413.425441 L738.491037,414.725328 L743.590751,418.575071 L744.890637,419.874958 L747.440494,419.874958 L749.990351,421.174845 L751.290238,425.024588 L751.290238,427.574445 L747.440494,430.124302 L744.890637,430.124302 L741.040894,431.424189 L732.091437,428.77437 L725.691837,424.924627 L719.292236,424.924627 L716.74238,427.474483 L712.892636,430.02434 L706.493036,430.02434 L703.943179,433.874084 L698.843466,433.874084 L694.993722,437.723827 L697.543579,440.273684 L696.243692,444.123427 L698.793549,446.673284 L701.343405,450.523028 L705.193149,450.523028 L709.042893,453.072884 L711.592749,453.072884 L712.892636,451.772998 L716.74238,451.772998 L719.292236,454.322854 L724.39195,454.322854 L726.941807,451.772998 L729.491663,453.072884 L732.04152,453.072884 L730.741633,454.372771 L729.541708,454.372771 L728.241821,455.672658 L728.241821,459.522402 L726.941935,462.072258 L725.642048,465.922002 L725.642048,467.221889 L723.042274,472.321602 L720.442373,474.921376 L717.892516,474.921376 L715.342659,473.621489 L714.042772,474.921376 L712.742885,472.371519 L707.643172,472.371519 L706.343285,473.671406 L703.943435,476.121301 C701.393578,474.821414 698.843722,473.571444 694.993978,473.571444 L689.894265,473.571444 L688.594378,472.271557 L684.744634,472.271557 L683.444747,470.97167 L682.144861,470.97167 L680.844974,469.671784 L677.045275,467.171972 L674.495418,467.171972 L671.945562,469.721828 L670.645675,472.271685 L671.945562,476.121429 L669.345788,478.721202 L665.545961,476.121429 L660.446248,474.821542 L656.596504,473.521655 L655.296618,469.671912 L650.196904,468.372025 L647.647047,467.1721 L646.347161,467.1721 L642.497417,465.872213 L639.94756,465.872213 L639.94756,463.322356 L638.647674,463.322356 L637.347787,460.772499 L639.897643,458.222643 L639.897643,454.372899 L638.647802,454.372899 L638.647802,451.823042 L639.947688,449.273186 L639.947688,447.973299 L637.397832,449.273186 L637.397832,446.723329 L634.847975,446.723329 L630.998231,448.023216 L628.448375,448.023216 L627.148488,449.273058 L623.298744,449.273058 L619.449001,450.572945 L618.149114,449.273058 C614.29937,449.273058 610.449627,449.273058 606.6498,450.572945 L602.800057,451.872831 L600.2502,454.372643 L596.400456,455.67253 L592.550713,458.222387 L591.250826,458.222387 L587.401083,456.9225 L583.551339,456.9225 L582.351414,454.372643 L579.801557,454.372643 L578.50167,456.9225 L575.951814,462.07213 L573.401957,463.372017 L569.552213,465.921874 L567.002357,468.471731 L567.002357,471.021587 L565.70247,474.871331 L567.002357,479.971044 L563.152613,482.520901 L559.30287,486.370645 L555.453126,486.370645 L554.153239,487.670531 L551.653427,492.770245 L549.103571,494.070132 L547.803684,496.619988 L547.803684,499.169845 L546.503797,501.719702 L545.20391,501.719702 L542.654053,504.269559 L541.354167,506.819415 L541.354167,508.119302 L540.05428,510.669159 L538.754393,511.969046 L538.754393,515.818789 L541.354167,518.418563 L541.354167,528.717951 L541.404084,531.167846 L541.404084,533.717703 L540.104197,535.01759 L538.80431,537.567447 L537.554468,538.867334 L538.854355,540.16722 L540.154242,542.717077 L540.154242,547.866707 L542.754015,550.466481 L544.053902,550.466481 L545.353789,551.766368 L546.653676,551.766368 L546.653676,554.366141 L547.953562,555.666028 L549.253449,555.666028 L550.553336,556.965915 L551.853223,559.515772 L551.853223,563.365515 L553.15311,565.915372 L555.702966,567.215259 L557.002853,567.215259 L562.102567,572.314972 L565.95231,574.864829 L569.802054,576.164716 L572.401827,576.164716 C574.951684,574.864829 576.251571,574.864829 578.801428,573.614859 L585.201028,573.614859 L587.750885,574.914746 L589.050771,574.914746 L591.600628,576.214633 L595.450372,574.914746 L598.000228,573.614859 L603.099942,571.065002 L605.649799,569.765116 L608.199655,569.765116 L614.599256,569.765116 L617.149112,572.314972 L619.748886,577.414686 L622.298743,577.414686 L623.59863,576.114799 L624.898516,576.114799 L628.74826,574.814912 L628.74826,576.114799 L630.048147,576.114799 L631.348034,577.414686 L632.64792,577.414686 L633.947807,579.964543 L633.947807,582.514399 L632.64792,586.364143 L633.947807,586.364143 C633.947807,587.66403 632.64792,590.213886 632.64792,591.463856 L632.247945,595.163593 L632.247945,596.46348 L634.797802,600.313224 L641.197402,606.712824 L643.747259,610.562567 L645.047146,613.112424 L645.047146,615.712198 L646.347033,618.262054 C646.347033,620.811911 647.646919,622.111798 647.646919,624.661655 L646.347033,625.961541 L646.347033,627.261428 C646.347033,628.561315 647.646919,629.811285 647.646919,631.111172 L648.946806,632.411059 L648.946806,637.510772 L643.797176,642.660402 L642.497289,646.510146 L642.497289,647.810033 L641.197402,651.659776 L641.197402,655.50952 L641.197402,660.609233 L643.747259,664.458977 L645.047146,667.008834 L646.347033,672.108547 L647.646919,674.658404 L648.946806,675.958291 L648.946806,683.607861 L650.246693,690.007461 L651.54658,692.557318 L652.846467,696.407061 L654.146353,698.956918 L656.69621,701.506775 C659.246067,705.356518 660.545954,710.456232 663.095811,714.305975 L663.095811,718.155719 L661.795924,719.455606 L663.095811,722.005462 L663.095811,725.855206 L664.395697,728.405063 L665.695584,728.405063 L666.995471,729.70495 L668.295358,729.70495 L673.395071,727.105176 L677.244815,725.805289 L681.094558,725.805289 L684.944302,727.105176 L686.244189,725.805289 L688.794045,725.805289 L688.794045,724.505402 L690.093932,724.505402 L693.943676,723.205515 L696.493532,720.655659 C699.043389,718.105802 700.343276,715.555945 702.893133,714.256058 L705.442989,711.706202 L708.042763,706.606488 C709.34265,705.306601 710.59262,705.306601 710.59262,704.056632 L716.742252,697.55707 L716.742252,693.707326 L718.042138,691.157469 L718.042138,688.607613 L716.742252,688.607613 L716.742252,687.307726 L718.042138,686.007839 C720.591995,684.707952 723.141852,683.457982 725.741626,682.158095 L727.041512,680.858209 L727.041512,679.558322 L725.741626,678.258435 L725.741626,671.80879 L723.141852,666.709076 L723.141852,664.15922 L732.141226,655.159846 C734.691083,653.859959 737.240939,652.609989 739.840713,651.310102 L742.39057,648.760245 L744.990343,643.660532 L744.990343,628.261814 L743.690456,626.961927 L742.340525,624.612122 L741.040638,622.062265 L741.040638,619.462491 L742.340525,616.912635 L742.340525,615.612748 L739.790668,614.312861 L739.790668,611.763004 L741.090555,607.913261 L742.340397,607.963306 L743.640284,605.413449 L744.94017,604.113562 L744.94017,601.563705 L746.240057,601.563705 L747.539944,600.263819 L750.089801,598.963932 L756.539446,592.514287 L760.389189,589.96443 L765.488903,586.114686 L769.338646,583.56483 C771.888503,581.014973 774.43836,577.165229 777.038133,574.615373 L779.58799,569.515659 C780.887877,566.965802 782.137847,564.415946 783.437734,560.566202 L784.737621,556.716459 L786.037507,555.416572 L786.037507,550.266941 L784.737621,550.266941 L780.73787,550.366903 L778.138097,550.366903 L775.58824,550.366903 L774.288353,551.66679 L772.988466,551.66679 L770.43861,552.966677 L766.588866,552.966677 L762.739123,554.266564 L761.439236,554.266564 L758.839334,551.666662 C757.539447,551.666662 757.539447,550.366775 756.289477,550.366775 L758.839334,549.066888 L758.839334,547.767002 L755.139597,546.517032 L753.83971,545.217145 C752.539824,543.917258 749.989967,541.367401 748.739997,540.117431 L742.340397,536.267688 L739.79054,534.967801 L739.79054,531.167974 L737.240683,527.318231 C735.940796,526.018344 734.690827,526.018344 733.39094,524.768374 L732.091053,519.668661 L732.091053,515.818917 L733.39094,514.51903 L732.091053,510.669287 L732.091053,509.3694 L728.241309,505.519656 L728.241309,502.9698 L729.541196,501.669913 L725.691453,497.820169 L723.091679,492.720456 L720.541822,486.320856 L717.991966,482.471112 L715.442109,479.9713 L717.991966,486.370901 C719.291852,487.670787 719.291852,488.920757 720.541822,488.920757 L721.841709,487.62087 L724.441483,482.521157 L725.74137,481.22127 L725.74137,486.370901 L727.041256,486.370901 C728.341143,488.920757 729.591113,490.220644 730.891,492.770501 L732.190887,495.320358 L733.490774,496.620244 L734.79066,499.170101 L734.79066,500.469988 L736.090547,503.019845 L738.640404,504.319731 L739.940291,505.619618 L742.490147,509.469362 L742.490147,514.569075 L745.040004,518.418819 L746.339891,518.418819 L748.889748,520.968675 L751.489521,526.068389 L752.789408,527.368276 L752.789408,528.668163 L754.089295,529.968049 L754.089295,535.167725 L752.789408,535.167725 L754.089295,536.467611 L755.389182,539.017468 L755.389182,542.867212 L756.689069,545.417068 L761.838699,545.417068 L761.838699,544.117182 L763.138586,544.117182 L764.438472,542.817295 L768.288216,542.817295 L773.387929,540.217521 L775.987703,540.217521 L778.53756,537.667664 L783.637273,536.367778 L787.487017,535.067891 L787.487017,533.768004 L788.786904,532.468117 L791.33676,531.16823 L792.636647,531.16823 L795.186504,529.868344 L797.736361,529.868344 L799.036247,528.568457 L799.036247,527.26857 L800.336134,525.968683 L802.885991,525.968683 L804.185878,524.668796 L804.185878,523.36891 L806.735735,522.069023 L808.035621,522.069023 L808.035621,516.969309 L809.335508,515.669422 L810.635395,515.669422 L811.935282,513.119566 L813.235169,511.819679 C813.235169,510.519792 814.535055,509.269822 814.535055,507.969935 L814.535055,506.670049 L813.235169,506.670049 C811.935282,505.370162 811.935282,504.120192 810.685312,502.820305 L808.135455,501.520418 L805.585598,501.520418 L803.035742,500.220531 L801.735855,497.670675 L801.735855,492.521044 L800.435968,493.820931 C797.886111,496.370788 795.336255,498.920645 792.736481,501.520418 L787.636767,501.520418 L785.086911,501.520418 L785.086911,500.220531 L783.787024,498.920645 L785.086911,496.370788 L785.086911,493.820931 L783.787024,492.521044 L782.487137,492.521044 L781.18725,495.070901 L781.18725,497.620758 L781.18725,495.020984 L780.737358,496.620884 L780.737358,492.721096 L778.187502,491.421209 L778.187502,490.121322 L776.887615,488.821435 C775.587728,486.271579 775.587728,484.971692 774.337758,482.421835 L774.337758,481.121948 L771.787901,479.972068 L774.337758,479.972068 L775.637645,478.672181 L778.187502,479.972068 L780.737358,478.672181 L783.287215,483.771895 L785.837072,487.621638 L789.686815,488.921525 L793.536559,491.471382 L797.386303,492.771269 L801.236046,490.221412 L803.785903,488.921525 L805.08579,490.221412 L806.385676,495.321125 L810.23542,495.321125 C814.085163,496.621012 817.934907,496.621012 820.484764,497.870982 L831.984077,497.870982 L838.383678,496.571095 L840.933534,499.120952 L842.233421,501.670809 L844.783278,502.970696 L849.932908,508.120326 L848.633022,509.420213 L853.732735,514.519926 L856.282592,514.519926 L861.382305,511.97007 L862.682192,515.819813 L862.682192,520.919527 C863.982079,524.76927 863.982079,528.619014 865.232049,532.41884 L869.081792,537.518554 L869.081792,540.06841 L870.381679,545.168124 L871.681566,549.017867 L872.981453,550.317754 C874.28134,552.867611 875.531309,556.717355 875.531309,559.267211 L879.381053,563.116955 L880.68094,561.817068 L881.980827,559.267211 L885.83057,557.967325 L884.530683,556.667438 L885.83057,554.117581 L887.130457,554.117581 L887.130457,547.717981 L888.430344,543.868237 L888.430344,541.31838 L887.130457,536.218667 L888.430344,533.66881 L889.730231,533.66881 L893.579974,532.368923 L894.879861,531.069037 L894.879861,529.76915 L898.729604,527.219293 L905.129205,520.819693 L910.228918,518.269836 L911.528805,515.719979 L911.528805,513.170123 L915.378549,511.870236 L917.928405,511.870236 L917.928405,510.570349 L920.528179,510.570349 L920.528179,509.270462 L921.828066,510.570349 L923.127952,508.020492 L923.127952,506.720605 L926.977696,506.720605 L928.277583,509.270462 L929.57747,510.570349 L929.57747,513.120206 L930.877356,515.670062 L933.427213,518.219919 L935.97707,518.219919 L935.97707,519.519806 L938.526927,523.36955 L939.826813,527.219293 L938.526927,532.319007 L941.076783,533.618893 L943.62664,533.618893 L947.476384,531.069037 L950.02624,529.76915 L951.326127,532.319007 L952.626014,537.41872 L953.925901,541.268464 L955.225788,542.56835 L955.225788,546.418094 L956.525674,548.967951 L955.225788,551.517807 L955.225788,554.067664 L953.925901,557.917408 L953.925901,560.467264 L955.225788,563.017121 L955.225788,560.467264 L959.075531,564.317008 L959.075531,565.616895 L961.675305,568.216668 L961.675305,570.766525 L962.975192,573.316382 L962.975192,575.866239 L965.525048,578.416095 L965.525048,579.715982 L973.224535,584.815696 L975.774392,584.815696 L975.774392,583.515809 L971.424712,582.365929 L970.174742,582.365929 L970.174742,574.666441 L968.874855,572.116585 L966.324998,569.566728 L965.025112,569.566728 L963.725225,568.266841 L961.175368,568.266841 L959.925398,565.716984 L958.625511,563.167128 L957.325624,559.317384 L954.775768,559.317384 L954.775768,556.767527 C956.075655,554.217671 957.325624,551.667814 957.325624,547.81807 L957.325624,543.968327 L959.875481,543.968327 L959.875481,546.518184 L962.425338,546.518184 L966.275081,547.81807 L967.574968,551.667814 L968.874855,552.967701 L971.424712,552.967701 L973.974569,555.517558 L972.674682,558.067414 L973.974569,560.617271 L980.374169,554.217671 L984.223912,551.667814 L986.773769,549.117957 L986.773769,542.718357 L985.473882,536.318757 L982.924026,533.7689 L984.223912,531.169126 C981.674056,528.61927 980.374169,524.769526 977.824312,522.219669 L979.124199,519.669813 L981.674056,515.820069 L986.773769,511.970326 L988.073656,511.970326 L993.173369,513.270212 L991.873483,514.570099 L993.173369,517.119956 L995.723226,517.119956 L997.023113,513.270212 L1000.87286,513.270212 L1005.97257,510.720356 L1008.52243,509.420469 L1009.82231,510.720356 L1012.37217,509.420469 L1016.22191,509.420469 C1020.07166,506.870612 1022.62151,504.320755 1026.47126,503.020869 L1030.321,497.921155 C1031.62089,494.071412 1034.17074,491.521555 1035.42071,488.971698 L1037.97057,488.971698 L1039.27046,485.121955 L1039.27046,481.272211 L1036.7206,479.972324 L1035.42071,477.422467 L1037.97057,476.122581 L1037.97057,473.572724 L1032.87086,465.873237 L1031.57097,462.023493 L1027.72123,459.473637 L1029.02111,456.92378 L1032.87086,454.373923 L1034.17074,451.824066 L1039.27046,450.52418 L1039.27046,447.974323 L1036.7206,447.974323 L1034.17074,446.674436 L1030.321,450.52418 L1027.77114,449.224293 L1027.77114,446.674436 L1025.22129,445.374549 L1020.07166,441.574723 L1021.37154,439.024866 L1025.22129,439.024866 L1031.62089,432.625266 L1034.17074,431.325379 L1035.47063,433.875235 L1032.92077,436.425092 L1034.22066,437.724979 L1032.92077,440.274836 L1036.77052,438.974949 L1039.32037,436.425092 L1044.42009,435.125205 L1045.71998,436.425092 L1048.26983,436.425092 L1048.26983,437.724979 L1048.21992,441.574723 L1048.21992,442.874609 L1046.92003,442.874609 L1045.62014,445.424466 L1046.92003,446.724353 L1048.21992,446.724353 L1048.21992,448.02424 L1049.5198,448.02424 L1049.5198,446.724353 L1050.81969,448.02424 L1053.36955,451.873983 L1050.81969,453.17387 L1052.11958,458.273584 L1050.81969,462.123327 L1050.81969,464.673184 L1054.66943,464.673184 L1057.21929,463.373297 L1061.06903,462.07341 L1062.36892,459.523553 L1062.36892,454.42384 L1062.31887,447.974195 L1059.76902,441.574595 L1055.91927,437.724851 L1055.91927,435.174994 L1057.21916,433.875107 L1059.76902,432.575221 L1061.0689,431.275334 L1061.0689,429.975447 L1062.36879,428.67556 L1062.36879,424.825817 L1064.96856,422.226043 L1066.26845,422.226043 L1066.26845,420.926156 L1071.36817,417.076413 L1073.91802,419.626269 L1076.46788,419.626269 L1081.56759,417.076413 C1085.41734,411.976699 1089.26708,406.827069 1093.06691,402.976813 L1094.36679,399.12707 L1099.46651,391.427583 L1100.76639,382.478126 L1100.76639,376.078526 L1103.31625,369.678925 L1103.31625,364.579212 L1100.71648,360.929392 L1096.86673,360.929392 L1094.31688,363.479249 L1090.46713,362.179362 L1089.16725,358.329618 L1084.06753,357.029731 C1093.01699,348.080274 1100.71673,337.830931 1109.66593,328.88173 L1121.16525,326.331873 L1132.66456,327.63176 L1136.5143,323.782016 L1141.61402,325.081903 L1141.61402,330.181616 L1146.71373,328.88173 L1154.41322,327.581843 L1151.91341,323.832061 L1160.86286,311.03286 L1169.81232,308.483004 L1172.36218,317.432461 L1181.31163,308.483004 L1183.86149,302.083403 L1187.71123,300.783517 L1185.21142,313.582717 L1178.81182,319.982317 C1174.96208,325.082031 1169.86237,330.231661 1166.01262,335.331119 L1160.91291,336.631006 L1160.91291,339.180862 L1158.36305,343.030606 L1157.06316,351.980063 C1158.36305,359.67955 1159.61302,367.328864 1160.91291,373.728464 L1162.21279,377.578208 L1167.31251,372.478494 L1168.6124,366.078894 L1173.71211,364.779007 L1175.012,358.379407 L1177.56185,357.07952 L1181.4116,355.779633 L1180.11171,353.229777 L1181.4116,348.130063 L1185.26134,348.130063 L1185.26134,339.180606 L1181.4116,337.880719 L1181.4116,335.330863 L1185.26134,328.931262 L1186.56123,323.831549 L1191.66094,325.131436 L1195.51068,322.581579 L1196.81057,325.131436 L1205.76003,320.031722 L1210.85974,325.131436 L1212.15963,321.281692 C1216.00937,318.731836 1219.85911,314.882092 1222.40897,311.032348 L1224.95883,309.732462 L1235.20817,304.632748 L1241.60777,305.932635 L1242.90766,303.382778 L1242.90766,299.533035 L1241.60777,296.983178 L1239.05792,290.583578 L1235.20817,286.733834 L1240.30788,286.733834 L1245.45752,281.584204 L1246.7574,279.034347 L1245.45752,275.184604 L1249.30726,272.634747 L1248.00737,276.48449 L1250.55723,279.034347 L1254.40697,277.73446 L1258.25672,279.034347 L1259.5566,282.884091 L1264.65632,285.433947 L1267.20617,287.983804 L1271.05592,287.983804 L1272.3558,286.683917 L1272.3558,278.98443 L1278.7554,277.684543 L1279.90541,275.184732 L1273.50901,266.233995 Z M793.538991,432.623602 L789.689247,431.323715 L788.38936,435.173458 L790.939217,435.173458 L789.63933,437.723315 L792.189187,439.023202 L792.189187,444.122915 L793.489074,446.672772 L793.489074,447.972659 L788.38936,449.272546 L783.289647,447.972659 L780.73979,445.422802 L776.890047,444.122915 L775.59016,440.273172 L775.59016,437.723315 L776.890047,436.423428 L776.890047,431.273798 L779.439903,431.273798 L778.140017,429.973911 L776.84013,429.973911 L775.540243,426.124168 C772.990386,423.574311 771.6905,421.024454 769.140643,418.424681 L769.140643,414.574937 L767.940718,413.424929 L771.790461,408.325215 L775.640205,407.025329 L776.940092,404.475472 L780.789835,403.175585 L784.639579,400.625728 L787.189435,401.925615 L791.039179,401.925615 L791.039179,405.775359 L789.739292,410.875072 L787.189435,409.575185 L784.639579,410.875072 L784.639579,414.724816 L780.789835,414.724816 L780.789835,416.024702 L783.339692,417.324589 L784.639579,421.174333 L788.489322,422.47422 L789.789209,423.774106 L788.489322,426.323963 L788.489322,427.62385 L789.789209,430.173707 L789.789209,426.323963 L792.339066,425.024076 L793.538991,428.773858 L796.088848,431.323715 L793.538991,432.623602 Z" id="Fill-1-Copy" fill="#CFCFD3"></path>
                <g id="Group-4" transform="translate(620.000000, 560.000000)">
                    <g id="Rectangle-2-Copy-2" fill-rule="nonzero">
                        <use fill="black" fill-opacity="1" filter="url(#filter-2)" xlink:href="#path-1"></use>
                        <use fill="#22232D" xlink:href="#path-1"></use>
                    </g>
                    <text id="Africa" font-family="Avenir-Medium, Avenir" font-size="20" font-weight="400" letter-spacing="0.5833334" fill="#FFFFFF">
                        <tspan x="21.7699998" y="32">Africa</tspan>
                    </text>
                </g>
                <g id="Group-4-Copy-2" transform="translate(686.000000, 450.000000)">
                    <g id="Rectangle-2-Copy-2" fill-rule="nonzero">
                        <use fill="black" fill-opacity="1" filter="url(#filter-4)" xlink:href="#path-3"></use>
                        <use fill="#22232D" xlink:href="#path-3"></use>
                    </g>
                    <text id="Middle-East" font-family="Avenir-Medium, Avenir" font-size="20" font-weight="400" letter-spacing="0.5833334" fill="#FFFFFF">
                        <tspan x="22.9316663" y="31">Middle East</tspan>
                    </text>
                </g>
                <g id="Group-4-Copy-3" transform="translate(640.000000, 300.000000)">
                    <g id="Rectangle-2-Copy-2" fill-rule="nonzero">
                        <use fill="black" fill-opacity="1" filter="url(#filter-6)" xlink:href="#path-5"></use>
                        <use fill="#22232D" xlink:href="#path-5"></use>
                    </g>
                    <text id="Europe" font-family="Avenir-Medium, Avenir" font-size="20" font-weight="400" letter-spacing="0.5833334" fill="#FFFFFF">
                        <tspan x="25.4499998" y="31">Europe</tspan>
                    </text>
                </g>
                <g id="Group-4-Copy-4" transform="translate(130.000000, 300.000000)">
                    <g id="Rectangle-2-Copy-2" fill-rule="nonzero">
                        <use fill="black" fill-opacity="1" filter="url(#filter-8)" xlink:href="#path-7"></use>
                        <use fill="#22232D" xlink:href="#path-7"></use>
                    </g>
                    <text id="North-America" font-family="Avenir-Medium, Avenir" font-size="20" font-weight="400" letter-spacing="0.5833334" fill="#FFFFFF">
                        <tspan x="19.3383329" y="31">North America</tspan>
                    </text>
                </g>
                <g id="Group-4-Copy-5" transform="translate(301.000000, 590.000000)">
                    <g id="Rectangle-2-Copy-2" fill-rule="nonzero">
                        <use fill="black" fill-opacity="1" filter="url(#filter-10)" xlink:href="#path-9"></use>
                        <use fill="#22232D" xlink:href="#path-9"></use>
                    </g>
                    <text id="South-America" font-family="Avenir-Medium, Avenir" font-size="20" font-weight="400" letter-spacing="0.5833334" fill="#FFFFFF">
                        <tspan x="19.8783329" y="31">South America</tspan>
                    </text>
                </g>
                <g id="Group-4-Copy-7" transform="translate(227.000000, 482.000000)">
                    <g id="Rectangle-2-Copy-2" fill-rule="nonzero">
                        <use fill="black" fill-opacity="1" filter="url(#filter-12)" xlink:href="#path-11"></use>
                        <use fill="#22232D" xlink:href="#path-11"></use>
                    </g>
                    <text id="Caribbean" font-family="Avenir-Medium, Avenir" font-size="20" font-weight="400" letter-spacing="0.5833334" fill="#FFFFFF">
                        <tspan x="20.5149997" y="33">Caribbean</tspan>
                    </text>
                </g>
                <g id="Group-4-Copy-8" transform="translate(970.000000, 640.000000)">
                    <g id="Rectangle-2-Copy-2" fill-rule="nonzero">
                        <use fill="black" fill-opacity="1" filter="url(#filter-14)" xlink:href="#path-13"></use>
                        <use fill="#22232D" xlink:href="#path-13"></use>
                    </g>
                    <text id="Australia" font-family="Avenir-Medium, Avenir" font-size="20" font-weight="400" letter-spacing="0.5833334" fill="#FFFFFF">
                        <tspan x="27.7549997" y="33">Australia</tspan>
                    </text>
                </g>
                <g id="Group-4-Copy-9" transform="translate(1120.000000, 710.000000)">
                    <g id="Rectangle-2-Copy-2" fill-rule="nonzero">
                        <use fill="black" fill-opacity="1" filter="url(#filter-16)" xlink:href="#path-15"></use>
                        <use fill="#22232D" xlink:href="#path-15"></use>
                    </g>
                    <text id="New-Zealand" font-family="Avenir-Medium, Avenir" font-size="20" font-weight="400" letter-spacing="0.5833334" fill="#FFFFFF">
                        <tspan x="26.9616663" y="33">New Zealand</tspan>
                    </text>
                </g>
                <g id="Group-4-Copy" transform="translate(960.000000, 300.000000)">
                    <g id="Rectangle-2-Copy-2" fill-rule="nonzero">
                        <use fill="black" fill-opacity="1" filter="url(#filter-18)" xlink:href="#path-17"></use>
                        <use fill="#22232D" xlink:href="#path-17"></use>
                    </g>
                    <text id="Asia" font-family="Avenir-Medium, Avenir" font-size="20" font-weight="400" letter-spacing="0.5833334" fill="#FFFFFF">
                        <tspan x="19.7633332" y="31">Asia</tspan>
                    </text>
                </g>
            </g>
        </g>
    </g>
</svg>