<?xml version="1.0" encoding="UTF-8"?>
<svg width="60px" height="60px" viewBox="0 0 60 60" version="1.1" xmlns="http://www.w3.org/2000/svg" xmlns:xlink="http://www.w3.org/1999/xlink">
    <!-- Generator: Sketch 51.2 (57519) - http://www.bohemiancoding.com/sketch -->
    <title>Shape</title>
    <desc>Created with Sketch.</desc>
    <defs></defs>
    <g id="Page-1" stroke="none" stroke-width="1" fill="none" fill-rule="evenodd">
        <g id="Home-Page" transform="translate(-990.000000, -565.000000)" fill="#6E6F84" fill-rule="nonzero">
            <g id="hero">
                <g id="Group-8" transform="translate(920.000000, 565.000000)">
                    <path d="M129.970968,58.7970968 L128.035484,51.0551613 C127.927097,50.6245161 127.540968,50.3225806 127.096774,50.3225806 L121.077419,50.3225806 L119.324839,43.3132258 C119.217419,42.8825806 118.83129,42.5806452 118.387097,42.5806452 L111.836452,42.5806452 C112.323226,40.893871 112.580645,39.1480645 112.580645,37.3693548 C112.580645,32.3583871 110.62871,27.6474194 107.085806,24.1045161 L103.200323,20.2190323 C103.613548,19.7177419 103.870968,19.0858065 103.870968,18.3870968 C103.870968,17.643871 103.590323,16.9654839 103.129677,16.4516129 C103.590323,15.9377419 103.870968,15.2593548 103.870968,14.516129 C103.870968,13.4506452 103.288387,12.5283871 102.430968,12.0232258 L104.26871,8.96032258 C104.642258,8.33806452 104.83871,7.62677419 104.83871,6.90193548 C104.83871,4.69741935 103.044516,2.90322581 100.839032,2.90322581 L100.655161,2.90322581 C99.3148387,2.90322581 98.0712903,3.56903226 97.3280645,4.68387097 L96.9158065,5.30225806 C96.7048387,5.61774194 96.3525806,5.80645161 95.9732258,5.80645161 C95.4167742,5.80645161 94.9464516,5.40774194 94.8554839,4.86 L94.4993548,2.71645161 C94.2351613,1.14290323 92.8851613,0 91.2903226,0 C89.6954839,0 88.3454839,1.14290323 88.0822581,2.7183871 L87.726129,4.86 C87.6341935,5.40774194 87.163871,5.80645161 86.6074194,5.80645161 C86.2270968,5.80645161 85.8758065,5.61774194 85.6648387,5.30225806 L85.2535484,4.68387097 C84.5093548,3.56903226 83.2658065,2.90322581 81.9254839,2.90322581 L81.7416129,2.90322581 C79.536129,2.90322581 77.7419355,4.69741935 77.7419355,6.90193548 C77.7419355,7.62677419 77.9383871,8.33806452 78.3119355,8.95935484 L80.1496774,12.0222581 C79.2922581,12.5283871 78.7096774,13.4506452 78.7096774,14.516129 C78.7096774,15.2593548 78.9903226,15.9377419 79.4509677,16.4516129 C78.9903226,16.9654839 78.7096774,17.643871 78.7096774,18.3870968 C78.7096774,19.0858065 78.9670968,19.7177419 79.3793548,20.22 L75.493871,24.1054839 C71.9519355,27.6474194 70,32.3583871 70,37.3693548 C70,47.4987097 78.0758065,55.7574194 88.123871,56.0970968 L87.4483871,58.7980645 C87.3758065,59.0874194 87.4406452,59.3932258 87.6245161,59.6283871 C87.8083871,59.8635484 88.0890323,60 88.3870968,60 L129.032258,60 C129.330323,60 129.611935,59.8625806 129.794839,59.6274194 C129.977742,59.3922581 130.043548,59.0864516 129.970968,58.7970968 Z M119.082903,50.3225806 L108.496774,50.3225806 L107.045161,44.516129 L110.507742,44.516129 C110.50871,44.516129 110.509677,44.516129 110.510645,44.516129 C110.511613,44.516129 110.512581,44.516129 110.513548,44.516129 L117.630323,44.516129 L119.082903,50.3225806 Z M100.754839,58.0645161 L99.3032258,52.2580645 L104.566774,52.2580645 L103.115161,58.0645161 L100.754839,58.0645161 Z M105.051613,44.516129 L106.503226,50.3225806 L97.3687097,50.3225806 L98.8212903,44.516129 L105.051613,44.516129 Z M106.56129,52.2580645 L112.792581,52.2580645 L114.244194,58.0645161 L105.109677,58.0645161 L106.56129,52.2580645 Z M80.6451613,18.3870968 C80.6451613,17.853871 81.0787097,17.4193548 81.6129032,17.4193548 L84.516129,17.4193548 C85.0512903,17.4193548 85.483871,16.9858065 85.483871,16.4516129 C85.483871,15.9174194 85.0512903,15.483871 84.516129,15.483871 L81.6129032,15.483871 C81.0787097,15.483871 80.6451613,15.0493548 80.6451613,14.516129 C80.6451613,13.9829032 81.0787097,13.5483871 81.6129032,13.5483871 L100.967742,13.5483871 C101.501935,13.5483871 101.935484,13.9829032 101.935484,14.516129 C101.935484,15.0493548 101.501935,15.483871 100.967742,15.483871 L88.3870968,15.483871 C87.8519355,15.483871 87.4193548,15.9174194 87.4193548,16.4516129 C87.4193548,16.9858065 87.8519355,17.4193548 88.3870968,17.4193548 L100.967742,17.4193548 C101.501935,17.4193548 101.935484,17.853871 101.935484,18.3870968 C101.935484,18.9203226 101.501935,19.3548387 100.967742,19.3548387 L81.6129032,19.3548387 C81.0787097,19.3548387 80.6451613,18.9203226 80.6451613,18.3870968 Z M79.6774194,6.90193548 C79.6774194,5.76483871 80.6035484,4.83870968 81.7416129,4.83870968 L81.9254839,4.83870968 C82.6174194,4.83870968 83.2590323,5.18225806 83.6422581,5.75806452 L84.0545161,6.37645161 C84.6245161,7.23096774 85.5796774,7.74193548 86.6074194,7.74193548 C88.1132258,7.74193548 89.3858065,6.66387097 89.6345161,5.1783871 L89.9906452,3.03677419 C90.0980645,2.39903226 90.643871,1.93548387 91.2903226,1.93548387 C91.9367742,1.93548387 92.4825806,2.39903226 92.59,3.03580645 L92.946129,5.1783871 C93.1948387,6.66387097 94.4674194,7.74193548 95.9732258,7.74193548 C97.0009677,7.74193548 97.956129,7.23096774 98.526129,6.37548387 L98.9383871,5.75709677 C99.3216129,5.18225806 99.9632258,4.83870968 100.655161,4.83870968 L100.839032,4.83870968 C101.977097,4.83870968 102.903226,5.76483871 102.903226,6.90193548 C102.903226,7.27645161 102.801613,7.64322581 102.609032,7.96354839 L100.42,11.6129032 L82.1606452,11.6129032 L79.9706452,7.96451613 C79.7790323,7.64322581 79.6774194,7.27645161 79.6774194,6.90193548 Z M71.9354839,37.3693548 C71.9354839,32.8751613 73.686129,28.65 76.8632258,25.4729032 L81.0980645,21.2380645 C81.2654839,21.2680645 81.4367742,21.2903226 81.6129032,21.2903226 L100.967742,21.2903226 C101.143871,21.2903226 101.315161,21.2680645 101.482581,21.2380645 L105.717419,25.4729032 C108.894516,28.65 110.645161,32.8751613 110.645161,37.3693548 C110.645161,39.1558065 110.352903,40.9025806 109.806129,42.5806452 L98.0645161,42.5806452 C97.6203226,42.5806452 97.2341935,42.8825806 97.1258065,43.3132258 L95.3741935,50.3225806 L90.3225806,50.3225806 C89.8783871,50.3225806 89.4922581,50.6245161 89.383871,51.0551613 L88.6009677,54.1848387 C79.3977419,54.0996774 71.9354839,46.5929032 71.9354839,37.3693548 Z M91.0783871,52.2580645 L97.3087097,52.2580645 L98.7603226,58.0645161 L89.6267742,58.0645161 L91.0783871,52.2580645 Z M116.23871,58.0645161 L114.787097,52.2580645 L126.34,52.2580645 L127.791613,58.0645161 L116.23871,58.0645161 Z M82.1112903,48.4829032 C82.5690323,48.7577419 82.7180645,49.3529032 82.4432258,49.8116129 C82.2622581,50.1135484 81.9419355,50.2809677 81.6129032,50.2809677 C81.4435484,50.2809677 81.2712903,50.2364516 81.1154839,50.1425806 C77.3625806,47.8877419 74.796129,44.1319355 74.076129,39.8380645 C73.9880645,39.3106452 74.3432258,38.8112903 74.8706452,38.7232258 C75.396129,38.6332258 75.8954839,38.9912903 75.9845161,39.5177419 C76.6096774,43.2522581 78.8432258,46.5203226 82.1112903,48.4829032 Z M90.3225806,46.4516129 L90.3225806,45.4345161 C88.1509677,45.1906452 86.4516129,43.3645161 86.4516129,41.1290323 L86.4516129,40.6451613 C86.4516129,40.1109677 86.8841935,39.6774194 87.4193548,39.6774194 C87.9545161,39.6774194 88.3870968,40.1109677 88.3870968,40.6451613 L88.3870968,41.1290323 C88.3870968,42.4625806 89.4719355,43.5483871 90.8064516,43.5483871 L91.7741935,43.5483871 C93.1087097,43.5483871 94.1935484,42.4625806 94.1935484,41.1290323 C94.1935484,39.7954839 93.1087097,38.7096774 91.7741935,38.7096774 L90.8064516,38.7096774 C88.4054839,38.7096774 86.4516129,36.7558065 86.4516129,34.3548387 C86.4516129,32.1193548 88.1509677,30.2932258 90.3225806,30.0493548 L90.3225806,29.0322581 C90.3225806,28.4980645 90.7551613,28.0645161 91.2903226,28.0645161 C91.8254839,28.0645161 92.2580645,28.4980645 92.2580645,29.0322581 L92.2580645,30.0493548 C94.4296774,30.2932258 96.1290323,32.1193548 96.1290323,34.3548387 L96.1290323,34.8387097 C96.1290323,35.3729032 95.6964516,35.8064516 95.1612903,35.8064516 C94.626129,35.8064516 94.1935484,35.3729032 94.1935484,34.8387097 L94.1935484,34.3548387 C94.1935484,33.0212903 93.1087097,31.9354839 91.7741935,31.9354839 L90.8064516,31.9354839 C89.4719355,31.9354839 88.3870968,33.0212903 88.3870968,34.3548387 C88.3870968,35.6883871 89.4719355,36.7741935 90.8064516,36.7741935 L91.7741935,36.7741935 C94.1751613,36.7741935 96.1290323,38.7280645 96.1290323,41.1290323 C96.1290323,43.3645161 94.4296774,45.1906452 92.2580645,45.4345161 L92.2580645,46.4516129 C92.2580645,46.9858065 91.8254839,47.4193548 91.2903226,47.4193548 C90.7551613,47.4193548 90.3225806,46.9858065 90.3225806,46.4516129 Z M74.8387097,36.7741935 C74.3042406,36.7741935 73.8709677,36.3409207 73.8709677,35.8064516 C73.8709677,35.2719825 74.3042406,34.8387097 74.8387097,34.8387097 C75.3731788,34.8387097 75.8064516,35.2719825 75.8064516,35.8064516 C75.8064516,36.3409207 75.3731788,36.7741935 74.8387097,36.7741935 Z" id="Shape"></path>
                </g>
            </g>
        </g>
    </g>
</svg>