<?xml version="1.0" encoding="UTF-8"?>
<svg width="46px" height="62px" viewBox="0 0 46 62" version="1.1" xmlns="http://www.w3.org/2000/svg" xmlns:xlink="http://www.w3.org/1999/xlink">
    <!-- Generator: Sketch 51.2 (57519) - http://www.bohemiancoding.com/sketch -->
    <title>Shape</title>
    <desc>Created with Sketch.</desc>
    <defs></defs>
    <g id="Page-1" stroke="none" stroke-width="1" fill="none" fill-rule="evenodd">
        <g id="About-Page" transform="translate(-677.000000, -1650.000000)" fill="#6E6F84" fill-rule="nonzero">
            <path d="M714.747941,1706.70237 L711.767841,1702.72891 L711.767841,1698.90643 L706.247701,1684.18573 L707.794373,1684.18573 L707.794373,1679.45333 L710.395008,1674.25206 L712.761207,1674.25206 L712.761207,1668.29186 L706.583459,1668.29186 L705.590092,1664.31839 L702.827539,1664.31839 L702.827539,1661.33829 L706.801006,1661.33829 L706.801006,1655.37809 L702.827539,1655.37809 L702.827539,1652.9801 L699.847438,1650 L696.867337,1652.9801 L696.867337,1655.37809 L692.89387,1655.37809 L692.89387,1661.33829 L696.867337,1661.33829 L696.867337,1664.31839 L694.104784,1664.31839 L693.111417,1668.29186 L686.933669,1668.29186 L686.933669,1674.25206 L689.299869,1674.25206 L691.900503,1679.45333 L691.900503,1684.18573 L693.447175,1684.18573 L687.927036,1698.90643 L687.927036,1702.72891 L684.946935,1706.70237 L684.946935,1710.01327 L680.973467,1710.01327 L680.973467,1712 L718.721409,1712 L718.721409,1710.01327 L714.747941,1710.01327 L714.747941,1706.70237 Z M710.27779,1704.05307 L711.767841,1706.0398 L687.927036,1706.0398 L689.417086,1704.05307 L710.27779,1704.05307 Z M693.887237,1682.19899 L693.887237,1680.21226 L705.807639,1680.21226 L705.807639,1682.19899 L693.887237,1682.19899 Z M694.880604,1659.35156 L694.880604,1657.36482 L698.854071,1657.36482 L698.854071,1653.80261 L699.847438,1652.80924 L700.840805,1653.80261 L700.840805,1657.36482 L704.814272,1657.36482 L704.814272,1659.35156 L700.840805,1659.35156 L700.840805,1664.31839 L698.854071,1664.31839 L698.854071,1659.35156 L694.880604,1659.35156 Z M695.656423,1666.30512 L704.038453,1666.30512 L704.535136,1668.29186 L695.15974,1668.29186 L695.656423,1666.30512 Z M688.920402,1672.26533 L688.920402,1670.27859 L710.774474,1670.27859 L710.774474,1672.26533 L695.873971,1672.26533 L695.873971,1674.25206 L708.173839,1674.25206 L706.187105,1678.22553 L693.507771,1678.22553 L691.521037,1674.25206 L693.887237,1674.25206 L693.887237,1672.26533 L688.920402,1672.26533 Z M704.125869,1684.18573 L709.341045,1698.09286 L705.807639,1698.09286 L705.807639,1700.0796 L709.781107,1700.0796 L709.781107,1702.06633 L689.913769,1702.06633 L689.913769,1700.0796 L703.820906,1700.0796 L703.820906,1698.09286 L690.353831,1698.09286 L695.569007,1684.18573 L704.125869,1684.18573 Z M686.933669,1708.02653 L712.761207,1708.02653 L712.761207,1710.01327 L686.933669,1710.01327 L686.933669,1708.02653 Z M720.708142,1710.01327 L722.694876,1710.01327 L722.694876,1712 L720.708142,1712 L720.708142,1710.01327 Z M677,1710.01327 L678.986734,1710.01327 L678.986734,1712 L677,1712 L677,1710.01327 Z" id="Shape"></path>
        </g>
    </g>
</svg>