<?xml version="1.0" encoding="UTF-8"?>
<svg width="77px" height="54px" viewBox="0 0 77 54" version="1.1" xmlns="http://www.w3.org/2000/svg" xmlns:xlink="http://www.w3.org/1999/xlink">
    <!-- Generator: Sketch 51.2 (57519) - http://www.bohemiancoding.com/sketch -->
    <title>Shape</title>
    <desc>Created with Sketch.</desc>
    <defs></defs>
    <g id="Page-1" stroke="none" stroke-width="1" fill="none" fill-rule="evenodd">
        <g id="Single-Experience-Page" transform="translate(-982.000000, -1436.000000)" fill="#FF705B" fill-rule="nonzero">
            <path d="M1051.95455,1445.81818 L1043.09486,1445.81818 L1041.80255,1440.64891 C1041.11773,1437.91209 1038.67055,1436 1035.84905,1436 L1016.51459,1436 C1013.69309,1436 1011.24591,1437.91209 1010.56109,1440.64768 L1009.26877,1445.81818 L1004.09091,1445.81818 L1004.09091,1444.59091 C1004.09091,1442.561 1002.439,1440.90909 1000.40909,1440.90909 L993.045455,1440.90909 C991.015545,1440.90909 989.363636,1442.561 989.363636,1444.59091 L989.363636,1445.81818 L988.136364,1445.81818 C984.752773,1445.81818 982,1448.57095 982,1451.95455 L982,1483.86364 C982,1487.24723 984.752773,1490 988.136364,1490 L1051.95455,1490 C1055.33814,1490 1058.09091,1487.24723 1058.09091,1483.86364 L1058.09091,1451.95455 C1058.09091,1448.57095 1055.33814,1445.81818 1051.95455,1445.81818 Z M991.818182,1444.59091 C991.818182,1443.91468 992.369227,1443.36364 993.045455,1443.36364 L1000.40909,1443.36364 C1001.08532,1443.36364 1001.63636,1443.91468 1001.63636,1444.59091 L1001.63636,1445.81818 L991.818182,1445.81818 L991.818182,1444.59091 Z M988.136364,1448.27273 L999.181818,1448.27273 L999.181818,1459.31818 C999.181818,1461.34809 997.529909,1463 995.5,1463 L984.454545,1463 L984.454545,1451.95455 C984.454545,1449.92464 986.106455,1448.27273 988.136364,1448.27273 Z M1055.63636,1483.86364 C1055.63636,1485.89355 1053.98445,1487.54545 1051.95455,1487.54545 L994.272727,1487.54545 L994.272727,1474.04545 C994.272727,1473.368 993.722909,1472.81818 993.045455,1472.81818 C992.368,1472.81818 991.818182,1473.368 991.818182,1474.04545 L991.818182,1487.54545 L988.136364,1487.54545 C986.106455,1487.54545 984.454545,1485.89355 984.454545,1483.86364 L984.454545,1465.45455 L991.818182,1465.45455 L991.818182,1469.13636 C991.818182,1469.81382 992.368,1470.36364 993.045455,1470.36364 C993.722909,1470.36364 994.272727,1469.81382 994.272727,1469.13636 L994.272727,1465.45455 L995.5,1465.45455 C998.883591,1465.45455 1001.63636,1462.70177 1001.63636,1459.31818 L1001.63636,1448.27273 L1010.22727,1448.27273 C1010.79059,1448.27273 1011.2815,1447.88982 1011.41773,1447.34368 L1012.94323,1441.24291 C1013.35314,1439.60205 1014.82218,1438.45455 1016.51459,1438.45455 L1035.84905,1438.45455 C1037.54145,1438.45455 1039.0105,1439.60205 1039.42041,1441.24291 L1040.94591,1447.34245 C1041.08214,1447.88982 1041.57305,1448.27273 1042.13636,1448.27273 L1051.95455,1448.27273 C1053.98445,1448.27273 1055.63636,1449.92464 1055.63636,1451.95455 L1055.63636,1483.86364 Z M1026.18182,1450.72727 C1018.06095,1450.72727 1011.45455,1457.33368 1011.45455,1465.45455 C1011.45455,1473.57541 1018.06095,1480.18182 1026.18182,1480.18182 C1034.30268,1480.18182 1040.90909,1473.57541 1040.90909,1465.45455 C1040.90909,1457.33368 1034.30268,1450.72727 1026.18182,1450.72727 Z M1026.18182,1477.72727 C1019.41464,1477.72727 1013.90909,1472.22173 1013.90909,1465.45455 C1013.90909,1458.68736 1019.41464,1453.18182 1026.18182,1453.18182 C1032.949,1453.18182 1038.45455,1458.68736 1038.45455,1465.45455 C1038.45455,1472.22173 1032.949,1477.72727 1026.18182,1477.72727 Z M991.818182,1460.54545 C994.525545,1460.54545 996.727273,1458.34373 996.727273,1455.63636 C996.727273,1452.929 994.525545,1450.72727 991.818182,1450.72727 C989.110818,1450.72727 986.909091,1452.929 986.909091,1455.63636 C986.909091,1458.34373 989.110818,1460.54545 991.818182,1460.54545 Z M991.818182,1453.18182 C993.171864,1453.18182 994.272727,1454.28268 994.272727,1455.63636 C994.272727,1456.99005 993.171864,1458.09091 991.818182,1458.09091 C990.4645,1458.09091 989.363636,1456.99005 989.363636,1455.63636 C989.363636,1454.28268 990.4645,1453.18182 991.818182,1453.18182 Z M1018.81818,1443.36364 C1018.14073,1443.36364 1017.59091,1442.81382 1017.59091,1442.13636 C1017.59091,1441.45891 1018.14073,1440.90909 1018.81818,1440.90909 L1033.54545,1440.90909 C1034.22291,1440.90909 1034.77273,1441.45891 1034.77273,1442.13636 C1034.77273,1442.81382 1034.22291,1443.36364 1033.54545,1443.36364 L1018.81818,1443.36364 Z M1044.83145,1459.34273 C1042.25418,1451.50168 1034.87459,1445.81818 1026.18182,1445.81818 C1015.35482,1445.81818 1006.54545,1454.62755 1006.54545,1465.45455 C1006.54545,1476.28155 1015.35482,1485.09091 1026.18182,1485.09091 C1030.47114,1485.09091 1034.54445,1483.73355 1037.96486,1481.16364 C1038.50609,1480.75618 1038.61655,1479.98791 1038.20909,1479.44545 C1037.80164,1478.90423 1037.03336,1478.79377 1036.49091,1479.20123 C1033.49882,1481.44836 1029.93482,1482.63636 1026.18182,1482.63636 C1016.70727,1482.63636 1009,1474.92909 1009,1465.45455 C1009,1455.98 1016.70727,1448.27273 1026.18182,1448.27273 C1035.65636,1448.27273 1043.36364,1455.98 1043.36364,1465.45455 C1043.36364,1469.20755 1042.17564,1472.77277 1039.9285,1475.76486 C1039.52105,1476.30609 1039.63027,1477.07559 1040.17273,1477.48305 C1040.71518,1477.8905 1041.48468,1477.78127 1041.89091,1477.23882 C1043.19918,1475.49855 1044.18836,1473.58645 1044.84986,1471.56514 C1048.11073,1471.42645 1050.72727,1468.74977 1050.72727,1465.45455 C1050.72727,1462.15318 1048.10091,1459.47159 1044.83145,1459.34273 Z M1045.48682,1469.01364 C1045.69914,1467.85018 1045.81818,1466.66218 1045.81818,1465.45455 C1045.81818,1464.23709 1045.69177,1463.05032 1045.47823,1461.893 C1047.07859,1462.29309 1048.27273,1463.73145 1048.27273,1465.45455 C1048.27273,1467.17395 1047.0835,1468.60986 1045.48682,1469.01364 Z M1051.95455,1450.72727 C1052.632,1450.72727 1053.18182,1451.27709 1053.18182,1451.95455 C1053.18182,1452.632 1052.632,1453.18182 1051.95455,1453.18182 L1047.04545,1453.18182 C1046.368,1453.18182 1045.81818,1452.632 1045.81818,1451.95455 C1045.81818,1451.27709 1046.368,1450.72727 1047.04545,1450.72727 L1051.95455,1450.72727 Z M1026.18182,1458.09091 C1030.24286,1458.09091 1033.54545,1461.3935 1033.54545,1465.45577 C1033.54545,1466.47932 1033.33927,1467.46973 1032.93182,1468.40123 C1032.65936,1469.02345 1031.93527,1469.3045 1031.3155,1469.0345 C1030.6945,1468.76327 1030.411,1468.03918 1030.68223,1467.41818 C1030.95345,1466.79841 1031.09091,1466.13814 1031.09091,1465.45455 C1031.09091,1462.74718 1028.88918,1460.54545 1026.18182,1460.54545 C1023.47445,1460.54545 1021.27273,1462.74718 1021.27273,1465.45455 C1021.27273,1468.16191 1023.47445,1470.36364 1026.18182,1470.36364 C1026.86541,1470.36364 1027.52568,1470.22618 1028.14423,1469.95495 C1028.764,1469.68495 1029.48809,1469.966 1029.76055,1470.58823 C1030.03177,1471.20923 1029.74827,1471.93332 1029.12727,1472.20455 C1028.197,1472.612 1027.20536,1472.81818 1026.18182,1472.81818 C1022.12077,1472.81818 1018.81818,1469.51559 1018.81818,1465.45455 C1018.81818,1461.3935 1022.12077,1458.09091 1026.18182,1458.09091 Z M1045.81818,1481.40909 C1045.14038,1481.40909 1044.59091,1480.85962 1044.59091,1480.18182 C1044.59091,1479.50401 1045.14038,1478.95455 1045.81818,1478.95455 C1046.49599,1478.95455 1047.04545,1479.50401 1047.04545,1480.18182 C1047.04545,1480.85962 1046.49599,1481.40909 1045.81818,1481.40909 Z" id="Shape"></path>
        </g>
    </g>
</svg>