<?xml version="1.0" encoding="UTF-8"?>
<svg width="76px" height="54px" viewBox="0 0 76 54" version="1.1" xmlns="http://www.w3.org/2000/svg" xmlns:xlink="http://www.w3.org/1999/xlink">
    <!-- Generator: Sketch 51.2 (57519) - http://www.bohemiancoding.com/sketch -->
    <title>Shape</title>
    <desc>Created with Sketch.</desc>
    <defs></defs>
    <g id="Page-1" stroke="none" stroke-width="1" fill="none" fill-rule="evenodd">
        <g id="Single-Experience-Page" transform="translate(-982.000000, -1246.000000)" fill="#FF705B" fill-rule="nonzero">
            <path d="M1057.47013,1271.48928 L1053.56343,1255.31363 C1053.40243,1254.59278 1053.11214,1253.91951 1052.7194,1253.3182 L1052.74257,1253.3182 C1054.75996,1253.3182 1056.40167,1251.67648 1056.40167,1249.6591 C1056.40167,1247.64172 1054.75996,1246 1052.74257,1246 L1003.95459,1246 C1001.93721,1246 1000.29549,1247.64172 1000.29549,1249.6591 C1000.29549,1251.67648 1001.93721,1253.3182 1003.95459,1253.3182 L1004.13267,1253.3182 C1004.06802,1253.41821 1003.98874,1253.50725 1003.9302,1253.61093 L996.679084,1266.30068 C996.153394,1267.21911 995.256914,1267.86555 994.21895,1268.0729 L988.120452,1269.2926 C985.280992,1269.8622 983.2197,1272.37722 983.2197,1275.27401 L983.2197,1281.71158 C982.493978,1282.13482 982,1282.91299 982,1283.81191 L982,1291.1301 C982,1292.47543 983.09407,1293.5695 984.439399,1293.5695 L991.2563,1293.5695 C992.707742,1297.14078 996.2095,1299.668 1000.29549,1299.668 C1004.38149,1299.668 1007.88324,1297.14078 1009.33469,1293.5695 L1029.06699,1293.5695 C1030.51843,1297.14078 1034.02019,1299.668 1038.10618,1299.668 C1042.19217,1299.668 1045.69393,1297.14078 1047.14537,1293.5695 L1053.96227,1293.5695 C1055.97966,1293.5695 1057.62137,1291.92779 1057.62137,1289.9104 L1057.62137,1272.83461 C1057.62137,1272.39064 1057.57258,1271.94545 1057.47013,1271.48928 Z M1002.73489,1249.66032 C1002.73489,1248.98826 1003.28254,1248.44062 1003.95459,1248.44062 L1052.74257,1248.44062 C1053.41585,1248.44062 1053.96227,1248.98826 1053.96227,1249.66032 C1053.96227,1250.33237 1053.41585,1250.88002 1052.74257,1250.88002 L1003.95459,1250.88002 C1003.28254,1250.88002 1002.73489,1250.33237 1002.73489,1249.66032 Z M988.601014,1271.68565 L994.698292,1270.46595 C996.427826,1270.12078 997.923178,1269.04378 998.797702,1267.51184 L1006.04882,1254.82209 C1006.42814,1254.15857 1007.02214,1253.63654 1007.72468,1253.31942 L1049.08713,1253.31942 C1050.14705,1253.79144 1050.9301,1254.71597 1051.18746,1255.86615 L1054.94535,1271.41976 L1050.30317,1271.41976 L1050.30317,1273.85916 L1055.18197,1273.85916 L1055.18197,1276.49371 L1050.30317,1276.49371 L1050.30317,1283.81191 L1055.18197,1283.81191 L1055.18197,1286.2513 L1047.14537,1286.2513 C1045.69393,1282.68002 1042.19217,1280.15281 1038.10618,1280.15281 C1034.02019,1280.15281 1030.51843,1282.68002 1029.06699,1286.2513 L1009.33469,1286.2513 C1008.97488,1285.3658 1008.49065,1284.54616 1007.90032,1283.81191 L1009.92868,1283.81191 C1016.60776,1283.81191 1023.19047,1282.03358 1028.96331,1278.66965 C1034.36292,1275.52283 1040.51996,1273.85916 1046.76971,1273.85916 L1047.86378,1273.85916 L1047.86378,1271.41976 L1046.76971,1271.41976 C1040.08941,1271.41976 1033.50791,1273.19808 1027.73507,1276.56079 C1022.33302,1279.70884 1016.1772,1281.37251 1009.92868,1281.37251 L1005.00841,1281.37251 C1003.60942,1280.59678 1002.00429,1280.15281 1000.29549,1280.15281 C996.2095,1280.15281 992.707742,1282.68002 991.2563,1286.2513 L989.318197,1286.2513 L989.318197,1281.37251 L985.659099,1281.37251 L985.659099,1277.71341 L990.537897,1277.71341 C991.883225,1277.71341 992.977296,1276.61934 992.977296,1275.27401 L992.977296,1272.83461 L990.537897,1272.83461 L990.537897,1275.27401 L985.659099,1275.27401 C985.659099,1273.53594 986.895874,1272.02717 988.601014,1271.68565 Z M1055.18197,1278.93311 L1055.18197,1281.37251 L1052.74257,1281.37251 L1052.74257,1278.93311 L1055.18197,1278.93311 Z M984.439399,1291.1301 L984.439399,1283.81191 L986.878798,1283.81191 L986.878798,1288.6907 L990.622056,1288.6907 C990.572048,1289.09077 990.537897,1289.49693 990.537897,1289.9104 C990.537897,1290.32388 990.572048,1290.73004 990.622056,1291.1301 L984.439399,1291.1301 Z M1000.29549,1297.2286 C996.259507,1297.2286 992.977296,1293.94639 992.977296,1289.9104 C992.977296,1285.87442 996.259507,1282.59221 1000.29549,1282.59221 C1004.33148,1282.59221 1007.61369,1285.87442 1007.61369,1289.9104 C1007.61369,1293.94639 1004.33148,1297.2286 1000.29549,1297.2286 Z M1009.96893,1291.1301 C1010.01894,1290.73004 1010.05309,1290.32388 1010.05309,1289.9104 C1010.05309,1289.49693 1010.01894,1289.09077 1009.96893,1288.6907 L1028.43396,1288.6907 C1028.38273,1289.09077 1028.34858,1289.49693 1028.34858,1289.9104 C1028.34858,1290.32388 1028.38273,1290.73004 1028.43274,1291.1301 L1009.96893,1291.1301 Z M1038.10618,1297.2286 C1034.07019,1297.2286 1030.78798,1293.94639 1030.78798,1289.9104 C1030.78798,1285.87442 1034.07019,1282.59221 1038.10618,1282.59221 C1042.14217,1282.59221 1045.42438,1285.87442 1045.42438,1289.9104 C1045.42438,1293.94639 1042.14217,1297.2286 1038.10618,1297.2286 Z M1053.96227,1291.1301 L1047.77962,1291.1301 C1047.82962,1290.73004 1047.86378,1290.32388 1047.86378,1289.9104 C1047.86378,1289.49693 1047.82962,1289.09077 1047.77962,1288.6907 L1055.18197,1288.6907 L1055.18197,1289.9104 C1055.18197,1290.58368 1054.63555,1291.1301 1053.96227,1291.1301 Z M1038.10618,1285.03161 C1035.41552,1285.03161 1033.22738,1287.21975 1033.22738,1289.9104 C1033.22738,1292.60106 1035.41552,1294.7892 1038.10618,1294.7892 C1040.79684,1294.7892 1042.98498,1292.60106 1042.98498,1289.9104 C1042.98498,1287.21975 1040.79684,1285.03161 1038.10618,1285.03161 Z M1038.10618,1292.3498 C1036.76085,1292.3498 1035.66678,1291.25573 1035.66678,1289.9104 C1035.66678,1288.56507 1036.76085,1287.471 1038.10618,1287.471 C1039.45151,1287.471 1040.54558,1288.56507 1040.54558,1289.9104 C1040.54558,1291.25573 1039.45151,1292.3498 1038.10618,1292.3498 Z M1000.29549,1285.03161 C997.604836,1285.03161 995.416695,1287.21975 995.416695,1289.9104 C995.416695,1292.60106 997.604836,1294.7892 1000.29549,1294.7892 C1002.98615,1294.7892 1005.17429,1292.60106 1005.17429,1289.9104 C1005.17429,1287.21975 1002.98615,1285.03161 1000.29549,1285.03161 Z M1000.29549,1292.3498 C998.950165,1292.3498 997.856094,1291.25573 997.856094,1289.9104 C997.856094,1288.56507 998.950165,1287.471 1000.29549,1287.471 C1001.64082,1287.471 1002.73489,1288.56507 1002.73489,1289.9104 C1002.73489,1291.25573 1001.64082,1292.3498 1000.29549,1292.3498 Z M1008.36746,1267.95581 L1027.12888,1267.95581 L1027.12888,1255.75882 L1011.27279,1255.75882 C1010.05431,1255.75882 1008.96024,1256.43575 1008.41625,1257.52372 L1005.51093,1263.33437 C1005.29138,1263.7759 1005.17429,1264.26988 1005.17429,1264.76264 C1005.17429,1266.52388 1006.60622,1267.95581 1008.36746,1267.95581 Z M1007.69297,1264.42478 L1010.5983,1258.61413 C1010.72758,1258.358 1010.98494,1258.19822 1011.27279,1258.19822 L1024.68948,1258.19822 L1024.68948,1265.51641 L1008.36746,1265.51641 C1007.95155,1265.51641 1007.61369,1265.17856 1007.61369,1264.76264 C1007.61369,1264.64677 1007.64052,1264.52968 1007.69297,1264.42478 Z M1050.30317,1264.76264 L1050.30317,1264.61749 C1050.30317,1264.27598 1050.24829,1263.93568 1050.13974,1263.61002 L1048.25042,1257.94208 C1047.81499,1256.63578 1046.59773,1255.75882 1045.22191,1255.75882 L1029.56828,1255.75882 L1029.56828,1267.95581 L1047.11,1267.95581 C1048.87003,1267.95581 1050.30317,1266.52388 1050.30317,1264.76264 Z M1032.00768,1258.19822 L1045.22191,1258.19822 C1045.54757,1258.19822 1045.8342,1258.40556 1045.93787,1258.71415 L1047.82475,1264.37721 C1047.85036,1264.45527 1047.86378,1264.53577 1047.86378,1264.61749 L1047.86378,1264.76264 C1047.86378,1265.17856 1047.52592,1265.51641 1047.11,1265.51641 L1032.00768,1265.51641 L1032.00768,1258.19822 Z M1018.59099,1270.39521 L1027.12888,1270.39521 L1027.12888,1272.83461 L1018.59099,1272.83461 L1018.59099,1270.39521 Z" id="Shape"></path>
        </g>
    </g>
</svg>